<?xml version="1.0" encoding="utf-8"?>
<!-- Generator: Adobe Illustrator 16.0.0, SVG Export Plug-In . SVG Version: 6.00 Build 0)  -->
<!DOCTYPE svg PUBLIC "-//W3C//DTD SVG 1.1//EN" "http://www.w3.org/Graphics/SVG/1.1/DTD/svg11.dtd">
<svg version="1.1" xmlns="http://www.w3.org/2000/svg" xmlns:xlink="http://www.w3.org/1999/xlink" x="0px" y="0px" width="800px"
	 height="800px" viewBox="0 0 800 800" enable-background="new 0 0 800 800" xml:space="preserve">
<g id="back">
	<rect y="-3" fill="#757575" width="805" height="805"/>
</g>
<g id="draw">
	<g>
		<polygon fill="#DC4A54" points="187.081,594.148 164.935,729.492 139.807,654.876 		"/>
		<polygon fill="#CF344F" points="67.484,641.204 164.935,729.492 139.814,654.876 		"/>
		<polygon fill="#517F91" points="36.497,146.877 14.341,282.228 -0.433,238.34 -0.433,194.318 		"/>
		<polygon fill="#78708B" points="-0.433,268.833 14.341,282.228 -0.433,238.34 		"/>
		<polygon fill="#7C2382" points="665.464,405.918 643.319,541.269 618.198,466.646 		"/>
		<polygon fill="#82277A" points="545.868,452.979 643.319,541.269 618.198,466.646 		"/>
		<polygon fill="#B76C7F" points="510.714,-15.913 492.727,93.996 467.605,19.374 495.073,-15.913 		"/>
		<polygon fill="#A87187" points="395.282,5.706 492.727,93.996 467.605,19.374 		"/>
		<polygon fill="#DA7861" points="426.279,500.033 404.123,635.379 379.002,560.762 		"/>
		<polygon fill="#E47E5D" points="306.679,547.096 404.123,635.379 379.002,560.762 		"/>
		<polygon fill="#00B1A1" points="275.685,52.761 253.537,188.111 228.417,113.49 		"/>
		<polygon fill="#00A5A0" points="156.094,99.824 253.537,188.111 228.417,113.49 		"/>
		<polygon fill="#7E1374" points="785.064,358.864 804.638,376.6 804.638,362.563 		"/>
		<polygon fill="#BD3F58" points="734.508,-15.913 731.921,-0.118 726.601,-15.913 		"/>
		<polygon fill="#C34C58" points="714.486,-15.913 731.921,-0.118 726.604,-15.913 		"/>
		<polygon fill="#5F4581" points="621.166,676.611 599.009,811.955 573.888,737.339 		"/>
		<polygon fill="#665181" points="501.567,723.665 599.019,811.955 573.888,737.339 		"/>
		<polygon fill="#D8627C" points="470.579,229.338 448.426,364.688 423.303,290.069 		"/>
		<polygon fill="#DB7177" points="350.981,276.4 448.426,364.688 423.303,290.069 		"/>
		<polygon fill="#D8906E" points="381.976,770.729 368.275,854.408 342.431,854.408 334.7,831.457 		"/>
		<polygon fill="#CA4D65" points="262.379,817.779 302.804,854.408 342.431,854.408 334.7,831.457 		"/>
		<polygon fill="#D78173" points="231.383,323.455 209.236,458.806 184.115,384.185 		"/>
		<polygon fill="#DC766F" points="111.784,370.516 209.236,458.806 184.115,384.185 		"/>
		<polygon fill="#00566D" points="63.138,-15.913 58.642,11.534 49.407,-15.913 		"/>
		<polygon fill="#005168" points="28.356,-15.913 58.642,11.534 49.407,-15.913 		"/>
		<polygon fill="#461A79" points="740.762,629.556 804.638,687.426 804.638,641.629 		"/>
		<polygon fill="#C54163" points="709.766,135.224 687.62,270.576 662.498,195.953 		"/>
		<polygon fill="#C2366E" points="590.169,182.286 687.62,270.576 662.498,195.953 		"/>
		<polygon fill="#5F4581" points="621.166,676.611 599.009,811.955 573.888,737.339 		"/>
		<polygon fill="#665181" points="501.567,723.665 599.019,811.955 573.888,737.339 		"/>
		<polygon fill="#D8627C" points="470.579,229.338 448.426,364.688 423.303,290.069 		"/>
		<polygon fill="#DB7177" points="350.981,276.4 448.426,364.688 423.303,290.069 		"/>
		<polygon fill="#D8906E" points="381.976,770.729 368.275,854.408 342.431,854.408 334.7,831.457 		"/>
		<polygon fill="#CA4D65" points="262.379,817.779 302.804,854.408 342.431,854.408 334.7,831.457 		"/>
		<polygon fill="#D78173" points="231.383,323.455 209.236,458.806 184.115,384.185 		"/>
		<polygon fill="#DC766F" points="111.784,370.516 209.236,458.806 184.115,384.185 		"/>
		<polygon fill="#00566D" points="63.138,-15.913 58.642,11.534 49.407,-15.913 		"/>
		<polygon fill="#005168" points="28.356,-15.913 58.642,11.534 49.407,-15.913 		"/>
		<polygon fill="#461A79" points="740.762,629.556 804.638,687.426 804.638,641.629 		"/>
		<polygon fill="#C54163" points="709.766,135.224 687.62,270.576 662.498,195.953 		"/>
		<polygon fill="#C2366E" points="590.169,182.286 687.62,270.576 662.498,195.953 		"/>
		<polygon fill="#DC4C4D" points="67.484,641.204 164.935,729.492 92.516,715.735 		"/>
		<polygon fill="#AF0C48" points="45.337,776.554 164.935,729.492 92.516,715.735 		"/>
		<polygon fill="#836988" points="-0.433,268.833 14.341,282.228 -0.433,279.415 		"/>
		<polygon fill="#876787" points="-0.433,288.039 14.341,282.228 -0.433,279.415 		"/>
		<polygon fill="#912C78" points="545.868,452.979 643.319,541.261 570.898,527.503 		"/>
		<polygon fill="#872E79" points="523.723,588.324 643.319,541.261 570.898,527.503 		"/>
		<polygon fill="#9B768C" points="395.282,5.706 492.727,93.996 420.313,80.24 		"/>
		<polygon fill="#A6778D" points="373.136,141.052 492.727,93.996 420.313,80.24 		"/>
		<polygon fill="#E9805B" points="306.679,547.088 404.123,635.379 331.704,621.621 		"/>
		<polygon fill="#E48460" points="284.524,682.438 404.123,635.379 331.711,621.621 		"/>
		<polygon fill="#00A9A1" points="156.094,99.824 253.537,188.111 181.12,174.357 		"/>
		<polygon fill="#1DA5A7" points="133.939,235.166 253.537,188.111 181.12,174.348 		"/>
		<polygon fill="#781376" points="785.064,358.864 804.638,376.6 804.638,417.159 		"/>
		<polygon fill="#63127A" points="762.908,494.209 804.638,477.791 804.638,440.416 		"/>
		<polygon fill="#D07657" points="714.486,-15.913 731.921,-0.118 659.501,-13.875 658.818,-15.913 		"/>
		<polygon fill="#DAA850" points="612.324,46.936 731.921,-0.118 659.501,-13.875 		"/>
		<polygon fill="#7A4E7E" points="501.567,723.665 599.019,811.955 526.598,798.197 		"/>
		<polygon fill="#516B86" points="491.122,854.408 599.019,811.955 526.598,798.197 482.991,854.408 		"/>
		<polygon fill="#D7737C" points="350.981,276.4 448.426,364.688 376.013,350.926 		"/>
		<polygon fill="#E27D6D" points="328.827,411.746 448.426,364.688 376.013,350.926 		"/>
		<polygon fill="#C83B60" points="262.379,817.779 302.804,854.408 274.678,854.408 		"/>
		<polygon fill="#D27176" points="111.784,370.516 209.236,458.798 136.816,445.039 		"/>
		<polygon fill="#E56966" points="89.638,505.859 209.236,458.798 136.816,445.039 		"/>
		<polygon fill="#004A60" points="28.356,-15.913 58.642,11.534 -0.433,0.309 -0.433,-15.913 		"/>
		<polygon fill="#004E65" points="-0.433,34.775 58.642,11.534 -0.433,0.309 		"/>
		<polygon fill="#471B7A" points="740.762,629.549 804.638,687.426 804.638,711.465 765.784,704.084 		"/>
		<polygon fill="#2A1E75" points="718.608,764.901 804.638,731.047 804.638,711.465 765.784,704.084 		"/>
		<polygon fill="#C43971" points="590.169,182.286 687.62,270.576 615.198,256.819 		"/>
		<polygon fill="#C23C6D" points="568.021,317.628 687.62,270.576 615.198,256.811 		"/>
		<polygon fill="#7A4E7E" points="501.567,723.665 599.019,811.955 526.598,798.197 		"/>
		<polygon fill="#516B86" points="491.122,854.408 599.019,811.955 526.598,798.197 482.991,854.408 		"/>
		<polygon fill="#D7737C" points="350.981,276.4 448.426,364.688 376.013,350.926 		"/>
		<polygon fill="#E27D6D" points="328.833,411.774 448.426,364.688 376.013,350.926 		"/>
		<polygon fill="#C83B60" points="262.379,817.779 302.804,854.408 274.678,854.408 		"/>
		<polygon fill="#D27176" points="111.784,370.516 209.236,458.798 136.816,445.039 		"/>
		<polygon fill="#E56966" points="89.638,505.859 209.236,458.798 136.816,445.039 		"/>
		<polygon fill="#004A60" points="28.356,-15.913 58.642,11.534 -0.433,0.309 -0.433,-15.913 		"/>
		<polygon fill="#004E65" points="-0.433,34.775 58.642,11.534 -0.433,0.309 		"/>
		<polygon fill="#471B7A" points="740.762,629.549 804.638,687.426 804.638,711.465 765.784,704.084 		"/>
		<polygon fill="#2A1E75" points="718.608,764.901 804.638,731.047 804.638,711.465 765.784,704.084 		"/>
		<polygon fill="#C43971" points="590.169,182.286 687.62,270.576 615.198,256.819 		"/>
		<polygon fill="#C23C6D" points="568.021,317.628 687.62,270.576 615.198,256.811 		"/>
		<polygon fill="#B00D49" points="45.337,776.554 164.935,729.492 117.637,790.35 		"/>
		<polygon fill="#B10E4B" points="144.488,854.408 164.935,729.492 117.637,790.35 139.261,854.408 		"/>
		<polygon fill="#8E6384" points="-0.433,288.039 14.341,282.228 -0.433,301.236 		"/>
		<polygon fill="#A3537F" points="-0.433,372.506 14.341,282.219 -0.433,301.236 		"/>
		<polygon fill="#812C7A" points="523.723,588.324 643.319,541.261 596.02,602.128 		"/>
		<polygon fill="#6D277D" points="621.166,676.611 643.319,541.261 596.02,602.128 		"/>
		<polygon fill="#AB738C" points="373.128,141.052 492.727,93.996 445.436,154.855 		"/>
		<polygon fill="#C46183" points="470.579,229.338 492.727,93.996 445.436,154.855 		"/>
		<polygon fill="#E28662" points="284.524,682.438 404.123,635.379 356.832,696.234 		"/>
		<polygon fill="#EAB77B" points="381.976,770.729 404.123,635.379 356.825,696.234 		"/>
		<polygon fill="#3BA0A4" points="133.939,235.166 253.537,188.111 206.24,248.97 		"/>
		<polygon fill="#858F96" points="231.383,323.455 253.537,188.111 206.24,248.97 		"/>
		<polygon fill="#5D137B" points="762.908,494.209 804.638,477.791 804.638,502.169 		"/>
		<polygon fill="#D9A151" points="612.324,46.936 731.921,-0.118 684.622,60.741 		"/>
		<polygon fill="#E1804A" points="709.766,135.224 731.921,-0.118 684.622,60.741 		"/>
		<polygon fill="#3C708A" points="491.122,854.408 599.019,811.955 566.023,854.408 		"/>
		<polygon fill="#007E90" points="592.061,854.408 599.019,811.955 566.023,854.408 		"/>
		<polygon fill="#E17B6D" points="328.833,411.774 448.432,364.711 401.141,425.576 		"/>
		<polygon fill="#DD7368" points="426.279,500.033 448.426,364.683 401.135,425.548 		"/>
		<polygon fill="#00C1A5" points="275.685,52.761 286.926,-15.913 252.5,-15.913 		"/>
		<polygon fill="#E86D65" points="89.638,505.859 209.236,458.798 161.938,519.664 		"/>
		<polygon fill="#F1795B" points="187.081,594.148 209.236,458.798 161.938,519.664 		"/>
		<polygon fill="#00576E" points="-0.433,34.775 58.642,11.534 11.352,72.392 -0.433,70.144 		"/>
		<polygon fill="#006E82" points="36.497,146.877 58.643,11.532 11.352,72.392 		"/>
		<polygon fill="#221E74" points="718.608,764.901 804.638,731.047 804.638,761.031 790.907,778.706 		"/>
		<polygon fill="#0F1B72" points="804.638,761.031 790.907,778.696 804.638,819.366 		"/>
		<polygon fill="#C13B6C" points="568.021,317.628 687.62,270.576 640.322,331.434 		"/>
		<polygon fill="#AC336B" points="665.464,405.918 687.62,270.565 640.322,331.434 		"/>
		<polygon fill="#BB194F" points="144.488,854.408 164.935,729.492 190.057,804.114 150.898,854.408 		"/>
		<polygon fill="#CE3454" points="262.379,817.779 164.928,729.492 190.057,804.114 		"/>
		<polygon fill="#A5567F" points="-0.433,372.5 14.341,282.219 39.463,356.842 -0.433,408.094 		"/>
		<polygon fill="#996987" points="111.784,370.51 14.341,282.219 39.463,356.842 		"/>
		<polygon fill="#63227E" points="621.166,676.611 643.313,541.261 668.441,615.882 		"/>
		<polygon fill="#6E2C93" points="740.762,629.549 643.313,541.261 668.441,615.882 		"/>
		<polygon fill="#C85D7F" points="470.579,229.338 492.727,93.996 517.849,168.61 		"/>
		<polygon fill="#CA6A74" points="590.169,182.286 492.727,93.996 517.849,168.61 		"/>
		<polygon fill="#E3B37C" points="381.967,770.729 404.123,635.379 429.246,709.996 		"/>
		<polygon fill="#BF7D72" points="501.567,723.665 404.123,635.379 429.246,709.996 		"/>
		<polygon fill="#958A92" points="231.383,323.455 253.537,188.111 278.658,262.728 		"/>
		<polygon fill="#938A94" points="350.981,276.4 253.537,188.111 278.658,262.728 		"/>
		<polygon fill="#D25E54" points="709.766,135.224 731.921,-0.118 757.041,74.495 		"/>
		<polygon fill="#AB2252" points="804.638,65.766 731.921,-0.118 757.041,74.495 804.638,83.497 		"/>
		<polygon fill="#BD1556" points="67.484,641.204 -0.433,579.669 -0.433,628.363 		"/>
		<polygon fill="#008292" points="592.061,854.408 599.009,811.955 613.307,854.408 		"/>
		<polygon fill="#008292" points="645.868,854.408 599.009,811.955 613.307,854.408 		"/>
		<polygon fill="#D9696A" points="426.279,500.033 448.426,364.688 473.547,439.306 		"/>
		<polygon fill="#D25672" points="545.868,452.972 448.426,364.683 473.547,439.306 		"/>
		<polygon fill="#00BEA4" points="275.685,52.761 286.926,-15.913 320.284,-15.913 322.96,-7.968 		"/>
		<polygon fill="#47969B" points="395.282,5.706 371.419,-15.913 320.284,-15.913 322.96,-7.968 		"/>
		<polygon fill="#F4815B" points="187.081,594.148 209.236,458.798 234.358,533.419 		"/>
		<polygon fill="#F48E5A" points="306.679,547.088 209.236,458.798 234.358,533.419 		"/>
		<polygon fill="#007587" points="36.497,146.877 58.642,11.534 83.764,86.148 		"/>
		<polygon fill="#007B8B" points="156.087,99.824 58.642,11.534 83.764,86.148 		"/>
		<polygon fill="#9E2770" points="665.464,405.918 687.62,270.576 712.742,345.19 		"/>
		<polygon fill="#971A73" points="785.064,358.864 687.62,270.576 712.742,345.19 		"/>
		<polygon fill="#CB3356" points="262.379,817.779 164.935,729.492 237.347,743.247 		"/>
		<polygon fill="#EA704B" points="284.524,682.438 164.928,729.492 237.347,743.257 		"/>
		<polygon fill="#A56785" points="111.784,370.516 14.341,282.228 86.761,295.984 		"/>
		<polygon fill="#628999" points="133.939,235.166 14.341,282.228 86.761,295.984 		"/>
		<polygon fill="#5D2286" points="740.762,629.549 643.313,541.261 715.732,555.027 		"/>
		<polygon fill="#9647BA" points="762.908,494.209 643.313,541.269 715.732,555.027 		"/>
		<polygon fill="#CD6472" points="590.169,182.286 492.727,93.996 565.146,107.754 		"/>
		<polygon fill="#CB9068" points="612.324,46.936 492.727,93.996 565.146,107.754 		"/>
		<polygon fill="#55020B" points="-0.433,841.568 3.875,854.408 -0.433,854.408 		"/>
		<polygon fill="#630216" points="45.337,776.554 -0.433,794.556 -0.433,835.541 		"/>
		<polygon fill="#B77B77" points="501.567,723.665 404.123,635.379 476.542,649.133 		"/>
		<polygon fill="#BA606B" points="523.723,588.324 404.123,635.379 476.542,649.141 		"/>
		<polygon fill="#A6848F" points="350.981,276.4 253.537,188.111 325.949,201.868 		"/>
		<polygon fill="#679AAA" points="373.128,141.052 253.537,188.111 325.949,201.868 		"/>
		<polygon fill="#A21750" points="804.638,65.766 731.921,-0.118 804.333,13.636 804.638,14.54 		"/>
		<polygon fill="#960B4D" points="772.056,-15.913 731.921,-0.118 804.333,13.636 804.638,13.242 804.638,-15.913 		"/>
		<polygon fill="#CB3356" points="262.379,817.779 164.935,729.492 237.347,743.247 		"/>
		<polygon fill="#EA704B" points="284.524,682.438 164.928,729.492 237.347,743.257 		"/>
		<polygon fill="#A56785" points="111.784,370.516 14.341,282.228 86.761,295.984 		"/>
		<polygon fill="#628999" points="133.939,235.166 14.341,282.228 86.761,295.984 		"/>
		<polygon fill="#5D2286" points="740.762,629.549 643.313,541.261 715.732,555.027 		"/>
		<polygon fill="#9647BA" points="762.908,494.209 643.313,541.269 715.732,555.027 		"/>
		<polygon fill="#CD6472" points="590.169,182.286 492.727,93.996 565.146,107.754 		"/>
		<polygon fill="#CB9068" points="612.324,46.936 492.727,93.996 565.146,107.754 		"/>
		<polygon fill="#55020B" points="-0.433,841.568 3.875,854.408 -0.433,854.408 		"/>
		<polygon fill="#630216" points="45.337,776.554 -0.433,794.556 -0.433,835.541 		"/>
		<polygon fill="#B77B77" points="501.567,723.665 404.123,635.379 476.542,649.133 		"/>
		<polygon fill="#BA606B" points="523.723,588.324 404.123,635.379 476.542,649.141 		"/>
		<polygon fill="#A6848F" points="350.981,276.4 253.537,188.111 325.949,201.868 		"/>
		<polygon fill="#679AAA" points="373.128,141.052 253.537,188.111 325.949,201.868 		"/>
		<polygon fill="#A21750" points="804.638,65.766 731.921,-0.118 804.333,13.636 804.638,14.54 		"/>
		<polygon fill="#960B4D" points="772.056,-15.913 731.921,-0.118 804.333,13.636 804.638,13.242 804.638,-15.913 		"/>
		<polygon fill="#BF1856" points="67.484,641.204 -0.433,579.669 -0.433,558.521 42.46,566.678 		"/>
		<polygon fill="#C82A63" points="89.638,505.859 -0.433,541.302 -0.433,558.529 42.46,566.678 		"/>
		<polygon fill="#007D90" points="645.868,854.408 599.009,811.955 671.43,825.71 681.067,854.408 		"/>
		<polygon fill="#324E84" points="718.608,764.901 599.009,811.955 671.43,825.718 		"/>
		<polygon fill="#CB5071" points="545.868,452.979 448.426,364.688 520.843,378.446 		"/>
		<polygon fill="#D14C77" points="568.021,317.628 448.426,364.688 520.843,378.446 		"/>
		<polygon fill="#718996" points="395.282,5.706 371.419,-15.913 388.021,-15.913 		"/>
		<polygon fill="#F68A59" points="306.679,547.088 209.236,458.798 281.649,472.563 		"/>
		<polygon fill="#EA8C61" points="328.855,411.832 209.264,458.892 281.677,472.648 		"/>
		<polygon fill="#008894" points="156.087,99.824 58.642,11.534 131.062,25.291 		"/>
		<polygon fill="#007585" points="128.393,-15.913 58.642,11.534 131.062,25.291 163.026,-15.913 		"/>
		<polygon fill="#8D1974" points="785.064,358.864 687.62,270.576 760.034,284.331 		"/>
		<polygon fill="#A92968" points="804.638,224.529 687.62,270.576 760.034,284.331 804.638,226.833 		"/>
		<polygon fill="#E8694C" points="284.524,682.438 164.935,729.492 212.226,668.635 		"/>
		<polygon fill="#E8624F" points="187.081,594.148 164.935,729.492 212.226,668.635 		"/>
		<polygon fill="#668697" points="133.939,235.166 14.341,282.228 61.64,221.36 		"/>
		<polygon fill="#218E97" points="36.497,146.877 14.341,282.228 61.64,221.36 		"/>
		<polygon fill="#9747B8" points="762.908,494.209 643.319,541.269 690.608,480.404 		"/>
		<polygon fill="#7E298F" points="665.464,405.918 643.319,541.269 690.608,480.404 		"/>
		<polygon fill="#C98B6B" points="612.324,46.936 492.727,93.996 540.025,33.138 		"/>
		<polygon fill="#C57E79" points="510.714,-15.913 492.727,93.996 540.025,33.138 523.467,-15.913 		"/>
		<polygon fill="#E8694C" points="284.524,682.438 164.935,729.492 212.226,668.635 		"/>
		<polygon fill="#E8624F" points="187.081,594.148 164.935,729.492 212.226,668.635 		"/>
		<polygon fill="#668697" points="133.939,235.166 14.341,282.228 61.64,221.36 		"/>
		<polygon fill="#218E97" points="36.497,146.877 14.341,282.228 61.64,221.36 		"/>
		<polygon fill="#9747B8" points="762.908,494.209 643.319,541.269 690.608,480.404 		"/>
		<polygon fill="#7E298F" points="665.464,405.918 643.319,541.269 690.608,480.404 		"/>
		<polygon fill="#C98B6B" points="612.324,46.936 492.727,93.996 540.025,33.138 		"/>
		<polygon fill="#C57E79" points="510.714,-15.913 492.727,93.996 540.025,33.138 523.467,-15.913 		"/>
		<polygon fill="#770324" points="45.337,776.554 -0.433,794.556 -0.433,767.817 		"/>
		<polygon fill="#BE646A" points="523.723,588.324 404.123,635.379 451.423,574.519 		"/>
		<polygon fill="#D27163" points="426.279,500.033 404.123,635.384 451.423,574.519 		"/>
		<polygon fill="#5F9BA6" points="373.136,141.052 253.537,188.111 300.828,127.256 		"/>
		<polygon fill="#00B2A3" points="275.685,52.761 253.537,188.111 300.828,127.256 		"/>
		<polygon fill="#AE2357" points="772.056,-15.913 731.921,-0.118 744.189,-15.913 		"/>
		<polygon fill="#B83559" points="734.501,-15.913 731.921,-0.118 744.189,-15.913 		"/>
		<polygon fill="#C72B65" points="89.638,505.859 -0.433,541.302 -0.433,514.917 17.338,492.057 		"/>
		<polygon fill="#C12C6B" points="-0.433,514.924 17.338,492.057 -0.433,439.417 		"/>
		<polygon fill="#365084" points="718.608,764.901 599.009,811.955 646.308,751.096 		"/>
		<polygon fill="#584180" points="621.166,676.611 599.009,811.955 646.308,751.096 		"/>
		<polygon fill="#D34F77" points="568.021,317.628 448.426,364.688 495.724,303.824 		"/>
		<polygon fill="#DB5E76" points="470.579,229.338 448.426,364.688 495.724,303.824 		"/>
		<polygon fill="#B07277" points="399.972,854.408 407.113,845.212 455.284,854.408 		"/>
		<polygon fill="#DAA97C" points="381.976,770.729 368.275,854.408 399.972,854.408 407.121,845.212 		"/>
		<polygon fill="#E98C62" points="328.827,411.746 209.236,458.806 256.527,397.938 		"/>
		<polygon fill="#D98573" points="231.383,323.455 209.236,458.806 256.527,397.938 		"/>
		<polygon fill="#00647A" points="128.393,-15.913 58.642,11.534 79.969,-15.913 		"/>
		<polygon fill="#005B71" points="63.138,-15.913 58.642,11.534 79.969,-15.913 		"/>
		<polygon fill="#B33363" points="804.638,224.529 687.62,270.576 734.911,209.718 804.638,223.022 		"/>
		<polygon fill="#D04F57" points="709.766,135.224 687.62,270.576 734.911,209.718 		"/>
		<polygon fill="#C72B65" points="89.638,505.859 -0.433,541.302 -0.433,514.917 17.338,492.057 		"/>
		<polygon fill="#C12C6B" points="-0.433,514.924 17.338,492.057 -0.433,439.417 		"/>
		<polygon fill="#365084" points="718.608,764.901 599.009,811.955 646.308,751.096 		"/>
		<polygon fill="#584180" points="621.166,676.611 599.009,811.955 646.308,751.096 		"/>
		<polygon fill="#D34F77" points="568.021,317.628 448.426,364.688 495.724,303.824 		"/>
		<polygon fill="#DB5E76" points="470.579,229.338 448.426,364.688 495.724,303.824 		"/>
		<polygon fill="#B07277" points="399.972,854.408 407.113,845.212 455.284,854.408 		"/>
		<polygon fill="#DAA97C" points="381.976,770.729 368.275,854.408 399.972,854.408 407.121,845.212 		"/>
		<polygon fill="#E98C62" points="328.855,411.832 209.264,458.892 256.555,398.023 		"/>
		<polygon fill="#D98573" points="231.383,323.455 209.236,458.806 256.527,397.938 		"/>
		<polygon fill="#00647A" points="128.393,-15.913 58.642,11.534 79.969,-15.913 		"/>
		<polygon fill="#005B71" points="63.138,-15.913 58.642,11.534 79.969,-15.913 		"/>
		<polygon fill="#B33363" points="804.638,224.529 687.62,270.576 734.911,209.718 804.638,223.022 		"/>
		<polygon fill="#D04F57" points="709.766,135.224 687.62,270.576 734.911,209.718 		"/>
		<polygon fill="#AA0B47" points="-0.433,640.752 20.171,701.979 67.514,641.178 -0.433,628.349 		"/>
		<polygon fill="#9D093F" points="-0.433,640.623 20.239,701.965 -0.433,698.063 		"/>
		<polygon fill="#BF5070" points="473.495,439.28 498.556,513.748 545.898,452.946 		"/>
		<polygon fill="#D0636A" points="473.532,439.28 498.625,513.732 426.204,500.058 		"/>
		<polygon fill="#239E9D" points="322.909,-7.992 347.961,66.476 395.305,5.677 		"/>
		<polygon fill="#00B4A3" points="322.944,-7.992 348.03,66.469 275.61,52.786 		"/>
		<polygon fill="#FA8752" points="234.305,533.396 259.358,607.863 306.702,547.064 		"/>
		<polygon fill="#F68056" points="234.342,533.39 259.427,607.846 187.007,594.174 		"/>
		<polygon fill="#00979C" points="83.719,86.123 108.773,160.593 156.094,99.824 		"/>
		<polygon fill="#008894" points="83.75,86.123 108.84,160.585 36.497,146.877 		"/>
		<polygon fill="#7A1778" points="712.688,345.164 737.74,419.636 785.086,358.832 		"/>
		<polygon fill="#861B76" points="712.726,345.164 737.813,419.617 665.391,405.942 		"/>
		<polygon fill="#BE2157" points="190.004,804.081 206.933,854.408 233.857,854.408 262.4,817.756 		"/>
		<polygon fill="#B71450" points="190.042,804.081 206.992,854.408 150.846,854.408 		"/>
		<polygon fill="#C25479" points="39.411,356.818 64.472,431.287 111.815,370.483 		"/>
		<polygon fill="#B74C78" points="39.449,356.818 64.539,431.271 -0.433,418.998 -0.433,408.029 		"/>
		<polygon fill="#50237E" points="668.39,615.857 693.44,690.327 740.784,629.527 		"/>
		<polygon fill="#5C247F" points="668.425,615.848 693.51,690.31 621.09,676.634 		"/>
		<polygon fill="#CF4A77" points="517.794,168.585 542.855,243.056 590.2,182.253 		"/>
		<polygon fill="#CE547C" points="517.832,168.585 542.927,243.048 470.504,229.363 		"/>
		<polygon fill="#AB847B" points="429.193,709.964 454.246,784.443 501.59,723.641 		"/>
		<polygon fill="#E6C684" points="429.229,709.964 454.32,784.429 381.895,770.75 		"/>
		<polygon fill="#C68182" points="278.606,262.701 303.662,337.168 351.003,276.369 		"/>
		<polygon fill="#B38589" points="278.644,262.701 303.727,337.154 231.308,323.479 		"/>
		<polygon fill="#A9155D" points="756.99,74.472 782.043,148.939 804.638,119.921 804.638,83.465 		"/>
		<polygon fill="#CC4656" points="757.026,74.472 782.112,148.931 709.69,135.247 		"/>
		<polygon fill="#8F0436" points="45.322,776.643 70.376,851.117 117.72,790.309 		"/>
		<polygon fill="#790325" points="45.359,776.643 70.451,851.104 -0.433,837.707 -0.433,835.444 		"/>
		<polygon fill="#8A3979" points="523.705,588.411 548.761,662.889 596.104,602.086 		"/>
		<polygon fill="#A34A72" points="523.745,588.411 548.836,662.873 476.414,649.188 		"/>
		<polygon fill="#B4758C" points="373.12,141.146 398.174,215.616 445.517,154.814 		"/>
		<polygon fill="#8890AA" points="373.157,141.14 398.242,215.6 325.823,201.925 		"/>
		<polygon fill="#870347" points="804.638,13.775 804.207,13.693 804.638,13.139 		"/>
		<polygon fill="#E38064" points="284.519,682.526 309.572,757.003 356.916,696.192 		"/>
		<polygon fill="#EB7A52" points="284.555,682.526 309.638,756.988 237.22,743.303 		"/>
		<polygon fill="#00B7C0" points="133.924,235.263 158.986,309.731 206.33,248.93 		"/>
		<polygon fill="#00B2BD" points="133.961,235.255 159.052,309.716 86.635,296.039 		"/>
		<polygon fill="#56147E" points="762.9,494.294 787.955,568.773 804.638,547.345 804.638,502.174 		"/>
		<polygon fill="#682490" points="762.938,494.294 788.021,568.757 715.604,555.082 		"/>
		<polygon fill="#DAA24F" points="612.308,47.031 637.37,121.499 684.713,60.699 		"/>
		<polygon fill="#D3AF57" points="612.347,47.031 637.438,121.483 565.016,107.811 		"/>
		<polygon fill="#E86753" points="89.623,505.948 114.685,580.424 162.028,519.62 		"/>
		<polygon fill="#D53F63" points="89.661,505.948 114.752,580.408 42.333,566.727 		"/>
		<polygon fill="#006077" points="-0.433,87.592 11.435,72.352 -0.433,70.112 		"/>
		<polygon fill="#112C77" points="718.601,764.989 743.653,839.468 790.998,778.655 		"/>
		<polygon fill="#26397D" points="718.64,764.989 743.721,839.448 671.301,825.766 		"/>
		<polygon fill="#B22E77" points="568.006,317.725 593.07,392.193 640.405,331.391 		"/>
		<polygon fill="#C43B78" points="568.045,317.717 593.136,392.179 520.715,378.503 		"/>
		<polygon fill="#E78461" points="328.833,411.774 353.873,486.309 401.216,425.509 		"/>
		<polygon fill="#F28D4E" points="328.855,411.832 353.941,486.294 281.521,472.619 		"/>
		<polygon fill="#00B0A0" points="184.801,-15.913 203.288,39.039 246.068,-15.913 		"/>
		<polygon fill="#009899" points="184.847,-15.913 203.354,39.021 130.935,25.347 163.064,-15.913 		"/>
		<polygon fill="#941371" points="804.638,292.832 759.904,284.388 804.638,226.945 		"/>
		<polygon fill="#8D0433" points="-0.433,728.572 20.261,701.931 -0.433,697.95 		"/>
		<polygon fill="#C96467" points="451.423,574.519 498.645,513.701 426.263,499.781 		"/>
		<polygon fill="#00B8B4" points="300.925,127.125 348.052,66.43 275.677,52.512 		"/>
		<polygon fill="#F98E3E" points="212.322,668.512 259.449,607.815 187.067,593.891 		"/>
		<polygon fill="#00AAA0" points="61.729,221.239 108.863,160.543 36.497,146.877 		"/>
		<polygon fill="#711F83" points="690.708,480.28 737.831,419.587 665.45,405.667 		"/>
		<polygon fill="#EFCC80" points="540.113,33.011 578.106,-15.913 523.554,-15.913 		"/>
		<polygon fill="#C4356D" points="17.428,491.936 64.563,431.236 -0.433,418.74 -0.433,439.15 		"/>
		<polygon fill="#56347E" points="646.396,750.976 693.531,690.279 621.149,676.355 		"/>
		<polygon fill="#D75376" points="495.813,303.704 542.945,243.006 470.564,229.089 		"/>
		<polygon fill="#BF8E79" points="407.216,845.398 454.299,784.339 381.967,770.784 		"/>
		<polygon fill="#D58676" points="256.527,397.938 303.653,337.24 231.279,323.323 		"/>
		<polygon fill="#B72A67" points="735.007,209.587 782.132,148.892 709.76,134.975 		"/>
		<polygon fill="#5F0214" points="67.879,854.408 70.473,851.071 -0.433,837.427 -0.433,841.513 3.928,854.408 		"/>
		<polygon fill="#995678" points="501.723,723.528 548.854,662.838 476.476,648.915 		"/>
		<polygon fill="#BA7B8A" points="351.137,276.265 398.264,215.568 325.89,201.643 		"/>
		<polygon fill="#870347" points="804.638,13.485 804.271,13.42 804.638,14.506 		"/>
		<polygon fill="#D64E5C" points="262.527,817.646 309.662,756.953 237.281,743.03 		"/>
		<polygon fill="#AA7488" points="111.941,370.379 159.076,309.685 86.693,295.758 		"/>
		<polygon fill="#511A7F" points="740.912,629.411 788.046,568.724 715.662,554.801 		"/>
		<polygon fill="#CF666B" points="590.324,182.148 637.459,121.451 565.079,107.535 		"/>
		<polygon fill="#CB2858" points="67.64,641.066 114.776,580.376 42.393,566.452 		"/>
		<polygon fill="#005383" points="732.101,854.408 743.743,839.419 671.363,825.494 681.148,854.408 		"/>
		<polygon fill="#B73C75" points="546.021,452.842 593.157,392.147 520.776,378.22 		"/>
		<polygon fill="#7F8293" points="395.438,5.57 412.122,-15.913 388.172,-15.913 		"/>
		<polygon fill="#F0885A" points="306.679,547.096 353.962,486.261 281.58,472.335 		"/>
		<polygon fill="#00A09D" points="156.094,99.824 203.377,38.989 130.995,25.073 		"/>
		<polygon fill="#881373" points="785.219,358.729 804.638,333.713 804.638,292.705 759.967,284.106 		"/>
		<polygon fill="#8F0434" points="-0.433,728.485 20.217,701.876 45.346,776.585 -0.433,767.72 		"/>
		<polygon fill="#BC566C" points="451.423,574.519 498.6,513.644 523.729,588.355 		"/>
		<polygon fill="#00B0C5" points="300.902,127.093 348.006,66.372 373.143,141.09 		"/>
		<polygon fill="#FDA037" points="212.3,668.474 259.405,607.76 284.532,682.468 		"/>
		<polygon fill="#00A4A0" points="61.714,221.207 108.817,160.487 133.948,235.208 		"/>
		<polygon fill="#6B1A80" points="690.688,480.25 737.786,419.528 762.916,494.247 		"/>
		<polygon fill="#E6C770" points="540.097,32.979 578.027,-15.913 591.182,-15.913 612.333,46.975 		"/>
		<polygon fill="#CB416F" points="17.413,491.894 64.518,431.18 89.646,505.894 		"/>
		<polygon fill="#4A2E7D" points="646.381,750.938 693.487,690.224 718.614,764.933 		"/>
		<polygon fill="#D14579" points="495.796,303.673 542.902,242.95 568.03,317.67 		"/>
		<polygon fill="#AB827B" points="407.186,845.053 454.299,784.339 477.86,854.408 455.47,854.408 		"/>
		<polygon fill="#DA8673" points="256.527,397.938 303.706,337.065 328.855,411.832 		"/>
		<polygon fill="#A81869" points="734.985,209.555 782.09,148.835 804.638,215.874 804.638,223.055 		"/>
		<polygon fill="#80032C" points="67.79,854.408 70.428,851.007 71.568,854.408 		"/>
		<polygon fill="#89447A" points="501.7,723.497 548.814,662.783 573.94,737.495 		"/>
		<polygon fill="#C47287" points="351.116,276.224 398.218,215.51 423.348,290.22 		"/>
		<polygon fill="#EA7C57" points="262.513,817.611 309.616,756.896 334.746,831.61 		"/>
		<polygon fill="#AA7E8A" points="111.928,370.338 159.031,309.627 184.16,384.338 		"/>
		<polygon fill="#50177D" points="740.896,629.378 788.002,568.669 804.638,618.129 804.638,641.733 		"/>
		<polygon fill="#D16964" points="590.313,182.115 637.412,121.395 662.542,196.106 		"/>
		<polygon fill="#D73D57" points="67.618,641.033 114.729,580.318 139.858,655.03 		"/>
		<polygon fill="#06367A" points="732.026,854.408 743.7,839.362 748.76,854.408 		"/>
		<polygon fill="#A62E77" points="546.003,452.802 593.115,392.089 618.242,466.8 		"/>
		<polygon fill="#96748C" points="395.416,5.538 412.053,-15.913 455.73,-15.913 467.656,19.538 		"/>
		<polygon fill="#EC845C" points="306.679,547.096 353.917,486.205 379.045,560.916 		"/>
		<polygon fill="#00B19F" points="156.094,99.824 203.332,38.933 228.461,113.644 		"/>
		<polygon fill="#831274" points="785.197,358.687 804.638,333.633 804.638,362.459 		"/>
		<polygon fill="#9E053E" points="92.561,715.727 20.171,701.866 45.346,776.619 		"/>
		<polygon fill="#A44272" points="570.942,527.497 498.556,513.644 523.729,588.396 		"/>
		<polygon fill="#6E9AB7" points="420.349,80.233 347.971,66.372 373.136,141.123 		"/>
		<polygon fill="#F38A4D" points="331.749,621.611 259.366,607.751 284.532,682.503 		"/>
		<polygon fill="#00ABAE" points="181.163,174.34 108.781,160.487 133.948,235.24 		"/>
		<polygon fill="#63147D" points="804.638,432.335 737.75,419.528 762.916,494.28 804.638,440.475 		"/>
		<polygon fill="#D7BE51" points="659.547,-13.881 648.962,-15.913 591.144,-15.913 612.333,47.007 		"/>
		<polygon fill="#D9516B" points="136.862,445.032 64.48,431.174 89.646,505.932 		"/>
		<polygon fill="#372778" points="765.831,704.073 693.448,690.214 718.614,764.966 		"/>
		<polygon fill="#C73978" points="615.244,256.802 542.865,242.95 568.03,317.702 		"/>
		<polygon fill="#89677E" points="526.644,798.189 454.255,784.33 477.847,854.408 483.049,854.408 		"/>
		<polygon fill="#E28669" points="376.049,350.919 303.668,337.065 328.833,411.817 		"/>
		<polygon fill="#9C1169" points="804.638,153.153 782.052,148.835 804.638,215.922 		"/>
		<polygon fill="#85032F" points="88.155,854.408 70.384,851.007 71.53,854.408 		"/>
		<polygon fill="#743B7D" points="621.158,676.634 548.767,662.776 573.94,737.525 		"/>
		<polygon fill="#D16681" points="470.564,229.363 398.181,215.504 423.348,290.262 		"/>
		<polygon fill="#E48D61" points="381.961,770.75 309.579,756.89 334.746,831.641 		"/>
		<polygon fill="#C17F80" points="231.375,323.479 158.993,309.62 184.16,384.37 		"/>
		<polygon fill="#51177B" points="804.638,571.852 787.963,568.657 804.638,618.193 		"/>
		<polygon fill="#D2595C" points="709.76,135.247 637.377,121.395 662.542,196.147 		"/>
		<polygon fill="#E04E55" points="187.074,594.174 114.685,580.313 139.858,655.063 		"/>
		<polygon fill="#008593" points="36.497,146.877 -0.433,139.834 -0.433,194.51 		"/>
		<polygon fill="#052A76" points="804.638,851.028 743.663,839.354 748.729,854.408 804.638,854.408 		"/>
		<polygon fill="#8A2279" points="665.458,405.942 593.07,392.081 618.242,466.831 		"/>
		<polygon fill="#AC6982" points="455.709,-15.913 467.648,19.568 495.162,-15.913 		"/>
		<polygon fill="#E37D5E" points="426.263,500.058 353.881,486.196 379.045,560.946 		"/>
		<polygon fill="#00BCA2" points="275.677,52.786 203.296,38.933 228.461,113.685 		"/>
		<polygon fill="#BB154E" points="92.568,715.768 20.148,701.94 67.319,640.977 		"/>
		<polygon fill="#B04073" points="570.951,527.539 498.532,513.709 545.703,452.755 		"/>
		<polygon fill="#718B96" points="420.358,80.266 347.947,66.447 395.118,5.481 		"/>
		<polygon fill="#F48457" points="331.756,621.652 259.344,607.822 306.679,547.096 		"/>
		<polygon fill="#009F9F" points="181.17,174.38 108.758,160.553 156.094,99.824 		"/>
		<polygon fill="#791677" points="804.638,432.376 737.729,419.594 784.899,358.638 804.638,417.117 		"/>
		<polygon fill="#D79F52" points="659.553,-13.851 648.737,-15.913 658.852,-15.913 		"/>
		<polygon fill="#C52E5C" points="233.693,854.408 262.206,817.555 274.648,854.408 		"/>
		<polygon fill="#C66079" points="136.868,445.072 64.45,431.244 111.622,370.292 		"/>
		<polygon fill="#4A1F7D" points="765.839,704.115 693.43,690.289 740.59,629.325 		"/>
		<polygon fill="#CC4375" points="615.253,256.843 542.833,243.016 590.006,182.06 		"/>
		<polygon fill="#966A7C" points="526.65,798.232 454.232,784.404 501.403,723.441 		"/>
		<polygon fill="#CE7E80" points="376.057,350.958 303.645,337.13 350.816,276.176 		"/>
		<polygon fill="#A00C5C" points="804.638,153.218 782.03,148.907 804.638,119.679 		"/>
		<polygon fill="#A00542" points="87.812,854.408 70.361,851.076 117.532,790.116 139.232,854.408 		"/>
		<polygon fill="#7C307B" points="621.166,676.676 548.744,662.848 595.915,601.885 		"/>
		<polygon fill="#C06987" points="470.572,229.404 398.16,215.575 445.33,154.622 		"/>
		<polygon fill="#E3A072" points="381.967,770.784 309.557,756.961 356.72,696 		"/>
		<polygon fill="#5CA1A8" points="231.383,323.518 158.963,309.69 206.136,248.728 		"/>
		<polygon fill="#54137D" points="804.638,571.922 787.941,568.734 804.638,547.152 		"/>
		<polygon fill="#E59344" points="709.766,135.289 637.349,121.461 684.519,60.504 		"/>
		<polygon fill="#E3A072" points="381.967,770.784 309.557,756.961 356.72,696 		"/>
		<polygon fill="#5CA1A8" points="231.383,323.518 158.963,309.69 206.136,248.728 		"/>
		<polygon fill="#54137D" points="804.638,571.922 787.941,568.734 804.638,547.152 		"/>
		<polygon fill="#E59344" points="709.766,135.289 637.349,121.461 684.519,60.504 		"/>
		<polygon fill="#EC6859" points="187.081,594.213 114.663,580.385 161.834,519.422 		"/>
		<polygon fill="#007185" points="36.497,146.877 -0.433,139.953 -0.433,87.306 11.249,72.211 		"/>
		<polygon fill="#0D2173" points="804.638,851.071 743.64,839.424 790.805,778.464 804.638,819.44 		"/>
		<polygon fill="#A32777" points="665.464,405.984 593.046,392.154 640.216,331.19 		"/>
		<polygon fill="#E37E63" points="426.27,500.098 353.858,486.27 401.029,425.309 		"/>
		<polygon fill="#00B6A2" points="275.685,52.826 203.266,38.998 245.755,-15.913 252.479,-15.913 		"/>
	</g>
	<g>
		<g>
			<text transform="matrix(1 0 0 1 21.1523 782.3193)" fill="#FFFFFF" font-family="'Verdana'" font-size="13.2789">Desarrollado por Santiago Nahuel Cordoba (github: santi8ago8) Con Imagenes de freepik.com</text>
		</g>
	</g>
	<g>
		<g>
			<path fill="#D7B029" d="M469.641,213.202c-3.895,0-8.078,0.194-11.415,0.491l43.864,33.473c0.261,0.03,0.403,0.048,0.403,0.048
				l0.992-29.555C503.487,217.659,482.022,213.202,469.641,213.202z"/>
			<path fill="#156C8E" d="M420.77,270.327c0,16.716,1.512,28.99,5.281,37.819l0.03-0.006l16.361-48.078l-21.673,9.731
				C420.771,269.972,420.77,270.148,420.77,270.327z"/>
			<path fill="#E3BD32" d="M420.771,269.793l21.673-9.731l15.781-46.369C429.321,216.45,420.85,231.294,420.771,269.793z"/>
			<path d="M426.083,308.14l-0.03,0.006c0.006,0.014,0.011,0.028,0.016,0.042L426.083,308.14z"/>
			<path fill="#E3BD32" d="M458.226,213.693l1.231,52.249c0.455-17.808,4.136-20.379,17.776-20.379
				c10.54,0,22.54,1.334,24.854,1.604L458.226,213.693z"/>
			<path fill="#36B0E1" d="M499.424,294.99c-4.921,0.293-14.103,0.764-22.188,0.764c-12.97,0-16.991-2.513-17.704-18.908
				l-33.223,30.643l-0.228,0.651L499.424,294.99z"/>
			<path fill="#D7B029" d="M459.404,270.327c0-1.56,0.021-3.013,0.055-4.386l-1.231-52.249l-15.661,46.023l16.96,16.96
				C459.443,274.752,459.404,272.652,459.404,270.327z"/>
			<path fill="#1FA1D6" d="M442.564,259.717l-16.256,47.772l33.223-30.643c-0.003-0.056-0.004-0.113-0.007-0.169L442.564,259.717z"
				/>
			<path fill="#1FA1D6" d="M499.424,294.99l-73.343,13.149l-0.017,0.048c5.313,12.411,15.111,17.988,31.469,19.49l44.429-32.845
				C501.353,294.874,500.484,294.928,499.424,294.99z"/>
			<path fill="#156C8E" d="M502.992,294.764c0,0-0.37,0.026-1.03,0.069l-21.72,16.057l23.242,12.789L502.992,294.764z"/>
			<path fill="#36B0E1" d="M480.242,310.89l-22.707,16.788c3.229,0.296,6.701,0.438,10.455,0.438
				c17.996,0,35.497-4.294,35.497-4.294l-0.003-0.143L480.242,310.89z"/>
		</g>
		<g>
			<polygon fill="#98B92E" points="336.813,247.261 358.038,286.159 358.038,216.1 357.99,216.1 			"/>
			<polygon fill="#6C903D" points="319.81,216.1 336.813,247.261 357.99,216.1 			"/>
			<polygon fill="#98B92E" points="319.752,280.012 319.752,326.624 358.038,286.159 			"/>
			<polygon fill="#98B92E" points="319.81,216.1 319.752,216.1 319.752,280.012 336.813,247.261 			"/>
			<polygon fill="#B2D23D" points="336.813,247.261 319.752,280.012 358.038,286.159 			"/>
			<polygon fill="#B2D23D" points="319.752,326.624 319.752,326.72 358.038,326.72 358.038,286.159 			"/>
			<polygon fill="#E46733" points="402.635,216.1 358.054,216.1 402.635,246.512 			"/>
			<polygon fill="#8E381E" points="379.936,231.028 358.038,246.602 358.038,246.651 358.057,246.651 358.057,246.644 
				402.635,246.644 402.635,246.512 			"/>
			<polygon fill="#D65327" points="358.054,216.1 358.038,216.1 358.038,246.602 379.936,231.028 			"/>
			<polygon fill="#6C903D" points="358.057,256.055 358.038,286.167 392.597,256.055 			"/>
			<polygon fill="#98B92E" points="358.038,286.167 392.729,286.269 392.729,256.055 392.597,256.055 			"/>
			<polygon points="385.027,326.699 385.015,326.72 385.046,326.72 			"/>
			<polygon fill="#D65327" points="358.038,296.141 358.038,326.72 385.015,326.72 385.027,326.699 			"/>
			<polygon fill="#E46733" points="402.635,296.176 358.038,296.141 385.027,326.699 402.635,296.206 			"/>
			<polygon fill="#8E381E" points="385.027,326.699 385.046,326.72 402.635,326.72 402.635,296.206 			"/>
		</g>
		<g>
			<polygon fill="#8E182F" points="542.521,326.757 580.825,326.757 580.825,291.316 542.521,326.656 			"/>
			<polygon fill="#E4345B" points="542.521,326.656 568.719,302.485 542.521,277.197 			"/>
			<polygon fill="#D61D46" points="542.521,277.197 568.719,302.485 569.005,302.22 542.521,247.459 			"/>
			<polygon fill="#E4345B" points="542.462,247.336 542.464,247.339 542.521,247.339 542.521,247.459 569.005,302.22 
				569.084,302.146 580.729,247.336 			"/>
			<polygon fill="#E4345B" points="580.729,247.336 569.084,302.146 580.825,291.316 580.825,247.339 602.288,247.339 
				602.288,247.336 			"/>
			<polygon fill="#7DC44E" points="602.288,216.135 556.667,216.135 602.288,246.785 			"/>
			<polygon fill="#60BA46" points="556.667,216.135 555.984,216.135 519.736,246.845 519.736,247.336 602.288,247.336 
				602.288,246.785 			"/>
			<polygon fill="#7DC44E" points="519.736,216.135 519.736,246.845 555.984,216.135 			"/>
		</g>
		<polygon fill="#CB3593" points="238.327,215.483 197.712,215.483 197.719,215.521 241.49,244.059 241.713,243.86 		"/>
		<polygon points="241.713,243.86 241.49,244.059 241.758,244.231 		"/>
		<polygon fill="#CF4999" points="241.49,244.059 197.719,215.521 209.297,272.552 209.439,272.607 		"/>
		<polygon points="209.439,272.607 209.297,272.552 209.327,272.706 		"/>
		<polygon fill="#CB3593" points="241.758,244.231 241.49,244.059 209.439,272.607 246.914,287.466 		"/>
		<polygon fill="#CF4999" points="246.914,287.466 209.439,272.607 209.327,272.706 219.921,324.89 246.941,287.466 		"/>
		<polygon fill="#168E74" points="276.733,325.578 249.885,287.466 248.174,287.466 248.174,326.102 276.633,326.102 		"/>
		<polygon fill="#8E226D" points="246.941,287.466 219.921,324.89 220.167,326.102 248.174,326.102 248.174,287.466 		"/>
		<polygon fill="#66C4AE" points="257.77,215.483 257.646,215.483 252.551,262.742 289.018,259.427 289.452,259.125 		"/>
		<polygon fill="#66C4AE" points="289.633,259.374 289.018,259.427 249.885,287.466 276.733,325.578 289.67,259.422 		"/>
		<polygon fill="#4AB79C" points="252.551,262.742 249.973,287.466 289.018,259.427 		"/>
		<polygon fill="#4AB79C" points="298.261,215.483 257.77,215.483 289.452,259.125 289.771,258.903 		"/>
	</g>
</g>
</svg>
