<?xml version="1.0" encoding="utf-8"?>
<!-- Generator: Adobe Illustrator 16.0.0, SVG Export Plug-In . SVG Version: 6.00 Build 0)  -->
<!DOCTYPE svg PUBLIC "-//W3C//DTD SVG 1.1//EN" "http://www.w3.org/Graphics/SVG/1.1/DTD/svg11.dtd">
<svg version="1.1" xmlns="http://www.w3.org/2000/svg" xmlns:xlink="http://www.w3.org/1999/xlink" x="0px" y="0px" width="800px"
	 height="800px" viewBox="0 0 800 800" enable-background="new 0 0 800 800" xml:space="preserve">
<g id="back">
	<rect fill="#F6F6F6" stroke="#1D1D1B" stroke-miterlimit="10" width="800" height="800"/>
	<rect fill="#1D1D1B" stroke="#1D1D1B" stroke-miterlimit="10" width="800" height="800"/>
	<g>
		<path fill="#F2D144" d="M398.106,759.529h0.588v-0.738c0-0.777,0.096-1.385,0.293-1.842c0.191-0.457,0.527-0.787,0.992-0.996
			c0.465-0.205,1.108-0.309,1.921-0.309c1.441,0,2.158,0.35,2.158,1.061c0,0.227-0.078,0.422-0.227,0.584
			c-0.15,0.16-0.326,0.244-0.531,0.244c-0.096,0-0.264-0.02-0.502-0.059c-0.225-0.031-0.432-0.053-0.592-0.053
			c-0.445,0-0.73,0.133-0.859,0.395c-0.123,0.262-0.188,0.637-0.188,1.127v0.586h0.602c0.941,0,1.41,0.285,1.41,0.852
			c0,0.398-0.123,0.654-0.375,0.764c-0.25,0.109-0.594,0.164-1.035,0.164h-0.602v6.533c0,0.484-0.113,0.857-0.351,1.109
			c-0.23,0.26-0.527,0.387-0.898,0.387c-0.346,0-0.637-0.127-0.871-0.387c-0.23-0.252-0.346-0.625-0.346-1.109v-6.533h-0.68
			c-0.367,0-0.65-0.08-0.85-0.248c-0.197-0.164-0.297-0.379-0.297-0.645C396.868,759.822,397.28,759.529,398.106,759.529"/>
		<path fill="#F2D144" d="M406.178,765.781v2.061c0,0.498-0.123,0.875-0.355,1.121c-0.236,0.254-0.531,0.375-0.891,0.375
			c-0.363,0-0.654-0.123-0.881-0.381c-0.229-0.25-0.344-0.623-0.344-1.115v-6.869c0-1.109,0.4-1.662,1.199-1.662
			c0.412,0,0.705,0.131,0.891,0.389c0.178,0.262,0.279,0.643,0.299,1.152c0.293-0.51,0.594-0.891,0.902-1.152
			c0.314-0.258,0.725-0.389,1.244-0.389c0.521,0,1.02,0.131,1.508,0.389c0.486,0.262,0.732,0.604,0.732,1.029
			c0,0.303-0.104,0.555-0.313,0.748c-0.209,0.197-0.428,0.293-0.67,0.293c-0.094,0-0.313-0.055-0.658-0.17
			c-0.348-0.109-0.652-0.162-0.916-0.162c-0.359,0-0.656,0.098-0.883,0.281c-0.23,0.193-0.41,0.473-0.535,0.842
			c-0.127,0.375-0.213,0.822-0.26,1.336C406.199,764.414,406.178,765.041,406.178,765.781"/>
		<path fill="#F2D144" d="M417.512,764.934h-4.824c0.006,0.557,0.117,1.053,0.34,1.48c0.219,0.426,0.51,0.748,0.875,0.967
			c0.369,0.215,0.768,0.324,1.207,0.324c0.295,0,0.563-0.033,0.807-0.107c0.246-0.066,0.484-0.176,0.711-0.322
			c0.229-0.148,0.438-0.305,0.631-0.475c0.193-0.168,0.443-0.398,0.75-0.688c0.129-0.105,0.309-0.162,0.543-0.162
			c0.252,0,0.455,0.068,0.615,0.207c0.158,0.143,0.232,0.334,0.232,0.588c0,0.225-0.084,0.482-0.256,0.781
			c-0.178,0.303-0.441,0.586-0.797,0.859c-0.35,0.271-0.795,0.504-1.328,0.68c-0.531,0.184-1.145,0.271-1.836,0.271
			c-1.584,0-2.814-0.447-3.691-1.352c-0.883-0.906-1.322-2.133-1.322-3.678c0-0.73,0.109-1.406,0.326-2.029
			c0.215-0.627,0.533-1.156,0.951-1.604c0.414-0.445,0.924-0.789,1.531-1.025c0.609-0.238,1.279-0.355,2.023-0.355
			c0.965,0,1.791,0.201,2.479,0.613c0.691,0.402,1.213,0.93,1.551,1.572c0.342,0.648,0.516,1.303,0.516,1.973
			c0,0.615-0.18,1.02-0.533,1.203C418.656,764.84,418.154,764.934,417.512,764.934 M412.688,763.529h4.471
			c-0.059-0.842-0.287-1.471-0.68-1.891c-0.395-0.416-0.914-0.625-1.561-0.625c-0.609,0-1.117,0.209-1.512,0.637
			C413.012,762.074,412.771,762.701,412.688,763.529"/>
		<path fill="#F2D144" d="M427.766,764.934h-4.822c0.006,0.557,0.119,1.053,0.338,1.48c0.221,0.426,0.514,0.748,0.877,0.967
			c0.361,0.215,0.768,0.324,1.205,0.324c0.293,0,0.566-0.033,0.807-0.107c0.246-0.066,0.48-0.176,0.715-0.322
			c0.225-0.148,0.436-0.305,0.631-0.475c0.189-0.168,0.439-0.398,0.746-0.688c0.129-0.105,0.311-0.162,0.541-0.162
			c0.256,0,0.461,0.068,0.619,0.207c0.154,0.143,0.23,0.334,0.23,0.588c0,0.225-0.084,0.482-0.262,0.781
			c-0.17,0.303-0.434,0.586-0.791,0.859c-0.35,0.271-0.797,0.504-1.328,0.68c-0.531,0.184-1.145,0.271-1.838,0.271
			c-1.582,0-2.814-0.447-3.693-1.352c-0.879-0.906-1.32-2.133-1.32-3.678c0-0.73,0.109-1.406,0.328-2.029
			c0.219-0.627,0.531-1.156,0.947-1.604c0.416-0.445,0.928-0.789,1.535-1.025c0.607-0.238,1.283-0.355,2.023-0.355
			c0.961,0,1.789,0.201,2.484,0.613c0.686,0.402,1.205,0.93,1.545,1.572c0.342,0.648,0.516,1.303,0.516,1.973
			c0,0.615-0.18,1.02-0.533,1.203C428.91,764.84,428.408,764.934,427.766,764.934 M422.943,763.529h4.473
			c-0.059-0.842-0.293-1.471-0.684-1.891c-0.395-0.416-0.914-0.625-1.561-0.625c-0.613,0-1.115,0.209-1.512,0.637
			C423.264,762.074,423.027,762.701,422.943,763.529"/>
		<path fill="#F2D144" d="M433.168,760.699v0.295c0.461-0.572,0.947-0.994,1.447-1.258c0.498-0.271,1.066-0.406,1.695-0.406
			c0.758,0,1.459,0.197,2.1,0.586c0.639,0.395,1.141,0.967,1.51,1.719c0.373,0.754,0.559,1.645,0.559,2.674
			c0,0.758-0.107,1.457-0.32,2.092c-0.211,0.635-0.508,1.166-0.881,1.6c-0.373,0.426-0.816,0.76-1.322,0.994
			c-0.514,0.227-1.057,0.344-1.645,0.344c-0.703,0-1.295-0.141-1.775-0.422c-0.479-0.281-0.932-0.701-1.367-1.244v3.701
			c0,1.082-0.396,1.627-1.182,1.627c-0.467,0-0.77-0.141-0.924-0.418c-0.145-0.285-0.223-0.689-0.223-1.229v-10.643
			c0-0.469,0.1-0.816,0.303-1.053c0.207-0.229,0.49-0.348,0.844-0.348c0.348,0,0.635,0.119,0.852,0.355
			C433.061,759.908,433.168,760.248,433.168,760.699 M438,764.283c0-0.654-0.098-1.211-0.297-1.678
			c-0.197-0.469-0.475-0.822-0.822-1.07c-0.352-0.252-0.746-0.379-1.174-0.379c-0.678,0-1.254,0.268-1.721,0.801
			c-0.469,0.541-0.697,1.326-0.697,2.369c0,0.979,0.229,1.746,0.693,2.289c0.465,0.547,1.035,0.816,1.725,0.816
			c0.408,0,0.791-0.119,1.139-0.354c0.35-0.238,0.631-0.594,0.842-1.07S438,764.953,438,764.283"/>
		<path fill="#F2D144" d="M442.961,758.164c-0.344,0-0.633-0.109-0.877-0.316c-0.246-0.215-0.371-0.508-0.371-0.891
			c0-0.35,0.127-0.639,0.377-0.865c0.252-0.225,0.541-0.34,0.871-0.34c0.32,0,0.604,0.104,0.852,0.303
			c0.246,0.209,0.371,0.508,0.371,0.902c0,0.377-0.123,0.676-0.363,0.887S443.293,758.164,442.961,758.164 M444.184,760.711v7.131
			c0,0.492-0.119,0.865-0.354,1.115c-0.238,0.258-0.533,0.381-0.896,0.381c-0.361,0-0.652-0.127-0.877-0.387
			c-0.229-0.262-0.344-0.631-0.344-1.109v-7.059c0-0.488,0.115-0.855,0.344-1.1c0.225-0.25,0.516-0.373,0.877-0.373
			c0.363,0,0.658,0.123,0.896,0.373C444.064,759.928,444.184,760.275,444.184,760.711"/>
		<path fill="#F2D144" d="M452.131,768.215l-2.174-3.584l-1.338,1.266v1.963c0,0.475-0.127,0.84-0.379,1.092
			c-0.242,0.26-0.535,0.387-0.859,0.387c-0.379,0-0.68-0.123-0.895-0.381c-0.217-0.25-0.326-0.623-0.326-1.115v-10.52
			c0-0.545,0.105-0.961,0.316-1.25c0.209-0.289,0.514-0.428,0.904-0.428c0.379,0,0.68,0.129,0.9,0.391
			c0.229,0.256,0.338,0.639,0.338,1.141v5.986l2.773-2.912c0.344-0.357,0.602-0.609,0.787-0.74c0.178-0.131,0.398-0.201,0.656-0.201
			c0.309,0,0.564,0.1,0.773,0.297c0.201,0.195,0.303,0.441,0.303,0.736c0,0.359-0.334,0.844-1.004,1.445l-1.307,1.199l2.529,3.979
			c0.184,0.297,0.318,0.516,0.4,0.67c0.084,0.152,0.123,0.307,0.123,0.439c0,0.395-0.105,0.697-0.32,0.93
			c-0.215,0.223-0.498,0.334-0.844,0.334c-0.303,0-0.535-0.076-0.701-0.244C452.631,768.93,452.406,768.637,452.131,768.215"/>
		<path fill="#F2D144" d="M457.488,769.338c-0.371,0-0.693-0.121-0.965-0.361c-0.27-0.236-0.408-0.576-0.408-1.012
			c0-0.367,0.133-0.684,0.391-0.947c0.26-0.264,0.578-0.398,0.957-0.398c0.381,0,0.699,0.135,0.975,0.393
			c0.266,0.264,0.402,0.584,0.402,0.953c0,0.43-0.137,0.768-0.402,1.008C458.162,769.217,457.848,769.338,457.488,769.338"/>
		<path fill="#F2D144" d="M469.75,766.285c0,0.307-0.092,0.635-0.275,0.986c-0.186,0.35-0.463,0.682-0.84,0.998
			c-0.377,0.314-0.848,0.57-1.424,0.762c-0.572,0.193-1.217,0.293-1.93,0.293c-1.525,0-2.717-0.447-3.572-1.332
			c-0.854-0.889-1.279-2.084-1.279-3.576c0-1.014,0.193-1.904,0.588-2.684c0.385-0.775,0.953-1.375,1.695-1.803
			c0.738-0.424,1.629-0.635,2.652-0.635c0.641,0,1.229,0.092,1.762,0.279c0.535,0.186,0.982,0.43,1.355,0.721
			c0.367,0.301,0.65,0.611,0.846,0.945c0.197,0.334,0.295,0.646,0.295,0.938c0,0.295-0.109,0.545-0.33,0.746
			c-0.221,0.209-0.486,0.311-0.799,0.311c-0.207,0-0.375-0.053-0.51-0.158c-0.139-0.104-0.289-0.275-0.457-0.516
			c-0.299-0.453-0.615-0.799-0.945-1.023c-0.326-0.232-0.746-0.346-1.252-0.346c-0.723,0-1.311,0.285-1.76,0.852
			c-0.445,0.57-0.668,1.35-0.668,2.334c0,0.467,0.059,0.895,0.174,1.283c0.111,0.385,0.273,0.719,0.494,0.99
			c0.219,0.275,0.479,0.48,0.785,0.625c0.309,0.145,0.646,0.213,1.01,0.213c0.5,0,0.918-0.115,1.271-0.344
			c0.359-0.227,0.668-0.576,0.938-1.049c0.15-0.273,0.313-0.488,0.482-0.645c0.178-0.16,0.395-0.24,0.645-0.24
			c0.305,0,0.553,0.115,0.75,0.344C469.652,765.783,469.75,766.029,469.75,766.285"/>
		<path fill="#F2D144" d="M480.393,764.326c0,0.734-0.117,1.412-0.34,2.035c-0.234,0.621-0.563,1.152-1,1.596
			c-0.428,0.445-0.951,0.787-1.551,1.025c-0.607,0.234-1.281,0.355-2.033,0.355c-0.746,0-1.416-0.121-2.016-0.361
			c-0.594-0.236-1.115-0.584-1.547-1.029c-0.438-0.453-0.77-0.982-1-1.596c-0.219-0.611-0.334-1.285-0.334-2.025
			c0-0.748,0.119-1.43,0.344-2.051c0.227-0.623,0.559-1.152,0.988-1.588c0.428-0.441,0.943-0.779,1.549-1.021
			c0.611-0.236,1.283-0.355,2.016-0.355c0.748,0,1.426,0.119,2.033,0.363c0.607,0.238,1.127,0.584,1.563,1.027
			c0.436,0.447,0.764,0.979,0.99,1.588C480.277,762.908,480.393,763.584,480.393,764.326 M477.916,764.326
			c0-1.006-0.223-1.785-0.664-2.35c-0.441-0.561-1.035-0.842-1.783-0.842c-0.482,0-0.906,0.127-1.275,0.377
			c-0.367,0.25-0.648,0.617-0.848,1.105c-0.197,0.49-0.301,1.057-0.301,1.709c0,0.645,0.098,1.205,0.291,1.686
			c0.201,0.488,0.48,0.855,0.848,1.111c0.365,0.25,0.793,0.385,1.285,0.385c0.748,0,1.342-0.285,1.783-0.85
			C477.693,766.096,477.916,765.316,477.916,764.326"/>
		<path fill="#F2D144" d="M489.797,764.51v3.275c0,0.521-0.115,0.902-0.352,1.166c-0.236,0.26-0.545,0.387-0.932,0.387
			c-0.371,0-0.68-0.127-0.904-0.387c-0.232-0.264-0.354-0.645-0.354-1.166v-3.928c0-0.623-0.02-1.104-0.059-1.447
			c-0.045-0.34-0.16-0.627-0.346-0.844c-0.184-0.221-0.484-0.33-0.885-0.33c-0.809,0-1.336,0.275-1.594,0.834
			c-0.254,0.549-0.385,1.344-0.385,2.383v3.332c0,0.514-0.117,0.898-0.348,1.162c-0.232,0.26-0.537,0.391-0.918,0.391
			c-0.375,0-0.68-0.131-0.914-0.391c-0.238-0.264-0.363-0.648-0.363-1.162v-7.057c0-0.461,0.109-0.816,0.324-1.055
			c0.215-0.244,0.496-0.363,0.846-0.363c0.338,0,0.617,0.117,0.846,0.34c0.225,0.227,0.338,0.535,0.338,0.938v0.23
			c0.43-0.508,0.885-0.887,1.375-1.125c0.488-0.242,1.027-0.363,1.623-0.363c0.621,0,1.156,0.123,1.6,0.369
			c0.447,0.248,0.813,0.621,1.104,1.119c0.414-0.502,0.861-0.879,1.336-1.125c0.48-0.242,1.002-0.363,1.582-0.363
			c0.674,0,1.258,0.135,1.744,0.396c0.488,0.268,0.85,0.648,1.088,1.137c0.215,0.451,0.318,1.15,0.318,2.109v4.813
			c0,0.521-0.117,0.902-0.35,1.166c-0.236,0.26-0.543,0.387-0.932,0.387c-0.371,0-0.68-0.131-0.918-0.391
			c-0.238-0.264-0.354-0.648-0.354-1.162v-4.148c0-0.529-0.023-0.951-0.07-1.271c-0.041-0.318-0.168-0.588-0.365-0.805
			c-0.201-0.215-0.504-0.324-0.904-0.324c-0.326,0-0.631,0.096-0.926,0.289c-0.291,0.191-0.52,0.451-0.684,0.775
			C489.889,762.713,489.797,763.453,489.797,764.51"/>
		<path fill-rule="evenodd" clip-rule="evenodd" fill="#F2D144" d="M381.029,770.201c0,0-1.348-0.213-2.658-1.65
			c-1.324-1.447-1.547-2.984-1.547-2.984s1.678,0.398,2.884,0.529c2.122,0.242,4.034,0.107,4.937,0.01
			c1.953-0.215,2.991-0.574,3.414-0.68c2.494-0.596,4.891-2.213,4.891-2.213s0.303,1.875-1.107,3.955
			c-0.549,0.811-1.643,1.742-2.904,2.385C384.624,771.391,381.029,770.201,381.029,770.201"/>
		<path fill-rule="evenodd" clip-rule="evenodd" fill="#F2D144" d="M391.227,759.555c-0.467-0.563-2.011-3.211-5.137-3.59
			c-0.801-0.098-5.027,0.066-7.562,2.416c-0.253,0.234-1.54,1.367-1.968,3.469c-0.332,1.627,0.213,3.463,0.213,3.463
			s2.813,0.584,4.932,0.531c3.361-0.086,5.05-0.381,6.809-0.912c2.587-0.787,4.418-2.1,4.418-2.1S391.691,760.121,391.227,759.555
			 M381.527,763.584c-1.42,0.094-2.645-0.979-2.732-2.393c-0.09-1.41,0.992-2.633,2.414-2.721c1.422-0.098,2.647,0.98,2.732,2.389
			C384.032,762.275,382.949,763.494,381.527,763.584 M388.787,761.76c-0.895,0.053-1.667-0.619-1.723-1.51
			c-0.054-0.885,0.627-1.654,1.521-1.713s1.667,0.623,1.72,1.506C390.363,760.936,389.68,761.703,388.787,761.76"/>
		<path fill-rule="evenodd" clip-rule="evenodd" fill="#F2D144" d="M390.01,757.725l0.815-0.982c0,0,1.128,0.557,1.853,1.604
			c0.723,1.039,1.189,1.992,1.189,1.992l-1.346,0.82c0,0-0.418-1.004-1.044-1.813C390.855,758.541,390.01,757.725,390.01,757.725"/>
		<path fill-rule="evenodd" clip-rule="evenodd" fill="#F2D144" d="M392.572,758.404c0.211-0.127,0.566-0.143,0.547-0.445
			c-0.014-0.295-0.217-0.883,0.367-1.084c0.595-0.201,0.262,0.176,0.059,0.434c-0.203,0.262-0.137,0.416-0.111,0.801
			c0.021,0.375-0.246,0.5-0.646,0.688C392.389,758.988,392.363,758.531,392.572,758.404"/>
		<path fill-rule="evenodd" clip-rule="evenodd" fill="#F2D144" d="M377.593,759.006c0,0-0.945,1.1-1.186,2.092
			c-0.237,0.998-0.19,2.195-0.19,2.195l-1.4-0.482c0,0-0.079-1.377,0.556-2.49c0.712-1.232,1.616-1.789,1.616-1.789L377.593,759.006
			z"/>
		<path fill-rule="evenodd" clip-rule="evenodd" fill="#F2D144" d="M375.533,760.258c-0.229-0.15-0.25-0.506-0.429-0.736
			c-0.18-0.236-0.224-0.094-0.635-0.094c-0.411-0.002-0.424-0.193-0.542-0.291c-0.115-0.104-0.17,0.307-0.17,0.307
			s0.076,0.35,0.518,0.375c0.436,0.027,0.426-0.188,0.617,0.207c0.186,0.396,0.563,0.699,0.563,0.699
			S375.764,760.404,375.533,760.258"/>
		<path fill-rule="evenodd" clip-rule="evenodd" fill="#F2D144" d="M382.963,755.043c2.295-0.576,3.732,0.088,3.732,0.088
			l-0.121,0.66c0,0-1.68-0.111-3.011,0.088c-1.328,0.189-1.935,0.607-1.935,0.607l-0.289-0.66
			C381.34,755.826,381.969,755.291,382.963,755.043"/>
		
			<rect x="383.855" y="754.001" transform="matrix(-0.9376 0.3477 -0.3477 -0.9376 1006.461 1328.627)" fill-rule="evenodd" clip-rule="evenodd" fill="#F2D144" width="0.343" height="1.224"/>
		<path fill-rule="evenodd" clip-rule="evenodd" fill="#F2D144" d="M393.766,756.225c0.327-0.018,0.603,0.229,0.62,0.553
			c0.023,0.324-0.223,0.6-0.548,0.619c-0.324,0.025-0.6-0.225-0.621-0.547C393.197,756.527,393.441,756.256,393.766,756.225"/>
		<path fill-rule="evenodd" clip-rule="evenodd" fill="#F2D144" d="M373.598,758.445c0.326-0.018,0.605,0.227,0.625,0.549
			c0.018,0.322-0.227,0.598-0.552,0.619c-0.323,0.023-0.6-0.223-0.625-0.547C373.029,758.746,373.277,758.471,373.598,758.445"/>
		<path fill-rule="evenodd" clip-rule="evenodd" fill="#F2D144" d="M383.932,752.639c0.516-0.033,0.96,0.354,0.992,0.869
			c0.031,0.512-0.359,0.953-0.877,0.986c-0.518,0.037-0.957-0.355-0.994-0.871C383.021,753.113,383.414,752.666,383.932,752.639"/>
		<path fill="#F2D144" d="M310.573,767.98c0,0.58-0.364,0.959-0.867,0.959c-0.475,0-0.753-0.26-0.858-0.721
			c-0.326,0.529-0.992,0.789-1.58,0.789c-1.736,0-2.836-1.609-2.836-3.238c0-1.68,0.922-3.414,2.775-3.414
			c0.6,0,1.185,0.205,1.641,0.604v-2.352c0-0.57,0.357-0.953,0.858-0.953c0.503,0,0.867,0.383,0.867,0.953V767.98z M307.495,763.936
			c-0.898,0-1.341,0.943-1.341,1.76c0,0.805,0.442,1.736,1.341,1.736c0.943,0,1.353-0.957,1.353-1.795
			C308.848,764.797,308.416,763.936,307.495,763.936"/>
		<path fill="#F2D144" d="M312.938,766.256c0.121,0.85,0.826,1.248,1.631,1.248c0.884,0,1.494-0.695,1.949-0.695
			c0.371,0,0.705,0.371,0.705,0.744c0,0.742-1.532,1.455-2.812,1.455c-1.938,0-3.232-1.41-3.232-3.311
			c0-1.748,1.271-3.342,3.088-3.342c1.867,0,3.103,1.703,3.103,3.137c0,0.516-0.229,0.764-0.756,0.764H312.938z M315.645,765.109
			c-0.095-0.756-0.574-1.313-1.378-1.313c-0.765,0-1.28,0.58-1.362,1.313H315.645z"/>
		<path fill="#F2D144" d="M321.604,764.367c-0.324,0-0.982-0.502-1.546-0.502c-0.309,0-0.587,0.143-0.587,0.479
			c0,0.799,2.993,0.684,2.993,2.648c0,1.145-0.969,2.016-2.454,2.016c-0.969,0-2.404-0.547-2.404-1.324
			c0-0.264,0.263-0.766,0.742-0.766c0.668,0,0.969,0.586,1.782,0.586c0.526,0,0.684-0.166,0.684-0.492
			c0-0.789-2.994-0.668-2.994-2.645c0-1.193,0.971-2.012,2.333-2.012c0.851,0,2.156,0.398,2.156,1.248
			C322.31,763.996,322.01,764.367,321.604,764.367"/>
		<path fill="#F2D144" d="M324.881,760.789c0,0.543-0.428,0.994-0.969,0.994c-0.515,0-0.968-0.467-0.968-0.994
			c0-0.49,0.453-0.943,0.968-0.943S324.881,760.285,324.881,760.789 M323.051,763.389c0-0.576,0.358-0.959,0.861-0.959
			c0.502,0,0.863,0.383,0.863,0.959v4.592c0,0.58-0.361,0.959-0.863,0.959c-0.503,0-0.861-0.379-0.861-0.959V763.389z"/>
		<path fill="#F2D144" d="M331.619,768.367c0,2.066-1.353,3.113-3.314,3.113c-0.706,0-2.718-0.35-2.718-1.297
			c0-0.322,0.358-0.754,0.695-0.754c0.552,0,1.161,0.535,2.152,0.535c0.838,0,1.462-0.484,1.462-1.361v-0.404h-0.024
			c-0.357,0.523-0.945,0.809-1.733,0.809c-1.808,0-2.661-1.588-2.661-3.297c0-1.74,1.103-3.355,2.839-3.355
			c0.587,0,1.257,0.264,1.58,0.789c0.108-0.453,0.382-0.715,0.861-0.715c0.502,0,0.861,0.383,0.861,0.959V768.367z M328.542,763.936
			c-0.895,0-1.338,0.936-1.338,1.738c0,0.92,0.443,1.758,1.338,1.758c0.922,0,1.354-0.859,1.354-1.705
			C329.896,764.896,329.488,763.936,328.542,763.936"/>
		<path fill="#F2D144" d="M332.599,763.389c0-0.576,0.358-0.959,0.862-0.959c0.444,0,0.73,0.238,0.788,0.637
			c0.34-0.471,0.853-0.711,1.665-0.711c1.354,0,2.357,0.863,2.357,2.322v3.303c0,0.58-0.355,0.959-0.859,0.959
			c-0.503,0-0.864-0.379-0.864-0.959v-3.004c0-0.799-0.501-1.18-1.125-1.18c-0.702,0-1.099,0.512-1.099,1.18v3.004
			c0,0.58-0.361,0.959-0.863,0.959c-0.504,0-0.862-0.379-0.862-0.959V763.389z"/>
		<path fill="#F2D144" d="M340.641,766.256c0.12,0.85,0.826,1.248,1.628,1.248c0.885,0,1.495-0.695,1.95-0.695
			c0.369,0,0.709,0.371,0.709,0.744c0,0.742-1.534,1.455-2.814,1.455c-1.939,0-3.232-1.41-3.232-3.311
			c0-1.748,1.269-3.342,3.09-3.342c1.866,0,3.097,1.703,3.097,3.137c0,0.516-0.226,0.764-0.751,0.764H340.641z M343.346,765.109
			c-0.097-0.756-0.574-1.313-1.375-1.313c-0.768,0-1.282,0.58-1.364,1.313H343.346z"/>
		<path fill="#F2D144" d="M351.567,767.98c0,0.58-0.359,0.959-0.862,0.959c-0.479,0-0.754-0.26-0.859-0.721
			c-0.326,0.529-0.994,0.789-1.583,0.789c-1.733,0-2.832-1.609-2.832-3.238c0-1.68,0.919-3.414,2.775-3.414
			c0.597,0,1.182,0.205,1.64,0.604v-2.352c0-0.57,0.356-0.953,0.859-0.953s0.862,0.383,0.862,0.953V767.98z M348.492,763.936
			c-0.896,0-1.339,0.943-1.339,1.76c0,0.805,0.442,1.736,1.339,1.736c0.944,0,1.354-0.957,1.354-1.795
			C349.846,764.797,349.415,763.936,348.492,763.936"/>
		<path fill="#F2D144" d="M355.755,760.607c0-0.57,0.361-0.953,0.864-0.953c0.5,0,0.858,0.383,0.858,0.953v2.352
			c0.458-0.398,1.042-0.604,1.64-0.604c1.856,0,2.776,1.734,2.776,3.414c0,1.629-1.1,3.238-2.836,3.238
			c-0.586,0-1.257-0.26-1.58-0.789c-0.108,0.461-0.381,0.721-0.858,0.721c-0.503,0-0.864-0.379-0.864-0.961V760.607z
			 M358.831,767.432c0.896,0,1.341-0.932,1.341-1.734c0-0.818-0.444-1.762-1.341-1.762c-0.923,0-1.354,0.861-1.354,1.701
			C357.478,766.475,357.887,767.432,358.831,767.432"/>
		<path fill="#F2D144" d="M362.193,763.611c-0.049-0.127-0.085-0.264-0.085-0.438c0-0.434,0.457-0.742,0.813-0.742
			c0.418,0,0.72,0.229,0.863,0.607l1.183,3.244l1.27-3.244c0.143-0.379,0.442-0.607,0.861-0.607c0.361,0,0.813,0.309,0.813,0.742
			c0,0.174-0.022,0.311-0.081,0.438l-2.885,7.184c-0.146,0.357-0.408,0.686-0.815,0.686c-0.583,0-0.898-0.377-0.898-0.744
			c0-0.172,0.05-0.35,0.107-0.506l0.757-1.861L362.193,763.611z"/>
	</g>
</g>
<g id="draw">
	<g>
		
			<radialGradient id="SVGID_1_" cx="215.1816" cy="612.6816" r="210.1816" gradientTransform="matrix(1 0 0 0.1 0 551.4135)" gradientUnits="userSpaceOnUse">
			<stop  offset="0" style="stop-color:#C6C6C6"/>
			<stop  offset="0.2876" style="stop-color:#D2D2D2;stop-opacity:0.7124"/>
			<stop  offset="0.8047" style="stop-color:#F1F1F1;stop-opacity:0.1953"/>
			<stop  offset="1" style="stop-color:#FFFFFF;stop-opacity:0"/>
		</radialGradient>
		<circle fill="url(#SVGID_1_)" cx="215.182" cy="612.682" r="210.182"/>
		
			<radialGradient id="SVGID_2_" cx="557.0332" cy="612.6816" r="210.1816" gradientTransform="matrix(1 0 0 0.1 0 551.4135)" gradientUnits="userSpaceOnUse">
			<stop  offset="0" style="stop-color:#C6C6C6"/>
			<stop  offset="0.2876" style="stop-color:#D2D2D2;stop-opacity:0.7124"/>
			<stop  offset="0.8047" style="stop-color:#F1F1F1;stop-opacity:0.1953"/>
			<stop  offset="1" style="stop-color:#FFFFFF;stop-opacity:0"/>
		</radialGradient>
		<circle fill="url(#SVGID_2_)" cx="557.034" cy="612.682" r="210.181"/>
		<g>
			<g>
				<polygon fill="#9DC165" points="396.266,383.643 396.266,395.035 356.292,392.885 				"/>
				<polygon fill="#85A665" points="356.292,392.885 390.461,406.376 396.266,395.035 				"/>
				<polygon fill="#9DC165" points="390.461,406.376 348.662,413.695 356.292,392.885 				"/>
				<polygon fill="#75C68A" points="390.461,406.376 376.278,453.06 348.662,413.695 				"/>
				<polygon fill="#4DCE78" points="348.662,413.695 341.14,435.544 376.278,453.06 				"/>
				<polygon fill="#79A39B" points="341.14,435.544 341.14,467.244 376.278,453.06 				"/>
				<polygon fill="#28B29E" points="376.278,453.06 362.152,520.112 356.721,460.954 				"/>
				<polygon fill="#79A39B" points="356.721,460.954 342.789,491.852 362.152,520.112 				"/>
				<polygon fill="#53C1AF" points="356.721,460.954 342.789,491.852 341.14,467.244 				"/>
				<polygon fill="#53C1AF" points="342.789,491.852 344.578,510.978 362.152,520.112 				"/>
				<polygon fill="#96BCB5" points="362.152,520.112 335.51,530.615 344.578,510.978 				"/>
				<polygon fill="#B2B2D3" points="362.152,520.112 365.426,533.866 335.51,530.615 				"/>
				<polygon fill="#A3A3E5" points="365.426,533.866 347.517,557.222 335.51,530.615 				"/>
				<polygon fill="#8787C6" points="335.51,530.615 327.601,543.919 347.517,557.222 				"/>
				<polygon fill="#8787C6" points="365.426,533.866 378.965,549.662 347.517,557.222 				"/>
				<polygon fill="#6A6ACE" points="378.965,549.662 378.965,569.979 347.517,557.222 				"/>
				<polygon fill="#606096" points="378.965,549.662 396.049,557.222 378.965,569.979 				"/>
				<polygon fill="#5555AA" points="396.049,557.222 402.693,563.316 378.965,569.979 				"/>
				<polygon fill="#6A6ACE" points="402.693,563.316 398.963,568.898 378.965,569.979 				"/>
			</g>
			<g>
				<g>
					<path fill="#D34071" d="M445.943,506.393c0-57.591,46.855-104.447,104.447-104.447s104.447,46.856,104.447,104.447
						c0,57.593-46.855,104.447-104.447,104.447S445.943,563.985,445.943,506.393z M451.963,506.393
						c0,54.275,44.154,98.43,98.428,98.43c54.275,0,98.43-44.154,98.43-98.43c0-54.273-44.154-98.428-98.43-98.428
						C496.117,407.965,451.963,452.119,451.963,506.393z"/>
				</g>
				<g>
					<path fill="#C996D6" d="M457.691,506.393c0-51.114,41.586-92.697,92.699-92.697c51.115,0,92.699,41.583,92.699,92.697
						s-41.584,92.699-92.699,92.699C499.277,599.092,457.691,557.507,457.691,506.393z M472.305,506.393
						c0,43.056,35.031,78.085,78.086,78.085c43.057,0,78.086-35.029,78.086-78.085s-35.029-78.085-78.086-78.085
						C507.336,428.308,472.305,463.337,472.305,506.393z"/>
				</g>
				<g>
					<path fill="#D34071" d="M128.591,506.393c0-57.591,46.855-104.447,104.447-104.447s104.447,46.856,104.447,104.447
						c0,57.593-46.855,104.447-104.447,104.447S128.591,563.985,128.591,506.393z M134.609,506.393
						c0,54.275,44.154,98.43,98.429,98.43s98.43-44.154,98.43-98.43c0-54.273-44.155-98.428-98.43-98.428
						S134.609,452.119,134.609,506.393z"/>
				</g>
				<g>
					<path fill="#C996D6" d="M140.34,506.393c0-51.114,41.584-92.697,92.698-92.697s92.699,41.583,92.699,92.697
						s-41.585,92.699-92.699,92.699S140.34,557.507,140.34,506.393z M154.953,506.393c0,43.056,35.029,78.085,78.085,78.085
						s78.086-35.029,78.086-78.085s-35.03-78.085-78.086-78.085S154.953,463.337,154.953,506.393z"/>
				</g>
				<g>
					<path fill="#C1859D" d="M362.152,583.477c4.272,0,7.737-3.465,7.737-7.738v-61.322c0-4.272-3.465-7.736-7.737-7.736
						c-4.273,0-7.737,3.464-7.737,7.736v61.322C354.415,580.012,357.879,583.477,362.152,583.477z"/>
				</g>
				<g>
					<path fill="#C1859D" d="M333.905,520.72c0-13.822,11.247-25.072,25.072-25.072c13.826,0,25.073,11.25,25.073,25.072
						c0,13.825-11.247,25.073-25.073,25.073C345.152,545.793,333.905,534.545,333.905,520.72z M341.642,520.72
						c0,9.56,7.776,17.339,17.336,17.339s17.337-7.779,17.337-17.339c0-9.559-7.777-17.336-17.337-17.336
						S341.642,511.161,341.642,520.72z"/>
				</g>
				<g>
					<path fill="#C1859D" d="M320.724,520.72c0-21.093,17.16-38.253,38.254-38.253c21.093,0,38.255,17.16,38.255,38.253
						c0,21.094-17.163,38.256-38.255,38.256C337.884,558.976,320.724,541.813,320.724,520.72z M328.46,520.72
						c0,16.828,13.69,30.519,30.518,30.519c16.828,0,30.517-13.69,30.517-30.519c0-16.827-13.689-30.517-30.517-30.517
						C342.15,490.203,328.46,503.893,328.46,520.72z"/>
				</g>
				<path fill="#D34071" d="M225.817,511.178c0.719,1.798,2.383,3.037,4.31,3.218l123.215,11.461
					c0.162,0.015,0.324,0.022,0.484,0.022c2.12,0,3.972-1.312,4.75-3.214l5.901,6.066L495.174,401.6l45.039,107.614
					c1.172,2.802,3.887,4.488,6.744,4.488c0.939,0,1.895-0.184,2.818-0.568c3.723-1.558,5.477-5.84,3.92-9.561l-71.557-170.971
					h11.803v20.895c0,2.373,1.924,4.298,4.299,4.298h44.271c1.162,0,2.277-0.472,3.088-1.309l22.951-23.697
					c1.586,1.336,3.498,3.593,4.117,7.001c1.053,5.804-1.316,16.347-18.582,33.613c-1.68,1.678-1.68,4.399,0,6.078
					c0.838,0.84,1.939,1.26,3.039,1.26s2.201-0.42,3.039-1.26c16.074-16.073,23.113-30.013,20.924-41.431
					c-2.018-10.529-11.102-14.551-11.488-14.717c-1.639-0.706-3.547-0.324-4.789,0.958l-24.119,24.906h-38.152v-16.597h5.443
					c4.035,0,7.307-3.272,7.307-7.307c0-4.035-3.271-7.307-7.307-7.307H471.16c-2.445,0-4.729,1.223-6.082,3.259
					c-1.357,2.036-1.604,4.614-0.658,6.87l19.586,46.798l-148.299,14.531l-22.131-78.847c-0.768-2.742-3.612-4.344-6.358-3.572
					c-2.743,0.77-4.342,3.617-3.572,6.359L325.709,392l-98.997,113.876C225.442,507.334,225.097,509.383,225.817,511.178z
					 M241.094,505.054l91.203-104.907l147.141-14.419L348.894,512.711l2.537,2.608L241.094,505.054z"/>
				<g>
					<polygon fill="#D34071" points="325.88,311.993 298.582,315.5 295.507,289.191 					"/>
					<polygon fill="#CC6D92" points="295.507,289.191 273.299,280.881 298.582,315.5 					"/>
					<polygon fill="#DB93B0" points="273.299,280.881 267.281,287.328 298.582,315.5 					"/>
				</g>
				<g>
					<path fill="#C1859D" d="M355.253,538.201c4.273,0,7.736-3.465,7.736-7.736v-61.322c0-4.272-3.463-7.736-7.736-7.736
						s-7.736,3.464-7.736,7.736v61.322C347.517,534.736,350.979,538.201,355.253,538.201z"/>
				</g>
			</g>
			<g>
				<path fill="#D34071" d="M318.001,307.815c1.109,0,1.109,1.72,0,1.72S316.892,307.815,318.001,307.815z"/>
				<polygon fill="#27348B" points="510.615,181.129 472.32,164.587 496.234,192.91 				"/>
				<polygon fill="#6A6ACE" points="496.234,192.91 520.289,199.427 510.615,181.129 				"/>
				<polygon fill="#606096" points="510.615,181.129 527.611,192.193 520.289,199.427 				"/>
				<polygon fill="#606096" points="496.234,192.91 482.191,188.897 485.393,180.072 				"/>
				<polygon fill="#5555AA" points="496.234,192.91 489.213,204.229 482.191,188.897 				"/>
				<polygon fill="#5555AA" points="489.213,204.229 496.234,215.69 494.49,233.359 				"/>
				<polygon fill="#27348B" points="496.234,215.69 509.268,211.226 513.676,197.635 				"/>
				<polygon fill="#606096" points="513.676,197.635 520.289,199.427 509.268,211.226 				"/>
				<polygon fill="#6A6ACE" points="527.611,192.193 560.707,206.664 520.289,199.427 				"/>
				<polygon fill="#27348B" points="482.191,188.897 466.002,191.477 489.213,204.229 				"/>
				<polygon fill="#27348B" points="466.002,191.477 470.496,207.536 478.658,206.832 				"/>
				<polygon fill="#A3A3E5" points="478.658,206.832 481.047,235.176 470.496,207.536 				"/>
				<polygon fill="#27348B" points="496.234,215.69 501.82,233.359 494.49,233.359 				"/>
				<polygon fill="#EAA8A4" points="546.1,204.048 538.865,222.661 547.238,223.284 				"/>
				<polygon fill="#D34071" points="560.707,206.664 484.543,135.606 541.227,178.817 				"/>
				<polygon fill="#CC6D92" points="560.707,206.664 552.725,175.488 541.227,178.817 				"/>
				<polygon fill="#DB93B0" points="552.725,175.488 540.498,163.539 541.227,178.817 				"/>
				<polygon fill="#D3A9BC" points="540.498,163.539 514.779,158.655 541.227,178.817 				"/>
				<polygon fill="#E5BDD1" points="540.498,163.539 484.543,135.606 514.779,158.655 				"/>
				<polygon fill="#E8E5D9" points="484.543,135.606 550.105,158.655 540.498,163.539 				"/>
				<polygon fill="#F2F2F2" points="550.105,158.655 552.725,175.488 540.498,163.539 				"/>
				<polygon fill="#E8E5D9" points="550.105,158.655 560.121,175.488 552.725,175.488 				"/>
				<polygon fill="#F2F2F2" points="560.121,175.488 560.707,206.664 552.725,175.488 				"/>
				<polygon fill="#CC6D92" points="560.707,206.664 527.611,192.193 530.859,178.817 				"/>
				<polygon fill="#DB93B0" points="530.859,178.817 510.615,181.129 527.611,192.193 				"/>
				<polygon fill="#D3A9BC" points="510.615,181.129 484.543,135.606 530.859,178.817 				"/>
				<polygon fill="#976DA0" points="484.543,135.606 484.543,155.803 510.615,181.129 				"/>
				<polygon fill="#944EA0" points="484.543,155.803 472.32,164.587 510.615,181.129 				"/>
				<polygon fill="#5555AA" points="470.496,207.536 457.119,193.483 466.002,191.477 				"/>
				<polygon fill="#8787C6" points="466.002,191.477 447.078,186.791 457.119,193.483 				"/>
				<polygon fill="#A3A3E5" points="447.078,186.791 435.055,194.057 457.119,193.483 				"/>
				<polygon fill="#B2B2D3" points="447.078,186.791 414.568,188.897 435.055,194.057 				"/>
				<polygon fill="#A3A3E5" points="435.055,194.057 416.574,209.673 414.568,188.897 				"/>
				<polygon fill="#8787C6" points="414.568,188.897 391.922,195.313 416.574,209.673 				"/>
				<polygon fill="#8787C6" points="391.922,195.313 390.928,231.594 357.975,206.832 				"/>
				<polygon fill="#8787C6" points="357.975,206.832 348.668,256.945 310.257,231.084 				"/>
				<polygon fill="#6A6ACE" points="391.922,195.313 390.928,231.594 419.498,229.151 				"/>
				<polygon fill="#6A6ACE" points="357.975,206.832 348.668,256.945 390.928,231.594 				"/>
				<polygon fill="#6A6ACE" points="348.668,256.945 288.7,266.239 310.257,231.084 				"/>
				<polygon fill="#6A6ACE" points="348.668,256.945 394.653,275.437 384.694,298.312 				"/>
				<polygon fill="#606096" points="348.668,256.945 295.507,289.191 288.7,266.239 				"/>
				<polygon fill="#606096" points="419.498,229.151 411.74,267.871 390.928,231.594 				"/>
				<polygon fill="#5555AA" points="390.928,231.594 394.653,275.437 348.668,256.945 				"/>
				<polygon fill="#5555AA" points="419.498,229.151 430.475,269.737 411.74,267.871 				"/>
				<polygon fill="#27348B" points="390.928,231.594 394.653,275.437 411.74,267.871 				"/>
				<polygon fill="#27348B" points="419.498,229.151 441.789,245.922 430.475,269.737 				"/>
				<polygon fill="#5555AA" points="348.668,256.945 325.88,311.993 295.507,289.191 				"/>
				<polygon fill="#27348B" points="348.668,256.945 373.448,324.149 325.88,311.993 				"/>
				<polygon fill="#5555AA" points="348.668,256.945 373.448,324.149 384.694,298.312 				"/>
				<polygon fill="#5555AA" points="416.574,209.673 419.498,229.151 391.922,195.313 				"/>
				<polygon fill="#D39590" points="520.289,199.427 538.865,222.661 546.1,204.048 				"/>
				<polygon fill="#D88277" points="520.289,199.427 526.465,227.009 538.865,222.661 				"/>
				<polygon fill="#D39590" points="520.289,199.427 498.205,222.661 526.465,227.009 				"/>
				<polygon fill="#D39590" points="526.465,227.009 538.865,227.009 538.865,222.661 				"/>
				<polygon fill="#EAA8A4" points="526.465,227.009 530.859,235.176 536.064,227.009 				"/>
				<polygon fill="#D39590" points="496.234,192.91 504.953,206.832 513.676,197.635 				"/>
				<polygon fill="#EAA8A4" points="496.234,192.91 496.234,215.69 504.953,206.832 				"/>
				<polygon fill="#D88277" points="526.465,227.009 524.314,242.196 530.859,235.176 				"/>
				<polygon fill="#C17465" points="526.465,227.009 510.318,224.525 524.314,242.196 				"/>
				<polygon fill="#C17465" points="510.318,224.525 501.82,233.359 498.205,222.661 				"/>
				<polygon fill="#D16B50" points="510.318,224.525 501.82,233.359 524.314,242.196 				"/>
				<polygon fill="#D16B50" points="509.268,211.021 496.234,215.69 498.205,222.661 				"/>
				<polygon fill="#D16B50" points="496.234,192.91 489.213,204.229 496.234,215.69 				"/>
				<polygon fill="#D16B50" points="489.213,204.229 481.047,235.176 494.49,233.359 				"/>
				<polygon fill="#BF8F56" points="489.213,204.229 478.658,206.832 466.002,191.477 				"/>
				<polygon fill="#D89032" points="489.213,204.229 481.047,235.176 478.658,206.832 				"/>
				<polygon fill="#F4DBCB" points="457.119,193.483 441.789,245.922 435.055,194.057 				"/>
				<polygon fill="#F2C7A7" points="435.055,194.057 416.574,209.673 439.688,229.745 				"/>
				<polygon fill="#F2C7A7" points="457.119,193.483 441.789,245.922 470.496,207.536 				"/>
				<polygon fill="#EFBB8E" points="439.688,229.745 419.498,229.151 416.574,209.673 				"/>
				<polygon fill="#EFBB8E" points="470.496,207.536 481.047,235.176 441.789,245.922 				"/>
				<polygon fill="#DB9D5A" points="481.047,235.176 483.936,254.375 486.35,234.459 				"/>
				<polygon fill="#EFAC6A" points="481.047,235.176 475.771,256.094 441.789,245.922 				"/>
				<polygon fill="#EFBB8E" points="475.771,256.094 456.143,297.5 441.789,245.922 				"/>
				<polygon fill="#EFAC6A" points="439.688,229.745 419.498,229.151 441.789,245.922 				"/>
				<polygon fill="#D89032" points="481.047,235.176 475.771,256.094 483.936,254.375 				"/>
				<polygon fill="#EFAC6A" points="475.771,256.094 485.201,298.312 456.143,297.5 				"/>
				<polygon fill="#DB9D5A" points="483.936,254.375 480.486,277.203 475.771,256.094 				"/>
				<polygon fill="#DB9D5A" points="480.486,277.203 491.363,291.482 485.201,298.312 				"/>
				<polygon fill="#EFAC6A" points="483.936,254.375 491.363,291.482 480.486,277.203 				"/>
				<polygon fill="#EFAC6A" points="485.201,298.312 483.982,319.021 458.813,308.667 				"/>
				<polygon fill="#D5B92A" points="485.201,298.312 456.143,297.5 458.813,308.667 				"/>
				<polygon fill="#B2A157" points="458.813,308.667 466.971,321.318 483.982,319.021 				"/>
				<polygon fill="#D5B92A" points="485.201,298.312 523.277,301.683 483.982,319.021 				"/>
				<polygon fill="#B2A157" points="523.277,301.683 513.857,318.418 483.982,319.021 				"/>
				<polygon fill="#998B4F" points="523.277,301.683 544.805,317.128 513.857,318.418 				"/>
				<polygon fill="#B2A157" points="523.277,301.683 543.516,299.076 544.805,317.128 				"/>
				<polygon fill="#D5B92A" points="543.516,299.076 561.709,298.312 544.805,317.128 				"/>
				<polygon fill="#F2D144" points="561.709,298.312 575.607,306.956 544.805,317.128 				"/>
				<polygon fill="#DBC775" points="575.607,306.956 585.781,319.021 544.805,317.128 				"/>
				<polygon fill="#D5B92A" points="585.781,319.021 558.041,330.806 544.805,317.128 				"/>
				<polygon fill="#E5D693" points="575.607,306.956 577.176,299.076 561.709,298.312 				"/>
				<polygon fill="#F9DF6E" points="577.176,299.076 590.426,307.72 575.607,306.956 				"/>
				<polygon fill="#E5D693" points="577.176,299.076 586.641,299.076 590.426,307.72 				"/>
				<polygon fill="#E5D693" points="586.641,299.076 598.389,303.083 596.67,305.695 				"/>
				<polygon fill="#E2DABA" points="586.641,299.076 590.426,307.72 596.67,305.695 				"/>
				<polygon fill="#E2DABA" points="586.641,299.076 577.176,295.351 577.176,299.076 				"/>
				<polygon fill="#E8E5D9" points="577.176,295.351 561.709,298.312 577.176,299.076 				"/>
				<polygon fill="#F7F0D2" points="577.176,295.351 553.373,293.297 561.709,298.312 				"/>
				<polygon fill="#E8E5D9" points="561.709,298.312 553.373,293.297 543.516,299.076 				"/>
				<polygon fill="#E8E5D9" points="543.516,299.076 522.014,295.857 523.277,301.683 				"/>
				<polygon fill="#E5D693" points="523.277,301.683 491.363,291.482 485.201,298.312 				"/>
				<polygon fill="#E2DABA" points="523.277,301.683 522.014,295.857 491.363,291.482 				"/>
				<polygon fill="#EFBB8E" points="373.448,324.149 432.621,293.202 394.653,275.437 				"/>
				<polygon fill="#EFAC6A" points="432.621,293.202 401.818,328.655 373.448,324.149 				"/>
				<polygon fill="#D5B92A" points="432.621,293.202 435.055,330.74 401.818,328.655 				"/>
				<polygon fill="#F2D144" points="432.621,293.202 457.775,312.746 435.055,330.74 				"/>
				<polygon fill="#82722E" points="435.055,330.74 415.656,334.78 401.818,328.655 				"/>
				<polygon fill="#DBC775" points="435.055,330.74 457.775,336.185 457.775,312.746 				"/>
				<polygon fill="#F2D144" points="435.055,330.74 441.789,350.083 457.775,336.185 				"/>
				<polygon fill="#D5B92A" points="435.055,330.74 415.656,334.78 441.789,350.083 				"/>
				<polygon fill="#82368C" points="325.88,311.993 322.367,333.126 314.746,313.423 				"/>
				<polygon fill="#944EA0" points="325.88,311.993 373.448,324.149 322.367,333.126 				"/>
				<polygon fill="#82368C" points="373.448,324.149 329.033,346.787 322.367,333.126 				"/>
				<polygon fill="#944EA0" points="373.448,324.149 381.472,334.78 329.033,346.787 				"/>
				<polygon fill="#5555AA" points="373.448,324.149 380.661,325.295 381.472,334.78 				"/>
				<polygon fill="#E2DABA" points="415.656,334.78 397.805,383.036 385.197,347.646 				"/>
				<polygon fill="#F9DF6E" points="415.656,334.78 424.311,369.71 397.805,383.036 				"/>
				<polygon fill="#DBC775" points="415.656,334.78 424.311,369.71 441.789,350.083 				"/>
				<polygon fill="#E8E5D9" points="385.197,347.646 365.283,377.591 397.805,383.036 				"/>
				<polygon fill="#E8E5D9" points="365.283,377.591 368.721,409.541 345.89,398.157 				"/>
				<polygon fill="#E0F2AF" points="345.89,398.157 331.908,410.115 338.899,419.857 				"/>
				<polygon fill="#CEE0A4" points="345.89,398.157 368.721,409.541 338.899,419.857 				"/>
				<polygon fill="#BDE577" points="368.721,409.541 367.861,417.852 338.899,419.857 				"/>
				<polygon fill="#E2DABA" points="365.283,377.591 368.721,409.541 397.805,383.036 				"/>
				<polygon fill="#D5B92A" points="381.472,334.78 342.789,365.34 329.033,346.787 				"/>
				<polygon fill="#DBC775" points="381.472,334.78 385.197,347.646 342.789,365.34 				"/>
				<polygon fill="#D5B92A" points="342.789,365.34 365.283,377.591 385.197,347.646 				"/>
				<polygon fill="#DBC775" points="342.789,365.34 355.356,388.116 365.283,377.591 				"/>
				<polygon fill="#9DC165" points="367.861,417.852 333.763,439.913 338.899,419.857 				"/>
				<polygon fill="#9DC165" points="338.899,419.857 331.908,410.115 316.243,427.083 				"/>
				<polygon fill="#85A665" points="338.899,419.857 333.763,439.913 316.243,427.083 				"/>
				<polygon fill="#85A665" points="367.861,417.852 369.723,446.936 333.763,439.913 				"/>
				<polygon fill="#75C68A" points="369.723,446.936 342.789,457.107 333.763,439.913 				"/>
				<polygon fill="#4DCE78" points="369.723,446.936 363.19,468.429 342.789,457.107 				"/>
				<polygon fill="#5CEA87" points="369.723,446.936 387.649,461.987 363.19,468.429 				"/>
				<polygon fill="#75C68A" points="387.649,461.987 386.486,475.733 363.19,468.429 				"/>
			</g>
			<polygon fill="#606096" points="430.475,269.737 448.068,268.489 441.789,245.922 			"/>
		</g>
	</g>
</g>
</svg>
