<?xml version="1.0" encoding="utf-8"?>
<!-- Generator: Adobe Illustrator 16.0.0, SVG Export Plug-In . SVG Version: 6.00 Build 0)  -->
<!DOCTYPE svg PUBLIC "-//W3C//DTD SVG 1.1//EN" "http://www.w3.org/Graphics/SVG/1.1/DTD/svg11.dtd">
<svg version="1.1" xmlns="http://www.w3.org/2000/svg" xmlns:xlink="http://www.w3.org/1999/xlink" x="0px" y="0px" width="800px"
	 height="800px" viewBox="0 0 800 800" enable-background="new 0 0 800 800" xml:space="preserve">
<g id="back">
	<rect fill="#F2D6E6" width="800" height="800"/>
	<g>
		<path fill="#AA89CE" d="M397.751,753.833h0.699v-0.876c0-0.923,0.113-1.644,0.348-2.188c0.227-0.542,0.626-0.933,1.178-1.182
			c0.552-0.243,1.316-0.365,2.281-0.365c1.711,0,2.563,0.414,2.563,1.259c0,0.268-0.093,0.5-0.27,0.692
			c-0.178,0.189-0.387,0.291-0.631,0.291c-0.113,0-0.313-0.023-0.596-0.07c-0.267-0.037-0.513-0.063-0.703-0.063
			c-0.528,0-0.867,0.159-1.02,0.47c-0.146,0.31-0.223,0.756-0.223,1.337v0.696h0.714c1.118,0,1.675,0.338,1.675,1.012
			c0,0.473-0.146,0.777-0.445,0.907c-0.297,0.13-0.705,0.194-1.229,0.194h-0.714v7.758c0,0.575-0.135,1.019-0.416,1.317
			c-0.274,0.309-0.627,0.459-1.067,0.459c-0.411,0-0.757-0.15-1.034-0.459c-0.273-0.299-0.41-0.742-0.41-1.317v-7.758h-0.808
			c-0.437,0-0.772-0.095-1.009-0.295c-0.234-0.194-0.353-0.449-0.353-0.765C396.281,754.182,396.771,753.833,397.751,753.833"/>
		<path fill="#AA89CE" d="M407.336,761.257v2.447c0,0.592-0.146,1.039-0.423,1.33c-0.28,0.303-0.63,0.446-1.057,0.446
			c-0.432,0-0.777-0.146-1.047-0.452c-0.271-0.297-0.408-0.74-0.408-1.324v-8.157c0-1.316,0.476-1.974,1.424-1.974
			c0.489,0,0.838,0.155,1.058,0.463c0.211,0.309,0.332,0.762,0.355,1.368c0.348-0.606,0.705-1.06,1.071-1.368
			c0.373-0.308,0.86-0.463,1.478-0.463c0.619,0,1.211,0.155,1.79,0.463c0.577,0.309,0.87,0.715,0.87,1.222
			c0,0.359-0.123,0.657-0.371,0.888c-0.248,0.233-0.508,0.348-0.796,0.348c-0.111,0-0.371-0.064-0.782-0.201
			c-0.412-0.13-0.773-0.193-1.087-0.193c-0.427,0-0.779,0.116-1.048,0.335c-0.273,0.229-0.487,0.562-0.636,0.999
			c-0.151,0.445-0.253,0.976-0.309,1.586C407.361,759.633,407.336,760.378,407.336,761.257"/>
		<path fill="#AA89CE" d="M420.793,760.251h-5.729c0.008,0.661,0.14,1.249,0.404,1.757c0.26,0.507,0.605,0.888,1.039,1.147
			c0.438,0.256,0.911,0.386,1.434,0.386c0.35,0,0.668-0.04,0.957-0.128c0.293-0.078,0.575-0.207,0.844-0.383
			c0.271-0.175,0.52-0.36,0.75-0.563c0.229-0.2,0.526-0.473,0.891-0.816c0.152-0.125,0.366-0.193,0.645-0.193
			c0.299,0,0.54,0.082,0.73,0.247c0.188,0.169,0.276,0.396,0.276,0.697c0,0.268-0.101,0.573-0.305,0.927
			c-0.211,0.36-0.523,0.697-0.945,1.022c-0.416,0.322-0.944,0.599-1.577,0.807c-0.631,0.217-1.359,0.322-2.18,0.322
			c-1.881,0-3.343-0.53-4.384-1.604c-1.048-1.076-1.57-2.533-1.57-4.367c0-0.867,0.13-1.671,0.388-2.41
			c0.255-0.744,0.633-1.372,1.129-1.904c0.492-0.529,1.098-0.938,1.818-1.217c0.724-0.283,1.52-0.422,2.402-0.422
			c1.146,0,2.127,0.238,2.943,0.727c0.821,0.479,1.44,1.104,1.842,1.867c0.405,0.77,0.612,1.547,0.612,2.343
			c0,0.73-0.214,1.212-0.634,1.43C422.152,760.14,421.557,760.251,420.793,760.251 M415.064,758.583h5.309
			c-0.068-0.999-0.34-1.747-0.807-2.244c-0.469-0.495-1.085-0.742-1.853-0.742c-0.724,0-1.327,0.247-1.796,0.756
			C415.45,756.854,415.165,757.599,415.064,758.583"/>
		<path fill="#AA89CE" d="M432.969,760.251h-5.726c0.007,0.661,0.142,1.249,0.401,1.757c0.262,0.507,0.609,0.888,1.041,1.147
			c0.429,0.256,0.911,0.386,1.431,0.386c0.349,0,0.673-0.04,0.958-0.128c0.292-0.078,0.57-0.207,0.849-0.383
			c0.267-0.175,0.518-0.36,0.749-0.563c0.226-0.2,0.522-0.473,0.887-0.816c0.152-0.125,0.368-0.193,0.642-0.193
			c0.304,0,0.548,0.082,0.735,0.247c0.184,0.169,0.273,0.396,0.273,0.697c0,0.268-0.1,0.573-0.311,0.927
			c-0.201,0.36-0.515,0.697-0.939,1.022c-0.415,0.322-0.946,0.599-1.577,0.807c-0.63,0.217-1.358,0.322-2.182,0.322
			c-1.879,0-3.342-0.53-4.386-1.604c-1.044-1.076-1.567-2.533-1.567-4.367c0-0.867,0.13-1.671,0.39-2.41
			c0.26-0.744,0.631-1.372,1.124-1.904c0.494-0.529,1.102-0.938,1.823-1.217c0.722-0.283,1.523-0.422,2.402-0.422
			c1.142,0,2.125,0.238,2.95,0.727c0.814,0.479,1.431,1.104,1.835,1.867c0.405,0.77,0.611,1.547,0.611,2.343
			c0,0.73-0.213,1.212-0.633,1.43C434.328,760.14,433.732,760.251,432.969,760.251 M427.243,758.583h5.311
			c-0.069-0.999-0.348-1.747-0.812-2.244c-0.469-0.495-1.085-0.742-1.853-0.742c-0.729,0-1.325,0.247-1.796,0.756
			C427.623,756.854,427.343,757.599,427.243,758.583"/>
		<path fill="#AA89CE" d="M439.384,755.224v0.349c0.548-0.679,1.125-1.18,1.719-1.493c0.591-0.322,1.266-0.482,2.013-0.482
			c0.9,0,1.732,0.233,2.493,0.696c0.759,0.469,1.354,1.148,1.793,2.041c0.442,0.896,0.663,1.952,0.663,3.175
			c0,0.898-0.128,1.73-0.381,2.484c-0.25,0.753-0.603,1.384-1.046,1.897c-0.442,0.506-0.969,0.903-1.569,1.181
			c-0.61,0.271-1.255,0.409-1.953,0.409c-0.835,0-1.537-0.168-2.108-0.502c-0.567-0.334-1.105-0.833-1.623-1.478v4.396
			c0,1.285-0.471,1.932-1.403,1.932c-0.554,0-0.913-0.167-1.097-0.496c-0.172-0.339-0.265-0.818-0.265-1.46v-12.636
			c0-0.557,0.118-0.97,0.359-1.25c0.246-0.271,0.582-0.414,1.002-0.414c0.413,0,0.754,0.143,1.012,0.423
			C439.256,754.282,439.384,754.687,439.384,755.224 M445.121,759.478c0-0.775-0.115-1.438-0.353-1.991
			c-0.233-0.557-0.563-0.978-0.976-1.271c-0.418-0.3-0.887-0.45-1.395-0.45c-0.805,0-1.488,0.318-2.043,0.952
			c-0.557,0.642-0.828,1.574-0.828,2.813c0,1.161,0.271,2.071,0.823,2.718c0.553,0.647,1.229,0.97,2.048,0.97
			c0.485,0,0.939-0.143,1.353-0.422c0.415-0.281,0.749-0.703,0.999-1.27C445.001,760.96,445.121,760.274,445.121,759.478"/>
		<path fill="#AA89CE" d="M451.012,752.212c-0.408,0-0.751-0.129-1.041-0.376c-0.292-0.254-0.44-0.603-0.44-1.058
			c0-0.415,0.15-0.758,0.447-1.026c0.3-0.267,0.643-0.403,1.034-0.403c0.381,0,0.717,0.123,1.012,0.359
			c0.292,0.247,0.44,0.604,0.44,1.07c0,0.447-0.146,0.803-0.432,1.055C451.747,752.083,451.406,752.212,451.012,752.212
			 M452.464,755.237v8.467c0,0.584-0.142,1.027-0.42,1.324c-0.283,0.307-0.633,0.452-1.064,0.452c-0.429,0-0.774-0.15-1.041-0.459
			c-0.271-0.311-0.408-0.749-0.408-1.317v-8.383c0-0.578,0.137-1.015,0.408-1.305c0.267-0.298,0.612-0.443,1.041-0.443
			c0.432,0,0.781,0.146,1.064,0.443C452.322,754.307,452.464,754.719,452.464,755.237"/>
		<path fill="#AA89CE" d="M461.9,764.146l-2.581-4.254l-1.589,1.502v2.332c0,0.563-0.15,0.997-0.45,1.296
			c-0.287,0.309-0.635,0.458-1.02,0.458c-0.45,0-0.808-0.145-1.063-0.451c-0.258-0.297-0.388-0.74-0.388-1.324v-12.491
			c0-0.646,0.126-1.142,0.376-1.483c0.248-0.344,0.61-0.508,1.074-0.508c0.449,0,0.807,0.152,1.068,0.463
			c0.271,0.305,0.401,0.759,0.401,1.354v7.109l3.293-3.459c0.408-0.424,0.715-0.723,0.935-0.879
			c0.212-0.154,0.474-0.238,0.779-0.238c0.367,0,0.671,0.119,0.919,0.352c0.238,0.233,0.359,0.524,0.359,0.875
			c0,0.426-0.396,1.003-1.192,1.716l-1.551,1.425l3.003,4.724c0.218,0.354,0.378,0.613,0.476,0.795
			c0.1,0.183,0.146,0.364,0.146,0.522c0,0.468-0.125,0.828-0.38,1.104c-0.255,0.265-0.592,0.396-1.002,0.396
			c-0.359,0-0.636-0.09-0.833-0.289C462.494,764.996,462.228,764.647,461.9,764.146"/>
		<path fill="#AA89CE" d="M468.262,765.48c-0.44,0-0.823-0.144-1.146-0.43c-0.32-0.281-0.484-0.684-0.484-1.2
			c0-0.438,0.157-0.813,0.464-1.126c0.309-0.313,0.687-0.472,1.136-0.472c0.452,0,0.831,0.158,1.157,0.466
			c0.315,0.312,0.479,0.692,0.479,1.132c0,0.51-0.163,0.91-0.479,1.196C469.063,765.337,468.688,765.48,468.262,765.48"/>
		<path fill="#AA89CE" d="M482.821,761.856c0,0.362-0.108,0.753-0.327,1.17c-0.22,0.416-0.549,0.811-0.997,1.186
			c-0.447,0.373-1.006,0.678-1.69,0.903c-0.68,0.231-1.444,0.349-2.291,0.349c-1.812,0-3.227-0.53-4.242-1.582
			c-1.014-1.055-1.519-2.474-1.519-4.245c0-1.205,0.229-2.263,0.698-3.188c0.456-0.919,1.131-1.631,2.013-2.139
			c0.877-0.504,1.934-0.754,3.149-0.754c0.761,0,1.459,0.109,2.092,0.332c0.636,0.22,1.166,0.51,1.609,0.855
			c0.437,0.355,0.772,0.725,1.004,1.121c0.234,0.397,0.351,0.769,0.351,1.114c0,0.349-0.13,0.646-0.392,0.886
			c-0.263,0.247-0.578,0.368-0.949,0.368c-0.245,0-0.445-0.063-0.605-0.188c-0.164-0.123-0.343-0.326-0.542-0.611
			c-0.355-0.539-0.73-0.948-1.123-1.216c-0.387-0.276-0.886-0.41-1.486-0.41c-0.858,0-1.556,0.339-2.09,1.012
			c-0.528,0.677-0.793,1.603-0.793,2.771c0,0.554,0.069,1.063,0.207,1.522c0.132,0.457,0.324,0.854,0.586,1.178
			c0.26,0.326,0.568,0.568,0.933,0.74c0.366,0.172,0.768,0.254,1.199,0.254c0.594,0,1.09-0.137,1.51-0.408
			c0.427-0.269,0.793-0.684,1.113-1.245c0.179-0.326,0.371-0.581,0.572-0.766c0.211-0.19,0.469-0.286,0.766-0.286
			c0.362,0,0.656,0.138,0.891,0.409C482.706,761.26,482.821,761.552,482.821,761.856"/>
		<path fill="#AA89CE" d="M495.459,759.53c0,0.871-0.14,1.676-0.404,2.415c-0.278,0.737-0.667,1.369-1.187,1.895
			c-0.509,0.528-1.13,0.935-1.842,1.219c-0.722,0.278-1.521,0.422-2.414,0.422c-0.886,0-1.682-0.144-2.394-0.43
			c-0.705-0.281-1.324-0.692-1.837-1.222c-0.52-0.537-0.914-1.167-1.188-1.896c-0.26-0.725-0.396-1.526-0.396-2.403
			c0-0.889,0.142-1.699,0.408-2.437c0.27-0.739,0.663-1.367,1.174-1.886c0.508-0.524,1.12-0.926,1.839-1.212
			c0.726-0.28,1.523-0.423,2.394-0.423c0.888,0,1.692,0.143,2.414,0.432c0.722,0.283,1.338,0.693,1.855,1.219
			c0.517,0.531,0.906,1.162,1.176,1.887C495.322,757.846,495.459,758.647,495.459,759.53 M492.518,759.53
			c0-1.195-0.264-2.121-0.788-2.791c-0.524-0.666-1.229-0.999-2.117-0.999c-0.573,0-1.076,0.15-1.515,0.446
			c-0.436,0.297-0.77,0.732-1.007,1.313c-0.233,0.582-0.356,1.256-0.356,2.031c0,0.765,0.115,1.431,0.345,2.001
			c0.239,0.579,0.571,1.016,1.007,1.318c0.434,0.298,0.941,0.457,1.526,0.457c0.888,0,1.593-0.339,2.117-1.008
			C492.254,761.631,492.518,760.706,492.518,759.53"/>
		<path fill="#AA89CE" d="M506.625,759.747v3.889c0,0.619-0.137,1.072-0.417,1.386c-0.28,0.309-0.647,0.459-1.106,0.459
			c-0.44,0-0.807-0.15-1.073-0.459c-0.276-0.313-0.42-0.767-0.42-1.386v-4.662c0-0.74-0.023-1.311-0.069-1.721
			c-0.054-0.402-0.19-0.742-0.411-1c-0.218-0.262-0.575-0.394-1.051-0.394c-0.96,0-1.586,0.327-1.892,0.991
			c-0.302,0.652-0.457,1.596-0.457,2.83v3.955c0,0.61-0.14,1.068-0.413,1.381c-0.276,0.309-0.638,0.464-1.09,0.464
			c-0.445,0-0.808-0.155-1.086-0.464c-0.282-0.313-0.431-0.771-0.431-1.381v-8.378c0-0.548,0.13-0.97,0.385-1.253
			c0.255-0.289,0.589-0.432,1.004-0.432c0.401,0,0.733,0.141,1.005,0.404c0.267,0.27,0.4,0.636,0.4,1.112v0.273
			c0.511-0.602,1.051-1.052,1.633-1.335c0.58-0.288,1.22-0.432,1.928-0.432c0.737,0,1.373,0.146,1.899,0.439
			c0.531,0.294,0.965,0.737,1.31,1.327c0.492-0.596,1.023-1.042,1.587-1.335c0.57-0.288,1.189-0.432,1.878-0.432
			c0.801,0,1.494,0.159,2.071,0.471c0.58,0.317,1.009,0.771,1.292,1.351c0.255,0.534,0.378,1.366,0.378,2.505v5.713
			c0,0.619-0.139,1.072-0.415,1.386c-0.28,0.309-0.645,0.459-1.106,0.459c-0.44,0-0.807-0.155-1.09-0.464
			c-0.283-0.313-0.42-0.771-0.42-1.381v-4.926c0-0.629-0.027-1.129-0.083-1.509c-0.049-0.378-0.2-0.698-0.434-0.955
			c-0.239-0.255-0.599-0.387-1.074-0.387c-0.388,0-0.749,0.115-1.1,0.345c-0.346,0.227-0.616,0.535-0.812,0.92
			C506.734,757.613,506.625,758.492,506.625,759.747"/>
		<path fill-rule="evenodd" clip-rule="evenodd" fill="#AA89CE" d="M377.474,766.506c0,0-1.6-0.253-3.157-1.961
			c-1.569-1.718-1.835-3.542-1.835-3.542s1.99,0.472,3.424,0.628c2.521,0.286,4.791,0.126,5.861,0.012
			c2.32-0.257,3.552-0.683,4.053-0.809c2.962-0.707,5.807-2.626,5.807-2.626s0.36,2.225-1.314,4.695
			c-0.651,0.962-1.947,2.068-3.447,2.831C381.742,767.918,377.474,766.506,377.474,766.506"/>
		<path fill-rule="evenodd" clip-rule="evenodd" fill="#AA89CE" d="M389.582,753.864c-0.553-0.668-2.388-3.813-6.101-4.263
			c-0.951-0.116-5.967,0.077-8.977,2.867c-0.303,0.28-1.828,1.625-2.338,4.12c-0.393,1.932,0.255,4.111,0.255,4.111
			s3.337,0.693,5.854,0.631c3.99-0.102,5.996-0.453,8.084-1.084c3.072-0.934,5.246-2.491,5.246-2.491
			S390.134,754.535,389.582,753.864 M378.066,758.647c-1.687,0.112-3.143-1.161-3.245-2.841c-0.105-1.674,1.179-3.126,2.865-3.229
			c1.688-0.117,3.145,1.163,3.244,2.836C381.04,757.094,379.753,758.542,378.066,758.647 M386.687,756.482
			c-1.063,0.063-1.98-0.735-2.045-1.794c-0.065-1.051,0.744-1.965,1.805-2.033c1.059-0.069,1.98,0.74,2.043,1.789
			C388.556,755.504,387.744,756.415,386.687,756.482"/>
		<path fill-rule="evenodd" clip-rule="evenodd" fill="#AA89CE" d="M388.136,751.69l0.97-1.166c0,0,1.339,0.66,2.198,1.902
			c0.858,1.234,1.415,2.367,1.415,2.367l-1.598,0.975c0,0-0.499-1.193-1.241-2.154C389.141,752.66,388.136,751.69,388.136,751.69"/>
		<path fill-rule="evenodd" clip-rule="evenodd" fill="#AA89CE" d="M391.181,752.498c0.249-0.15,0.674-0.169,0.65-0.528
			c-0.02-0.351-0.258-1.05,0.436-1.287c0.705-0.239,0.309,0.208,0.07,0.515c-0.244,0.31-0.163,0.493-0.135,0.949
			c0.025,0.446-0.29,0.595-0.768,0.817C390.961,753.191,390.931,752.648,391.181,752.498"/>
		<path fill-rule="evenodd" clip-rule="evenodd" fill="#AA89CE" d="M373.394,753.212c0,0-1.123,1.307-1.408,2.484
			c-0.283,1.184-0.225,2.606-0.225,2.606l-1.665-0.573c0,0-0.093-1.635,0.661-2.956c0.844-1.465,1.919-2.125,1.919-2.125
			L373.394,753.212z"/>
		<path fill-rule="evenodd" clip-rule="evenodd" fill="#AA89CE" d="M370.949,754.698c-0.271-0.178-0.298-0.6-0.511-0.875
			c-0.213-0.279-0.267-0.109-0.754-0.109c-0.486-0.004-0.503-0.23-0.643-0.348c-0.137-0.121-0.201,0.364-0.201,0.364
			s0.09,0.417,0.615,0.446c0.517,0.033,0.503-0.224,0.73,0.245c0.221,0.472,0.668,0.831,0.668,0.831S371.22,754.873,370.949,754.698
			"/>
		<path fill-rule="evenodd" clip-rule="evenodd" fill="#AA89CE" d="M379.771,748.507c2.726-0.684,4.432,0.104,4.432,0.104
			l-0.146,0.784c0,0-1.994-0.133-3.573,0.103c-1.577,0.227-2.297,0.723-2.297,0.723l-0.343-0.784
			C377.844,749.437,378.591,748.802,379.771,748.507"/>
		
			<rect x="380.828" y="747.27" transform="matrix(-0.9365 0.3506 -0.3506 -0.9365 1000.1225 1314.9268)" fill-rule="evenodd" clip-rule="evenodd" fill="#AA89CE" width="0.407" height="1.454"/>
		<path fill-rule="evenodd" clip-rule="evenodd" fill="#AA89CE" d="M392.597,749.91c0.389-0.021,0.716,0.271,0.736,0.656
			c0.028,0.384-0.264,0.711-0.648,0.735c-0.385,0.028-0.715-0.269-0.74-0.649C391.921,750.27,392.211,749.946,392.597,749.91"/>
		<path fill-rule="evenodd" clip-rule="evenodd" fill="#AA89CE" d="M368.651,752.547c0.387-0.021,0.716,0.268,0.739,0.651
			c0.021,0.382-0.267,0.709-0.654,0.734c-0.384,0.027-0.712-0.265-0.741-0.648C367.975,752.903,368.269,752.577,368.651,752.547"/>
		<path fill-rule="evenodd" clip-rule="evenodd" fill="#AA89CE" d="M380.921,745.65c0.613-0.039,1.139,0.421,1.176,1.033
			c0.039,0.606-0.426,1.132-1.041,1.171c-0.614,0.045-1.137-0.422-1.18-1.033C379.839,746.214,380.306,745.685,380.921,745.65"/>
		<path fill="#AA89CE" d="M293.813,763.869c0,0.688-0.432,1.139-1.029,1.139c-0.563,0-0.895-0.31-1.018-0.857
			c-0.389,0.629-1.179,0.938-1.877,0.938c-2.062,0-3.367-1.912-3.367-3.847c0-1.994,1.094-4.053,3.295-4.053
			c0.711,0,1.406,0.243,1.949,0.716v-2.791c0-0.678,0.423-1.132,1.018-1.132c0.598,0,1.029,0.454,1.029,1.132V763.869z
			 M290.159,759.065c-1.066,0-1.592,1.121-1.592,2.09c0,0.955,0.525,2.063,1.592,2.063c1.12,0,1.607-1.139,1.607-2.133
			C291.767,760.089,291.253,759.065,290.159,759.065"/>
		<path fill="#AA89CE" d="M296.621,761.821c0.146,1.009,0.981,1.48,1.938,1.48c1.047,0,1.772-0.824,2.314-0.824
			c0.439,0,0.836,0.439,0.836,0.884c0,0.881-1.82,1.728-3.339,1.728c-2.301,0-3.839-1.676-3.839-3.932
			c0-2.075,1.51-3.968,3.667-3.968c2.218,0,3.685,2.022,3.685,3.724c0,0.613-0.273,0.908-0.896,0.908H296.621z M299.837,760.46
			c-0.113-0.898-0.682-1.56-1.638-1.56c-0.907,0-1.521,0.689-1.617,1.56H299.837z"/>
		<path fill="#AA89CE" d="M306.913,759.578c-0.386,0-1.167-0.597-1.836-0.597c-0.365,0-0.697,0.17-0.697,0.568
			c0,0.949,3.555,0.812,3.555,3.145c0,1.36-1.15,2.395-2.914,2.395c-1.15,0-2.855-0.65-2.855-1.572c0-0.314,0.313-0.909,0.881-0.909
			c0.794,0,1.15,0.694,2.117,0.694c0.625,0,0.812-0.197,0.812-0.583c0-0.937-3.554-0.794-3.554-3.141
			c0-1.418,1.152-2.389,2.769-2.389c1.01,0,2.56,0.474,2.56,1.482C307.749,759.137,307.394,759.578,306.913,759.578"/>
		<path fill="#AA89CE" d="M310.804,755.329c0,0.645-0.509,1.18-1.151,1.18c-0.61,0-1.149-0.553-1.149-1.18
			c0-0.582,0.539-1.119,1.149-1.119C310.264,754.21,310.804,754.73,310.804,755.329 M308.631,758.415
			c0-0.684,0.425-1.137,1.021-1.137s1.025,0.453,1.025,1.137v5.454c0,0.688-0.429,1.139-1.025,1.139s-1.021-0.451-1.021-1.139
			V758.415z"/>
		<path fill="#AA89CE" d="M318.806,764.327c0,2.455-1.607,3.696-3.938,3.696c-0.838,0-3.227-0.415-3.227-1.54
			c0-0.381,0.426-0.895,0.825-0.895c0.655,0,1.38,0.637,2.556,0.637c0.995,0,1.737-0.576,1.737-1.618v-0.479h-0.03
			c-0.424,0.621-1.123,0.96-2.059,0.96c-2.146,0-3.16-1.887-3.16-3.916c0-2.065,1.311-3.983,3.373-3.983
			c0.695,0,1.49,0.313,1.876,0.938c0.128-0.54,0.452-0.849,1.021-0.849c0.597,0,1.024,0.453,1.024,1.137V764.327z M315.149,759.065
			c-1.062,0-1.588,1.11-1.588,2.064c0,1.092,0.526,2.088,1.588,2.088c1.096,0,1.61-1.021,1.61-2.025
			C316.76,760.206,316.274,759.065,315.149,759.065"/>
		<path fill="#AA89CE" d="M319.967,758.415c0-0.684,0.427-1.137,1.025-1.137c0.526,0,0.866,0.281,0.935,0.756
			c0.403-0.56,1.014-0.845,1.977-0.845c1.607,0,2.801,1.025,2.801,2.757v3.923c0,0.688-0.424,1.139-1.021,1.139
			c-0.599,0-1.027-0.451-1.027-1.139v-3.567c0-0.949-0.594-1.401-1.336-1.401c-0.833,0-1.304,0.608-1.304,1.401v3.567
			c0,0.688-0.429,1.139-1.024,1.139c-0.599,0-1.025-0.451-1.025-1.139V758.415z"/>
		<path fill="#AA89CE" d="M329.517,761.821c0.143,1.009,0.981,1.48,1.933,1.48c1.05,0,1.775-0.824,2.317-0.824
			c0.438,0,0.84,0.439,0.84,0.884c0,0.881-1.821,1.728-3.342,1.728c-2.303,0-3.837-1.676-3.837-3.932
			c0-2.075,1.505-3.968,3.668-3.968c2.216,0,3.677,2.022,3.677,3.724c0,0.613-0.268,0.908-0.892,0.908H329.517z M332.729,760.46
			c-0.116-0.898-0.682-1.56-1.634-1.56c-0.911,0-1.522,0.689-1.62,1.56H332.729z"/>
		<path fill="#AA89CE" d="M342.491,763.869c0,0.688-0.428,1.139-1.024,1.139c-0.569,0-0.896-0.31-1.021-0.857
			c-0.387,0.629-1.18,0.938-1.88,0.938c-2.058,0-3.362-1.912-3.362-3.847c0-1.994,1.091-4.053,3.295-4.053
			c0.709,0,1.403,0.243,1.947,0.716v-2.791c0-0.678,0.424-1.132,1.021-1.132s1.024,0.454,1.024,1.132V763.869z M338.841,759.065
			c-1.064,0-1.592,1.121-1.592,2.09c0,0.955,0.527,2.063,1.592,2.063c1.119,0,1.605-1.139,1.605-2.133
			C340.446,760.089,339.935,759.065,338.841,759.065"/>
		<path fill="#AA89CE" d="M347.463,755.114c0-0.678,0.429-1.132,1.027-1.132c0.594,0,1.019,0.454,1.019,1.132v2.791
			c0.545-0.473,1.236-0.716,1.947-0.716c2.203,0,3.296,2.059,3.296,4.053c0,1.935-1.306,3.847-3.367,3.847
			c-0.696,0-1.491-0.31-1.876-0.938c-0.128,0.548-0.453,0.857-1.019,0.857c-0.599,0-1.027-0.451-1.027-1.142V755.114z
			 M351.116,763.218c1.064,0,1.592-1.107,1.592-2.061c0-0.971-0.527-2.092-1.592-2.092c-1.097,0-1.607,1.023-1.607,2.02
			C349.509,762.079,349.995,763.218,351.116,763.218"/>
		<path fill="#AA89CE" d="M355.108,758.681c-0.059-0.151-0.102-0.314-0.102-0.521c0-0.515,0.543-0.881,0.967-0.881
			c0.497,0,0.854,0.272,1.025,0.722l1.403,3.853l1.507-3.853c0.17-0.449,0.527-0.722,1.023-0.722c0.43,0,0.967,0.366,0.967,0.881
			c0,0.206-0.027,0.369-0.098,0.521l-3.425,8.53c-0.173,0.425-0.485,0.813-0.968,0.813c-0.693,0-1.067-0.447-1.067-0.883
			c0-0.205,0.06-0.416,0.129-0.602l0.897-2.211L355.108,758.681z"/>
	</g>
	<path fill="#72A1B2" d="M657.854,423.438l20.627,3.994l-33.419-45.607l0,0l24.111-1.334l-39.06-47.294l-66.896-50.099l8.757,6.506
		l58.139,43.593l35.218,4.298l-37.948-83.847l4.005-7.442c-0.801,2.08-1.568,4.175-2.285,6.291
		c-0.307,0.904,1.121,1.289,1.426,0.393c2.415-7.123,5.367-14.021,8.484-20.852l17.033-31.652l-39.487-27.39l19.233-28.269
		l-62.316-5.192l11.013-21.12l-74.394,26.367l43.697-46.883l-31.875,3.217l7.953-29.374l-63.396,31.767l3.961-40.49l-11.997,19.443
		H419.4l11.383,44.82l-0.059-0.227L414.68,63.872l-14.679,46.414l0.026,38.964v48.521v34.726v20.141v19.513v22.166v36.942v28.23
		v23.514v23.869v22.967v9.666v34.9v13.742l9.701-19.285l0,0l0,0l0.272-0.542l11.33-12.684l-11.603,13.226l-9.701,19.285v11.329
		v16.465v66.986v31.993v67.798l33.905-67.198l65.119,65.102l10.268-18.164l14.074,20.456l11.091-64.976l30.834,27.313l9.796-47.207
		l-26.488-39.311l49.665,30.642l3.965-45.6l30.664,20.986l-29.506-74.763l47.065,35.143l-20.33-70.684l41.83,52.137L657.854,423.438
		z M511.351,394.802l-13.035,34.407l-18.676,49.296L511.351,394.802l74.838-38.82l-12.058,6.255L511.351,394.802z M451.497,520.34
		L451.497,520.34l12.752-3.319L451.497,520.34z M456.905,352.89L456.905,352.89l-8.482-1.68L456.905,352.89z M458.439,305.358h0.121
		c-0.078,0.054-0.154,0.114-0.232,0.17L458.439,305.358z M459.283,353.361C459.284,353.361,459.284,353.361,459.283,353.361
		l30.924,6.127L459.283,353.361z M458.152,352.368L458.152,352.368c-0.002-0.005-0.004-0.019-0.007-0.024L458.152,352.368z
		 M491.831,319.561l8.035,3.214l14.401,5.763L491.831,319.561z M443.444,345.443l7.54-17.525c0,0,0.014-0.006,0.036-0.016
		l5.4,18.523c-0.001,0.012-0.001,0.023-0.001,0.033l-5.436-18.541l-16.146,37.53L443.444,345.443z M433.604,446.15
		c-0.119,0.098-0.23,0.185-0.328,0.25L433.604,446.15z"/>
	<path fill="#72A1B2" d="M380.601,82.461h-39.038l27.654,44.82l8.096-31.874l-8.036,31.647l-0.06,0.227l-39.652-64.264l3.961,40.49
		l-63.395-31.767l7.953,29.374l-31.876-3.217l43.698,46.883l-74.394-26.367l11.013,21.12l-62.316,5.192l19.233,28.269
		l-10.824,80.652l-37.949,83.847l35.218-4.298l58.138-43.593l8.94-6.642l-67.078,50.234l50.163,26.021l-21.806-11.311l-28.357-14.71
		l14.602,33.672l19.277,44.456l-33.879-78.128l-27.739,90.241l-14.126,83.156l41.83-52.137l-20.329,70.684l47.065-35.143
		l-29.506,74.763l30.664-20.986l3.965,45.6l49.665-30.642l-26.488,39.311l9.796,47.207l30.834-27.313l11.091,64.976l14.074-20.456
		l10.268,18.164l65.119-65.102l33.905,67.198V614.92v-31.993V515.94v-16.465v-11.329l-9.702-19.285l-11.602-13.226l11.33,12.684
		l0.271,0.54c0,0.001,0,0.001,0,0.002l0.002,0.001l9.7,19.284v-13.742v-34.9v-9.666v-22.967v-23.869v-23.514v-28.23v-36.942v-22.166
		v-19.513v-20.141v-34.726V149.25l0.026-38.964l-14.68-46.414L380.601,82.461z M365.164,365.448l-16.147-37.53l-5.435,18.54
		c0-0.011-0.001-0.022-0.002-0.033l5.4-18.522c0.022,0.01,0.036,0.016,0.036,0.016l7.541,17.525L365.164,365.448z M348.505,520.34
		L348.505,520.34l-12.752-3.319L348.505,520.34z M341.85,352.369c0-0.001-0.001-0.002-0.001-0.002l0.015-0.053
		c-0.003,0.011-0.006,0.031-0.01,0.04L341.85,352.369z M341.674,305.528c-0.078-0.056-0.154-0.116-0.232-0.17h0.121L341.674,305.528
		z M300.135,322.774l8.035-3.214l-22.436,8.977L300.135,322.774z M343.096,352.891L343.096,352.891l8.483-1.681L343.096,352.891z
		 M366.727,446.4c-0.098-0.065-0.21-0.152-0.328-0.25L366.727,446.4z M214.811,206.632l100.807,17.901l-58.59-10.404
		L214.811,206.632z M300.135,375.621l9.66-16.133l30.922-6.128c0,0.001,0,0.001,0,0.001l-30.922,6.127l-21.144,35.313l31.709,83.703
		l-18.675-49.296l-13.034-34.407L300.135,375.621z"/>
</g>
<g id="draw">
	<path fill="#72A1B2" d="M183.442,172.995l-39.487,27.39l17.033,31.65c3.116,6.83,6.069,13.729,8.484,20.854
		c0.305,0.896,1.732,0.512,1.425-0.393c-0.718-2.117-1.485-4.214-2.287-6.296l4.008,7.447l6.144-45.783L183.442,172.995z"/>
	<polygon fill="#72A1B2" points="121.52,427.432 142.147,423.438 154.938,381.824 	"/>
	<polygon fill="#72A1B2" points="130.828,380.49 154.938,381.824 169.887,333.196 	"/>
	<polygon fill="#72A1B2" points="366.069,694.294 389.107,661.183 366.069,615.52 336.734,644.847 	"/>
	<polygon fill="#72A1B2" points="433.933,694.294 463.267,644.847 433.933,615.52 410.895,661.183 	"/>
	<path fill="#4EDDA6" d="M261.805,537.158c-0.951,0-0.951,1.479,0,1.479C262.758,538.637,262.758,537.158,261.805,537.158z"/>
	<path fill="#4EDDA6" d="M170.897,252.496c-5.379-15.871-13.397-30.636-20.024-45.988c-0.376-0.872-1.649-0.117-1.275,0.747
		c6.576,15.232,14.536,29.885,19.875,45.634C169.777,253.785,171.205,253.4,170.897,252.496z"/>
	<path fill="#4EDDA6" d="M395.543,524.353c-0.952,0-0.952,1.478,0,1.478C396.498,525.83,396.498,524.353,395.543,524.353z"/>
	<polygon fill="#3F3956" points="348.505,519.795 348.505,530.878 361.967,526.468 386.675,517.763 399.975,515.94 399.975,499.476 
		374.362,517.763 359.892,523.304 	"/>
	<path d="M344.718,328.969c-0.147-0.939-1.573-0.539-1.426,0.394c0.011,0.062,0.015,0.124,0.023,0.186
		c-3.243,3.179-6.041,6.986-9.841,9.521c-0.056-3.49-2.123-7.434-3.609-10.461c-0.079-0.161-0.193-0.25-0.316-0.309
		c0.057-0.408-0.164-0.841-0.691-0.796c-4.453,0.376-8.788,2.571-12.711,4.779c1.211-5.21-0.466-10.649,1.049-15.851
		c0.268-0.918-1.16-1.307-1.426-0.394c-1.633,5.61,0.438,11.516-1.387,17.067c-0.088-0.037-0.186-0.062-0.302-0.062
		c-0.954,0-0.954,1.479,0,1.479c0.204,0,0.358-0.071,0.472-0.179c0.209,0.184,0.51,0.259,0.825,0.077
		c3.975-2.276,8.489-4.899,13.132-5.4c0.002,0.107,0.024,0.219,0.08,0.333c1.404,2.863,3.488,6.799,3.409,10.081
		c-0.269,0.189-0.42,0.56-0.311,0.886c-0.226,0.542,0.374,1.294,1.05,0.937c1.785,1.517,2.662,3.804,3.794,5.83
		c1.364,2.442,3.448,4.408,4.543,7.027c0.36,0.86,1.771,0.49,1.432-0.374c1.599-1.115,1.019-7.293,1.035-8.578
		C343.62,339.842,345.551,334.243,344.718,328.969z M342.158,341.172c-0.051,0.623,0.127,10.162-0.309,11.197
		c-1.137-2.131-2.682-4.035-4.041-6.029c-1.381-2.023-2.098-4.203-3.759-5.863c3.647-2.356,6.382-5.85,9.396-8.962
		C343.428,334.739,342.422,337.971,342.158,341.172z"/>
	<path fill="#528466" d="M343.451,328.703c0,0,2.045-2.585,5.565-0.925l-7.406,25.405L343.451,328.703z"/>
	<polygon fill="#DED9B4" points="349.017,327.918 351.579,351.21 341.61,353.184 	"/>
	<polygon fill="#FEFFE6" points="343.451,328.703 332.738,341.257 341.61,353.184 	"/>
	<polygon fill="#FEFFCE" points="332.738,341.257 329.089,328.43 343.451,328.703 	"/>
	<polygon fill="#E8ECB1" points="329.089,328.43 314.081,334.522 332.738,341.257 	"/>
	<polygon fill="#FEFFE6" points="314.081,334.522 315.651,316.327 329.089,328.43 	"/>
	<polygon fill="#FEFFCE" points="315.651,316.327 308.17,319.561 314.081,334.522 	"/>
	<polygon fill="#D1D3D4" points="349.017,327.918 364.51,327.918 352.811,306.507 	"/>
	<polygon fill="#DED9B4" points="349.017,327.918 356.558,345.443 364.51,327.918 	"/>
	<polygon fill="#FEFFE6" points="345.668,421.894 338.463,444.43 365.001,453.542 	"/>
	<polygon fill="#B7BCCD" points="378.995,434.992 399.975,429.838 399.975,439.504 	"/>
	<polygon fill="#C8E3CE" points="350.102,433.717 345.668,421.894 355.088,421.894 	"/>
	<polygon fill="#D1D3D4" points="355.088,421.894 365.741,438.272 366.727,446.4 350.102,433.717 	"/>
	<polygon fill="#B3DBCD" points="355.088,421.894 378.995,434.992 365.741,438.272 	"/>
	<path fill="#3F3956" d="M365.741,438.272l13.254-3.28l20.979,4.512v48.643l-9.974-19.827l-11.33-12.684l-13.67-2.094
		c0,0-13.318-12.763-14.899-19.825l3.939-2.587c0,0,10.099,13.546,12.686,15.271L365.741,438.272z"/>
	<path fill="#C170C1" d="M365.741,438.272c0,0,28.252,1.207,24.531,30.589l9.702,5.543v-34.9l-20.979-4.512L365.741,438.272z"/>
	<polygon fill="#FEFFE6" points="374.362,517.763 362.293,478.972 389.484,506.966 	"/>
	<polygon fill="#E8E9EB" points="362.293,478.972 399.975,499.476 389.484,506.966 	"/>
	<polygon fill="#E7DAFF" points="362.293,478.972 399.975,488.146 399.975,499.476 	"/>
	<polygon fill="#E8E9EB" points="362.293,478.972 390.272,468.861 399.975,488.146 	"/>
	<polygon fill="#FEFFCE" points="362.293,478.972 378.671,455.636 390.272,468.861 	"/>
	<polygon fill="#FEFFCE" points="362.293,478.972 359.892,523.304 374.362,517.763 	"/>
	<polygon fill="#E8ECB1" points="362.293,478.972 365.001,453.542 378.671,455.636 	"/>
	<polygon fill="#E8ECB1" points="362.293,478.972 359.892,523.304 335.753,517.021 	"/>
	<polygon fill="#DED9B4" points="362.293,478.972 338.463,444.43 365.001,453.542 	"/>
	<polygon fill="#DED9B4" points="362.293,478.972 327.011,499.476 335.753,517.021 	"/>
	<polygon fill="#E8ECB1" points="362.293,478.972 320.36,478.505 327.011,499.476 	"/>
	<polygon fill="#E8ECB1" points="362.293,478.972 321.654,453.542 338.463,444.43 	"/>
	<polygon fill="#FEFFCE" points="362.293,478.972 321.654,453.542 320.36,478.505 	"/>
	<polygon fill="#FEFFE6" points="361.967,526.468 339.397,561.949 359.188,555.878 	"/>
	<polygon fill="#FEFFE6" points="359.188,555.878 386.675,517.763 374.873,566.006 	"/>
	<polygon fill="#FEFFCE" points="386.675,517.763 361.967,526.468 359.188,555.878 	"/>
	<polygon fill="#E8ECB1" points="361.967,526.468 348.505,530.878 339.397,561.949 	"/>
	<polygon fill="#E8ECB1" points="386.675,517.763 390.272,569.3 374.873,566.006 	"/>
	<polygon fill="#E8ECB1" points="359.188,555.878 360.999,580.566 374.873,566.006 	"/>
	<polygon fill="#DED9B4" points="390.272,569.3 399.975,515.94 399.975,582.927 	"/>
	<polygon fill="#DED9B4" points="374.873,566.006 380.324,586.033 390.272,569.3 	"/>
	<polygon fill="#D1D3D4" points="390.272,569.3 386.675,517.763 399.975,515.94 	"/>
	<polygon fill="#B7DFE2" points="352.811,306.507 351.584,284.552 381.544,269.715 	"/>
	<polygon fill="#B7DFE2" points="325.578,426.318 321.654,404.162 307.695,415.017 	"/>
	<polygon fill="#B3DBCD" points="307.695,415.017 321.654,453.542 325.578,426.318 	"/>
	<polygon fill="#B3DBCD" points="381.544,269.715 358.629,252.205 365.061,277.878 	"/>
	<polygon fill="#B3DBCD" points="301.256,289.604 285.734,328.537 300.135,322.774 	"/>
	<polygon fill="#B3DBCD" points="301.256,289.604 324.183,261.806 316.29,287.224 	"/>
	<polygon fill="#B3DBCD" points="307.615,312.172 314.081,300.843 323.408,305.358 	"/>
	<polygon fill="#C8E3CE" points="314.081,300.843 333.847,294.315 323.408,305.358 	"/>
	<polygon fill="#A7C1B5" points="333.847,294.315 341.563,305.358 323.408,305.358 	"/>
	<polygon fill="#B3DBCD" points="333.847,294.315 352.811,306.507 341.563,305.358 	"/>
	<polygon fill="#94C7D3" points="352.811,306.507 350.563,319.193 341.563,305.358 	"/>
	<path fill="#3F3956" d="M308.17,319.561l-0.555-7.389l18.842-8.129c0,0,16.258-8.064,24.106,15.15l-1.547,8.725
		c0,0-2.388-1.111-5.565,0.785c-3.178,1.898-15.609,4.988-27.8-12.376L308.17,319.561z"/>
	<path fill="#8E688D" d="M334.77,311.111c5.159,0,9.507,3.441,10.893,8.152c0.3-1.018,0.468-2.094,0.468-3.208
		c0-6.274-5.086-11.36-11.36-11.36c-6.275,0-11.361,5.086-11.361,11.36c0,1.114,0.168,2.19,0.468,3.208
		C325.262,314.553,329.609,311.111,334.77,311.111z"/>
	<path fill="#AE99C9" d="M334.77,327.416c5.159,0,9.507-3.441,10.893-8.152c-1.386-4.711-5.733-8.152-10.893-8.152
		c-5.16,0-9.508,3.441-10.894,8.152C325.262,323.975,329.609,327.416,334.77,327.416z"/>
	<circle fill="#633963" cx="334.769" cy="314.111" r="3.048"/>
	<polygon fill="#C8E3CE" points="324.183,261.806 358.629,252.205 361.66,264.303 	"/>
	<polygon fill="#C8E3CE" points="301.256,289.604 314.081,300.843 316.29,287.224 	"/>
	<polygon fill="#DED9B4" points="301.256,289.604 307.615,312.172 314.081,300.843 	"/>
	<polygon fill="#A7C1B5" points="301.256,289.604 307.615,312.172 308.17,319.561 300.135,322.774 	"/>
	<polygon fill="#A7C1B5" points="324.183,261.806 337.817,275.705 316.29,287.224 	"/>
	<polygon fill="#A7C1B5" points="337.817,275.705 361.66,264.303 365.061,277.878 	"/>
	<polygon fill="#94C7D3" points="337.817,275.705 351.584,284.552 365.061,277.878 	"/>
	<polygon fill="#94C7D3" points="337.817,275.705 324.183,261.806 361.66,264.303 	"/>
	<polygon fill="#7FB29E" points="316.29,287.224 333.847,294.315 314.081,300.843 	"/>
	<polygon fill="#7FB29E" points="333.847,294.315 351.584,284.552 352.811,306.507 	"/>
	<polygon fill="#4EDDA6" points="333.847,294.315 337.817,275.705 351.584,284.552 	"/>
	<polygon fill="#99CAFF" points="333.847,294.315 337.817,275.705 316.29,287.224 	"/>
	<polygon fill="#A1AFB4" points="332.738,341.257 309.795,359.488 341.61,353.184 	"/>
	<polygon fill="#B7A5BF" points="351.579,351.21 327.963,380.828 309.795,359.488 	"/>
	<polygon fill="#8A979B" points="309.795,359.488 321.654,404.162 327.963,380.828 	"/>
	<polygon fill="#B7BCCD" points="351.579,351.21 325.578,426.318 321.654,404.162 	"/>
	<polygon fill="#A1AFB4" points="351.579,351.21 321.654,404.162 327.963,380.828 	"/>
	<polygon fill="#8A979B" points="285.734,328.537 300.135,375.621 288.651,394.802 	"/>
	<polygon fill="#538196" points="314.081,334.522 309.795,359.488 332.738,341.257 	"/>
	<polygon fill="#6E877F" points="308.17,319.561 314.081,334.522 285.734,328.537 	"/>
	<polygon fill="#72A1B2" points="314.081,334.522 309.795,359.488 285.734,328.537 	"/>
	<polygon fill="#72A1B2" points="309.795,359.488 288.651,394.802 321.654,404.162 	"/>
	<polygon fill="#94C7D3" points="321.654,404.162 307.695,415.017 288.651,394.802 	"/>
	<polygon fill="#A1AFB4" points="288.651,394.802 321.654,453.542 307.695,415.017 	"/>
	<polygon fill="#A1AFB4" points="285.734,328.537 309.795,359.488 300.135,375.621 	"/>
	<polygon fill="#528466" points="381.544,269.715 399.975,252.637 399.975,272.149 	"/>
	<polygon fill="#6E877F" points="381.544,269.715 399.975,294.315 399.975,272.149 	"/>
	<polygon fill="#429686" points="381.544,269.715 374.161,307.641 399.975,294.315 	"/>
	<polygon fill="#429686" points="399.975,252.637 381.544,214.763 399.975,232.496 	"/>
	<polygon fill="#6BAA85" points="381.544,214.763 381.544,269.715 399.975,252.637 	"/>
	<polygon fill="#6BAA85" points="381.544,214.763 387.415,187.178 399.975,232.496 	"/>
	<polygon fill="#6BAA85" points="374.161,307.641 352.811,306.507 364.51,327.918 	"/>
	<polygon fill="#6BAA85" points="324.183,261.806 296.031,270.971 301.256,289.604 	"/>
	<polygon fill="#6BAA85" points="301.256,289.604 274.159,311.637 285.734,328.537 	"/>
	<polygon fill="#528466" points="399.975,294.315 399.975,331.258 388.166,300.41 	"/>
	<polygon fill="#7FB29E" points="381.544,214.763 358.629,252.205 381.544,269.715 	"/>
	<polygon fill="#7FB29E" points="387.415,187.178 399.975,197.771 399.975,232.496 	"/>
	<polygon fill="#7FB29E" points="324.183,261.806 315.617,224.533 296.031,270.971 	"/>
	<polygon fill="#4EDDA6" points="358.629,252.205 354.727,226.541 315.617,224.533 	"/>
	<polygon fill="#A7C1B5" points="358.629,252.205 354.727,226.541 365.717,207.864 	"/>
	<polygon fill="#A7C1B5" points="315.617,224.533 358.629,252.205 324.183,261.806 	"/>
	<polygon fill="#A7C1B5" points="352.811,306.507 374.161,307.641 381.544,269.715 	"/>
	<polygon fill="#7FB29E" points="374.161,307.641 399.975,331.258 388.166,300.41 	"/>
	<polygon fill="#7FB29E" points="374.161,307.641 372.239,329.546 364.51,327.918 	"/>
	<polygon fill="#7FB29E" points="372.239,329.546 365.164,365.448 356.558,345.443 	"/>
	<polygon fill="#6BAA85" points="349.017,327.918 365.164,365.448 351.579,351.21 	"/>
	<polygon fill="#72A1B2" points="351.579,351.21 347.951,389.283 365.164,365.448 	"/>
	<polygon fill="#72A1B2" points="372.239,329.546 356.558,345.443 364.51,327.918 	"/>
	<polygon fill="#4EDDA6" points="358.629,252.205 365.717,207.864 381.544,214.763 	"/>
	<polygon fill="#538196" points="399.975,429.838 374.362,416.723 399.975,406.871 	"/>
	<polygon fill="#60668C" points="399.975,406.871 383.471,388.005 399.975,383.002 	"/>
	<polygon fill="#72A1B2" points="383.471,388.005 374.362,416.723 399.975,406.871 	"/>
	<polygon fill="#72A1B2" points="374.362,416.723 378.995,434.992 399.975,429.838 	"/>
	<polygon fill="#72A1B2" points="383.471,388.005 399.975,359.488 399.975,383.002 	"/>
	<polygon fill="#A1AFB4" points="351.579,351.21 347.951,389.283 325.578,426.318 	"/>
	<polygon fill="#94C7D3" points="347.951,389.283 345.668,421.894 325.578,426.318 	"/>
	<polygon fill="#55CFF9" points="345.668,421.894 338.463,444.43 325.578,426.318 	"/>
	<polygon fill="#55CFF9" points="345.668,421.894 365.164,365.448 347.951,389.283 	"/>
	<polygon fill="#55CFF9" points="399.975,359.488 376.861,356.383 383.471,388.005 	"/>
	<polygon fill="#55CFF9" points="374.362,416.723 378.995,434.992 355.088,421.894 	"/>
	<polygon fill="#99CAFF" points="383.471,388.005 365.164,365.448 376.861,356.383 	"/>
	<polygon fill="#99CAFF" points="383.471,388.005 374.362,416.723 355.088,421.894 	"/>
	<polygon fill="#A7C1B5" points="376.861,356.383 372.239,329.546 365.164,365.448 	"/>
	<polygon fill="#94C7D3" points="383.471,388.005 345.668,421.894 365.164,365.448 	"/>
	<polygon fill="#94C7D3" points="376.861,356.383 399.975,331.258 399.975,359.488 	"/>
	<polygon fill="#4EDDA6" points="399.975,331.258 372.239,329.546 376.861,356.383 	"/>
	<polygon fill="#A1AFB4" points="399.975,331.258 374.161,307.641 372.239,329.546 	"/>
	<polygon fill="#B7BCCD" points="355.088,421.894 345.668,421.894 383.471,388.005 	"/>
	<polygon fill="#633963" points="387.415,187.178 399.975,149.25 399.975,197.771 	"/>
	<polygon fill="#633963" points="399.975,149.25 369.217,127.281 400.001,110.286 	"/>
	<polygon fill="#61235A" points="369.217,127.281 369.276,127.055 385.321,63.872 400.001,110.286 	"/>
	<polygon fill="#61235A" points="387.415,187.178 399.975,149.25 369.217,127.281 	"/>
	<polygon fill="#61235A" points="381.544,214.763 366.398,169.739 365.717,207.864 	"/>
	<polygon fill="#61235A" points="365.717,207.864 329.089,185.437 354.727,226.541 	"/>
	<polygon fill="#62347F" points="387.415,187.178 366.398,169.739 369.217,127.281 	"/>
	<polygon fill="#62347F" points="354.727,226.541 289.469,183.166 315.617,224.533 	"/>
	<polygon fill="#65477A" points="315.617,224.533 257.027,214.129 228.024,289.604 	"/>
	<polygon fill="#62347F" points="365.717,207.864 366.398,169.739 332.296,132.66 	"/>
	<polygon fill="#8E4989" points="354.727,226.541 289.469,183.166 329.089,185.437 	"/>
	<polygon fill="#8E4989" points="381.544,214.763 387.415,187.178 366.398,169.739 	"/>
	<polygon fill="#8E4989" points="332.296,132.66 329.089,185.437 365.717,207.864 	"/>
	<polygon fill="#8E4989" points="315.617,224.533 245.663,176.238 214.811,206.632 	"/>
	<polygon fill="#8E4989" points="296.031,270.971 265.215,261.806 301.256,289.604 	"/>
	<polygon fill="#8E4989" points="301.256,289.604 274.159,311.637 209.372,328.76 	"/>
	<polygon fill="#8E4989" points="285.734,328.537 209.372,328.76 256.256,367.818 	"/>
	<polygon fill="#797391" points="265.215,261.806 267.171,304.129 209.372,328.76 	"/>
	<polygon fill="#797391" points="296.031,270.971 315.617,224.533 265.215,261.806 	"/>
	<polygon fill="#797391" points="285.734,328.537 288.651,394.802 256.256,367.818 	"/>
	<polygon fill="#575756" points="288.651,394.802 320.36,478.505 321.654,453.542 	"/>
	<polygon fill="#797391" points="288.651,394.802 223.3,457.742 301.686,429.209 	"/>
	<polygon fill="#6E6491" points="265.215,261.806 301.256,289.604 267.171,304.129 	"/>
	<polygon fill="#6E6491" points="274.159,311.637 285.734,328.537 209.372,328.76 	"/>
	<polygon fill="#934AD3" points="329.089,185.437 289.906,144.781 289.469,183.166 	"/>
	<polygon fill="#6E6491" points="245.663,176.238 215.513,118.414 289.469,183.166 	"/>
	<polygon fill="#8E688D" points="332.296,132.66 289.906,144.781 270.131,71.741 	"/>
	<polygon fill="#877993" points="369.217,127.281 329.564,63.018 333.525,103.508 	"/>
	<polygon fill="#8E688D" points="341.563,82.461 380.602,82.461 369.217,127.281 	"/>
	<polygon fill="#AA9FE2" points="226.525,139.534 183.442,172.995 164.209,144.727 	"/>
	<polygon fill="#877993" points="183.442,172.995 172.618,253.647 214.811,206.632 	"/>
	<polygon fill="#877993" points="245.663,176.238 226.525,139.534 183.442,172.995 	"/>
	<polygon fill="#C8E3CE" points="169.887,333.196 169.852,454.457 142.147,423.438 	"/>
	<polygon fill="#E8ECB1" points="169.887,333.196 203.766,411.324 169.866,402.364 	"/>
	<polygon fill="#C170C1" points="169.887,333.196 288.651,394.802 209.372,328.76 	"/>
	<polygon fill="#8D59B2" points="257.027,214.129 199.022,282.079 228.024,289.604 	"/>
	<polygon fill="#AA9FE2" points="169.887,333.196 265.215,261.806 209.372,328.76 	"/>
	<polygon fill="#D8CAF9" points="169.887,333.196 198.244,347.906 184.488,366.868 	"/>
	<polygon fill="#C0B6E0" points="169.887,333.196 199.022,282.079 228.024,289.604 	"/>
	<polygon fill="#C0B6E0" points="184.488,366.868 225.871,362.236 198.244,347.906 	"/>
	<polygon fill="#B3DBCD" points="225.871,362.236 203.766,411.324 184.488,366.868 	"/>
	<polygon fill="#AA9FE2" points="225.871,362.236 288.651,394.802 203.766,411.324 	"/>
	<polygon fill="#A397B2" points="288.651,394.802 223.3,457.742 203.766,411.324 	"/>
	<polygon fill="#AA9FE2" points="172.618,253.647 199.022,282.079 169.887,333.196 	"/>
	<polygon fill="#6E6491" points="172.618,253.647 257.027,214.129 214.811,206.632 	"/>
	<polygon fill="#AA89CE" points="172.618,253.647 257.027,214.129 199.022,282.079 	"/>
	<polygon fill="#AA89CE" points="172.618,253.647 134.669,337.494 169.887,333.196 	"/>
	<polygon fill="#AA89CE" points="183.442,172.995 143.955,200.385 178.762,207.864 	"/>
	<polygon fill="#AA9FE2" points="143.955,200.385 172.618,253.647 178.762,207.864 	"/>
	<polygon fill="#AA89CE" points="215.513,118.414 289.906,144.781 289.469,183.166 	"/>
	<polygon fill="#AA89CE" points="333.525,103.508 366.398,169.739 369.217,127.281 	"/>
	<polygon fill="#934AD3" points="333.525,103.508 332.296,132.66 366.398,169.739 	"/>
	<polygon fill="#934AD3" points="245.663,176.238 214.811,206.632 183.442,172.995 	"/>
	<polygon fill="#806AAC" points="289.906,144.781 246.208,97.898 278.084,101.115 	"/>
	<polygon fill="#877993" points="333.525,103.508 270.131,71.741 332.296,132.66 	"/>
	<polygon fill="#877993" points="329.089,185.437 289.906,144.781 332.296,132.66 	"/>
	<polygon fill="#877993" points="289.469,183.166 315.617,224.533 245.663,176.238 	"/>
	<polygon fill="#E8ECB1" points="203.766,411.324 169.852,454.457 196.588,489.998 	"/>
	<polygon fill="#E8ECB1" points="167.082,564.761 225.612,524.703 196.588,489.998 	"/>
	<polygon fill="#DED9B4" points="203.766,411.324 223.3,457.742 196.588,489.998 	"/>
	<polygon fill="#DED9B4" points="196.588,489.998 169.852,454.457 149.522,525.141 	"/>
	<polygon fill="#DED9B4" points="203.766,411.324 169.866,402.364 169.852,454.457 	"/>
	<polygon fill="#C8E3CE" points="223.3,457.742 225.612,524.703 196.588,489.998 	"/>
	<polygon fill="#DED9B4" points="223.3,457.742 242.275,500.297 225.612,524.703 	"/>
	<polygon fill="#CFCAE5" points="223.3,457.742 301.686,429.209 242.275,500.297 	"/>
	<polygon fill="#CFCAE5" points="142.147,423.438 128.021,506.594 169.852,454.457 	"/>
	<polygon fill="#CFCAE5" points="142.147,423.438 121.52,427.432 154.938,381.824 	"/>
	<polygon fill="#C0B6E0" points="169.887,333.196 130.828,380.49 154.938,381.824 	"/>
	<polygon fill="#677C6E" points="301.686,429.209 320.36,478.505 242.275,500.297 	"/>
	<polygon fill="#436A7B" points="320.36,478.505 266.89,535.709 242.275,500.297 	"/>
	<polygon fill="#436A7B" points="327.011,499.476 323.273,551.171 335.753,517.021 	"/>
	<path fill="#436A7B" d="M335.753,517.021"/>
	<polygon fill="#2B4854" points="323.273,551.171 348.505,530.878 348.505,520.34 335.753,517.021 	"/>
	<polygon fill="#2B4854" points="320.36,478.505 327.011,499.476 266.89,535.709 	"/>
	<polygon fill="#727271" points="360.999,580.566 366.069,615.52 380.324,586.033 	"/>
	<polygon fill="#575756" points="380.324,586.033 374.873,566.006 360.999,580.566 	"/>
	<polygon fill="#575756" points="360.999,580.566 366.069,615.52 318.009,607.139 	"/>
	<polygon fill="#575756" points="323.273,551.171 327.011,499.476 266.89,535.709 	"/>
	<polygon fill="#575756" points="242.275,500.297 266.89,535.709 225.612,524.703 	"/>
	<polygon fill="#727271" points="225.612,524.703 251.376,558.732 266.89,535.709 	"/>
	<polygon fill="#2B4854" points="318.009,607.139 300.95,680.621 366.069,615.52 	"/>
	<polygon fill="#436A7B" points="366.069,615.52 399.975,682.718 399.975,614.92 	"/>
	<polygon fill="#2B4854" points="366.069,615.52 366.069,694.294 389.107,661.183 	"/>
	<polygon fill="#60668C" points="266.89,535.709 299.148,579.708 323.273,551.171 	"/>
	<polygon fill="#60668C" points="380.324,586.033 399.975,582.927 390.272,569.3 	"/>
	<polygon fill="#60668C" points="380.324,586.033 399.975,614.92 366.069,615.52 	"/>
	<polygon fill="#60668C" points="366.069,615.52 336.734,644.847 366.069,694.294 	"/>
	<polygon fill="#528466" points="380.324,586.033 399.975,582.927 399.975,614.92 	"/>
	<polygon fill="#528466" points="359.188,555.878 360.999,580.566 339.397,561.949 	"/>
	<polygon fill="#528466" points="348.505,530.878 339.397,561.949 323.273,551.171 	"/>
	<polygon fill="#528466" points="266.89,535.709 265.518,617.938 299.148,579.708 	"/>
	<polygon fill="#6E877F" points="323.273,551.171 318.009,607.139 339.397,561.949 	"/>
	<polygon fill="#6E877F" points="225.612,524.703 201.711,589.374 251.376,558.732 	"/>
	<polygon fill="#6BAA85" points="339.397,561.949 360.999,580.566 318.009,607.139 	"/>
	<polygon fill="#6BAA85" points="323.273,551.171 318.009,607.139 299.148,579.708 	"/>
	<polygon fill="#6BAA85" points="266.89,535.709 234.684,645.25 265.518,617.938 	"/>
	<polygon fill="#6BAA85" points="265.518,617.938 300.95,680.621 318.009,607.139 	"/>
	<polygon fill="#8FC1AD" points="266.89,535.709 224.888,598.043 234.684,645.25 	"/>
	<polygon fill="#8FC1AD" points="299.148,579.708 318.009,607.139 265.518,617.938 	"/>
	<polygon fill="#8FC1AD" points="225.612,524.703 197.746,543.774 201.711,589.374 	"/>
	<polygon fill="#8FC1AD" points="265.518,617.938 276.608,682.913 290.684,662.456 	"/>
	<polygon fill="#72A1B2" points="338.463,444.43 325.578,426.318 321.654,453.542 	"/>
	<path fill="#4EDDA6" d="M538.196,537.158c0.952,0,0.952,1.479,0,1.479C537.242,538.637,537.242,537.158,538.196,537.158z"/>
	<path fill="#4EDDA6" d="M629.104,252.496c5.38-15.871,13.398-30.636,20.025-45.988c0.376-0.872,1.649-0.117,1.274,0.747
		c-6.575,15.232-14.535,29.885-19.874,45.634C630.225,253.785,628.797,253.4,629.104,252.496z"/>
	<path fill="#4EDDA6" d="M404.457,524.353c0.954,0,0.954,1.478,0,1.478C403.504,525.83,403.504,524.353,404.457,524.353z"/>
	<polygon fill="#3F3956" points="451.497,519.795 451.497,530.878 438.035,526.468 413.326,517.763 400.027,515.94 400.027,499.476 
		425.639,517.763 440.11,523.304 	"/>
	<path d="M456.459,345.162c0.018,1.285-0.563,7.463,1.035,8.578c-0.339,0.864,1.072,1.234,1.432,0.374
		c1.095-2.619,3.18-4.585,4.544-7.027c1.13-2.026,2.009-4.313,3.794-5.83c0.676,0.357,1.275-0.395,1.05-0.937
		c0.109-0.326-0.043-0.696-0.311-0.886c-0.079-3.282,2.004-7.218,3.409-10.081c0.056-0.114,0.077-0.226,0.08-0.333
		c4.643,0.501,9.157,3.124,13.132,5.4c0.314,0.182,0.616,0.106,0.824-0.077c0.114,0.107,0.269,0.179,0.473,0.179
		c0.953,0,0.953-1.479,0-1.479c-0.116,0-0.216,0.024-0.302,0.062c-1.825-5.552,0.246-11.457-1.387-17.067
		c-0.266-0.913-1.693-0.524-1.426,0.394c1.515,5.201-0.163,10.641,1.048,15.851c-3.922-2.208-8.258-4.403-12.711-4.779
		c-0.526-0.045-0.748,0.388-0.69,0.796c-0.124,0.059-0.237,0.147-0.317,0.309c-1.485,3.027-3.553,6.971-3.608,10.461
		c-3.8-2.534-6.598-6.342-9.842-9.521c0.01-0.062,0.014-0.124,0.023-0.186c0.147-0.933-1.277-1.333-1.426-0.394
		C454.451,334.243,456.382,339.842,456.459,345.162z M456.557,331.515c3.014,3.112,5.748,6.605,9.396,8.962
		c-1.662,1.66-2.378,3.84-3.759,5.863c-1.359,1.994-2.904,3.898-4.041,6.029c-0.436-1.035-0.258-10.574-0.309-11.197
		C457.58,337.971,456.574,334.739,456.557,331.515z"/>
	<path fill="#528466" d="M456.551,328.703c0,0-2.045-2.585-5.566-0.925l7.406,25.405L456.551,328.703z"/>
	<polygon fill="#DED9B4" points="450.984,327.918 448.423,351.21 458.391,353.184 	"/>
	<polygon fill="#FEFFE6" points="456.551,328.703 467.264,341.257 458.391,353.184 	"/>
	<polygon fill="#FEFFCE" points="467.264,341.257 470.913,328.43 456.551,328.703 	"/>
	<polygon fill="#E8ECB1" points="470.913,328.43 485.921,334.522 467.264,341.257 	"/>
	<polygon fill="#FEFFE6" points="485.921,334.522 484.351,316.327 470.913,328.43 	"/>
	<polygon fill="#FEFFCE" points="484.351,316.327 491.831,319.561 485.921,334.522 	"/>
	<polygon fill="#D1D3D4" points="450.984,327.918 435.492,327.918 447.191,306.507 	"/>
	<polygon fill="#DED9B4" points="450.984,327.918 443.444,345.443 435.492,327.918 	"/>
	<polygon fill="#FEFFE6" points="454.334,421.894 461.538,444.43 435,453.542 	"/>
	<polygon fill="#B7BCCD" points="421.006,434.992 400.027,429.838 400.027,439.504 	"/>
	<polygon fill="#C8E3CE" points="449.9,433.717 454.334,421.894 444.913,421.894 	"/>
	<polygon fill="#D1D3D4" points="444.913,421.894 434.261,438.272 433.275,446.4 449.9,433.717 	"/>
	<polygon fill="#B3DBCD" points="444.913,421.894 421.006,434.992 434.261,438.272 	"/>
	<path fill="#3F3956" d="M434.261,438.272l-13.255-3.28l-20.979,4.512v48.643l9.974-19.827l11.33-12.684L435,453.542
		c0,0,13.318-12.763,14.9-19.825l-3.941-2.587c0,0-10.098,13.546-12.684,15.271L434.261,438.272z"/>
	<path fill="#C170C1" d="M434.261,438.272c0,0-28.253,1.207-24.532,30.589l-9.701,5.543v-34.9l20.979-4.512L434.261,438.272z"/>
	<polygon fill="#FEFFE6" points="425.639,517.763 437.709,478.972 410.517,506.966 	"/>
	<polygon fill="#E8E9EB" points="437.709,478.972 400.027,499.476 410.517,506.966 	"/>
	<polygon fill="#E7DAFF" points="437.709,478.972 400.027,488.146 400.027,499.476 	"/>
	<polygon fill="#E8E9EB" points="437.709,478.972 409.729,468.861 400.027,488.146 	"/>
	<polygon fill="#FEFFCE" points="437.709,478.972 421.331,455.636 409.729,468.861 	"/>
	<polygon fill="#FEFFCE" points="437.709,478.972 440.11,523.304 425.639,517.763 	"/>
	<polygon fill="#E8ECB1" points="437.709,478.972 435,453.542 421.331,455.636 	"/>
	<polygon fill="#E8ECB1" points="437.709,478.972 440.11,523.304 464.249,517.021 	"/>
	<polygon fill="#DED9B4" points="437.709,478.972 461.538,444.43 435,453.542 	"/>
	<polygon fill="#DED9B4" points="437.709,478.972 472.991,499.476 464.249,517.021 	"/>
	<polygon fill="#E8ECB1" points="437.709,478.972 479.64,478.505 472.991,499.476 	"/>
	<polygon fill="#E8ECB1" points="437.709,478.972 478.348,453.542 461.538,444.43 	"/>
	<polygon fill="#FEFFCE" points="437.709,478.972 478.348,453.542 479.64,478.505 	"/>
	<polygon fill="#FEFFE6" points="438.035,526.468 460.604,561.949 440.813,555.878 	"/>
	<polygon fill="#FEFFE6" points="440.813,555.878 413.326,517.763 425.129,566.006 	"/>
	<polygon fill="#FEFFCE" points="413.326,517.763 438.035,526.468 440.813,555.878 	"/>
	<polygon fill="#E8ECB1" points="438.035,526.468 451.497,530.878 460.604,561.949 	"/>
	<polygon fill="#E8ECB1" points="413.326,517.763 409.729,569.3 425.129,566.006 	"/>
	<polygon fill="#E8ECB1" points="440.813,555.878 439.002,580.566 425.129,566.006 	"/>
	<polygon fill="#DED9B4" points="409.729,569.3 400.027,515.94 400.027,582.927 	"/>
	<polygon fill="#DED9B4" points="425.129,566.006 419.678,586.033 409.729,569.3 	"/>
	<polygon fill="#D1D3D4" points="409.729,569.3 413.326,517.763 400.027,515.94 	"/>
	<polygon fill="#B7DFE2" points="447.191,306.507 448.418,284.552 418.458,269.715 	"/>
	<polygon fill="#B7DFE2" points="474.424,426.318 478.348,404.162 492.307,415.017 	"/>
	<polygon fill="#B3DBCD" points="492.307,415.017 478.348,453.542 474.424,426.318 	"/>
	<polygon fill="#B3DBCD" points="418.458,269.715 441.372,252.205 434.941,277.878 	"/>
	<polygon fill="#B3DBCD" points="498.746,289.604 514.268,328.537 499.866,322.774 	"/>
	<polygon fill="#B3DBCD" points="498.746,289.604 475.819,261.806 483.712,287.224 	"/>
	<polygon fill="#B3DBCD" points="492.386,312.172 485.921,300.843 476.592,305.358 	"/>
	<polygon fill="#C8E3CE" points="485.921,300.843 466.155,294.315 476.592,305.358 	"/>
	<polygon fill="#A7C1B5" points="466.155,294.315 458.439,305.358 476.592,305.358 	"/>
	<polygon fill="#B3DBCD" points="466.155,294.315 447.191,306.507 458.439,305.358 	"/>
	<polygon fill="#94C7D3" points="447.191,306.507 449.438,319.193 458.439,305.358 	"/>
	<path fill="#3F3956" d="M491.831,319.561l0.555-7.389l-18.841-8.129c0,0-16.258-8.064-24.106,15.15l1.546,8.725
		c0,0,2.389-1.111,5.566,0.785c3.178,1.898,15.608,4.988,27.8-12.376L491.831,319.561z"/>
	<path fill="#8E688D" d="M465.232,311.111c-5.159,0-9.508,3.441-10.893,8.152c-0.301-1.018-0.468-2.094-0.468-3.208
		c0-6.274,5.086-11.36,11.36-11.36c6.273,0,11.359,5.086,11.359,11.36c0,1.114-0.166,2.19-0.466,3.208
		C474.74,314.553,470.392,311.111,465.232,311.111z"/>
	<path fill="#AE99C9" d="M465.232,327.416c-5.159,0-9.508-3.441-10.893-8.152c1.385-4.711,5.733-8.152,10.893-8.152
		s9.508,3.441,10.894,8.152C474.74,323.975,470.392,327.416,465.232,327.416z"/>
	<circle fill="#633963" cx="465.232" cy="314.111" r="3.048"/>
	<polygon fill="#C8E3CE" points="475.819,261.806 441.372,252.205 438.341,264.303 	"/>
	<polygon fill="#C8E3CE" points="498.746,289.604 485.921,300.843 483.712,287.224 	"/>
	<polygon fill="#DED9B4" points="498.746,289.604 492.386,312.172 485.921,300.843 	"/>
	<polygon fill="#A7C1B5" points="498.746,289.604 492.386,312.172 491.831,319.561 499.866,322.774 	"/>
	<polygon fill="#A7C1B5" points="475.819,261.806 462.185,275.705 483.712,287.224 	"/>
	<polygon fill="#A7C1B5" points="462.185,275.705 438.341,264.303 434.941,277.878 	"/>
	<polygon fill="#94C7D3" points="462.185,275.705 448.418,284.552 434.941,277.878 	"/>
	<polygon fill="#94C7D3" points="462.185,275.705 475.819,261.806 438.341,264.303 	"/>
	<polygon fill="#7FB29E" points="483.712,287.224 466.155,294.315 485.921,300.843 	"/>
	<polygon fill="#7FB29E" points="466.155,294.315 448.418,284.552 447.191,306.507 	"/>
	<polygon fill="#4EDDA6" points="466.155,294.315 462.185,275.705 448.418,284.552 	"/>
	<polygon fill="#99CAFF" points="466.155,294.315 462.185,275.705 483.712,287.224 	"/>
	<polygon fill="#A1AFB4" points="467.264,341.257 490.207,359.488 458.391,353.184 	"/>
	<polygon fill="#B7A5BF" points="448.423,351.21 472.039,380.828 490.207,359.488 	"/>
	<polygon fill="#8A979B" points="490.207,359.488 478.348,404.162 472.039,380.828 	"/>
	<polygon fill="#B7BCCD" points="448.423,351.21 474.424,426.318 478.348,404.162 	"/>
	<polygon fill="#A1AFB4" points="448.423,351.21 478.348,404.162 472.039,380.828 	"/>
	<polygon fill="#8A979B" points="514.268,328.537 499.866,375.621 511.351,394.802 	"/>
	<polygon fill="#538196" points="485.921,334.522 490.207,359.488 467.264,341.257 	"/>
	<polygon fill="#6E877F" points="491.831,319.561 485.921,334.522 514.268,328.537 	"/>
	<polygon fill="#72A1B2" points="485.921,334.522 490.207,359.488 514.268,328.537 	"/>
	<polygon fill="#72A1B2" points="490.207,359.488 511.351,394.802 478.348,404.162 	"/>
	<polygon fill="#94C7D3" points="478.348,404.162 492.307,415.017 511.351,394.802 	"/>
	<polygon fill="#A1AFB4" points="511.351,394.802 478.348,453.542 492.307,415.017 	"/>
	<polygon fill="#A1AFB4" points="514.268,328.537 490.207,359.488 499.866,375.621 	"/>
	<polygon fill="#528466" points="418.458,269.715 400.027,252.637 400.027,272.149 	"/>
	<polygon fill="#6E877F" points="418.458,269.715 400.027,294.315 400.027,272.149 	"/>
	<polygon fill="#429686" points="418.458,269.715 425.841,307.641 400.027,294.315 	"/>
	<polygon fill="#429686" points="400.027,252.637 418.458,214.763 400.027,232.496 	"/>
	<polygon fill="#6BAA85" points="418.458,214.763 418.458,269.715 400.027,252.637 	"/>
	<polygon fill="#6BAA85" points="418.458,214.763 412.587,187.178 400.027,232.496 	"/>
	<polygon fill="#6BAA85" points="425.841,307.641 447.191,306.507 435.492,327.918 	"/>
	<polygon fill="#6BAA85" points="475.819,261.806 503.971,270.971 498.746,289.604 	"/>
	<polygon fill="#6BAA85" points="498.746,289.604 525.842,311.637 514.268,328.537 	"/>
	<polygon fill="#528466" points="400.027,294.315 400.027,331.258 411.835,300.41 	"/>
	<polygon fill="#7FB29E" points="418.458,214.763 441.372,252.205 418.458,269.715 	"/>
	<polygon fill="#7FB29E" points="412.587,187.178 400.027,197.771 400.027,232.496 	"/>
	<polygon fill="#7FB29E" points="475.819,261.806 484.385,224.533 503.971,270.971 	"/>
	<polygon fill="#4EDDA6" points="441.372,252.205 445.275,226.541 484.385,224.533 	"/>
	<polygon fill="#A7C1B5" points="441.372,252.205 445.275,226.541 434.285,207.864 	"/>
	<polygon fill="#A7C1B5" points="484.385,224.533 441.372,252.205 475.819,261.806 	"/>
	<polygon fill="#A7C1B5" points="447.191,306.507 425.841,307.641 418.458,269.715 	"/>
	<polygon fill="#7FB29E" points="425.841,307.641 400.027,331.258 411.835,300.41 	"/>
	<polygon fill="#7FB29E" points="425.841,307.641 427.763,329.546 435.492,327.918 	"/>
	<polygon fill="#7FB29E" points="427.763,329.546 434.838,365.448 443.444,345.443 	"/>
	<polygon fill="#6BAA85" points="450.984,327.918 434.838,365.448 448.423,351.21 	"/>
	<polygon fill="#72A1B2" points="448.423,351.21 452.051,389.283 434.838,365.448 	"/>
	<polygon fill="#72A1B2" points="427.763,329.546 443.444,345.443 435.492,327.918 	"/>
	<polygon fill="#4EDDA6" points="441.372,252.205 434.285,207.864 418.458,214.763 	"/>
	<polygon fill="#538196" points="400.027,429.838 425.639,416.723 400.027,406.871 	"/>
	<polygon fill="#60668C" points="400.027,406.871 416.531,388.005 400.027,383.002 	"/>
	<polygon fill="#72A1B2" points="416.531,388.005 425.639,416.723 400.027,406.871 	"/>
	<polygon fill="#72A1B2" points="425.639,416.723 421.006,434.992 400.027,429.838 	"/>
	<polygon fill="#72A1B2" points="416.531,388.005 400.027,359.488 400.027,383.002 	"/>
	<polygon fill="#A1AFB4" points="448.423,351.21 452.051,389.283 474.424,426.318 	"/>
	<polygon fill="#94C7D3" points="452.051,389.283 454.334,421.894 474.424,426.318 	"/>
	<polygon fill="#55CFF9" points="454.334,421.894 461.538,444.43 474.424,426.318 	"/>
	<polygon fill="#55CFF9" points="454.334,421.894 434.838,365.448 452.051,389.283 	"/>
	<polygon fill="#55CFF9" points="400.027,359.488 423.141,356.383 416.531,388.005 	"/>
	<polygon fill="#55CFF9" points="425.639,416.723 421.006,434.992 444.913,421.894 	"/>
	<polygon fill="#99CAFF" points="416.531,388.005 434.838,365.448 423.141,356.383 	"/>
	<polygon fill="#99CAFF" points="416.531,388.005 425.639,416.723 444.913,421.894 	"/>
	<polygon fill="#A7C1B5" points="423.141,356.383 427.763,329.546 434.838,365.448 	"/>
	<polygon fill="#94C7D3" points="416.531,388.005 454.334,421.894 434.838,365.448 	"/>
	<polygon fill="#94C7D3" points="423.141,356.383 400.027,331.258 400.027,359.488 	"/>
	<polygon fill="#4EDDA6" points="400.027,331.258 427.763,329.546 423.141,356.383 	"/>
	<polygon fill="#A1AFB4" points="400.027,331.258 425.841,307.641 427.763,329.546 	"/>
	<polygon fill="#B7BCCD" points="444.913,421.894 454.334,421.894 416.531,388.005 	"/>
	<polygon fill="#633963" points="412.587,187.178 400.027,149.25 400.027,197.771 	"/>
	<polygon fill="#633963" points="400.027,149.25 430.783,127.281 400.001,110.286 	"/>
	<polygon fill="#61235A" points="430.783,127.281 430.725,127.055 414.68,63.872 400.001,110.286 	"/>
	<polygon fill="#61235A" points="412.587,187.178 400.027,149.25 430.783,127.281 	"/>
	<polygon fill="#61235A" points="418.458,214.763 433.604,169.739 434.285,207.864 	"/>
	<polygon fill="#61235A" points="434.285,207.864 470.913,185.437 445.275,226.541 	"/>
	<polygon fill="#62347F" points="412.587,187.178 433.604,169.739 430.783,127.281 	"/>
	<polygon fill="#62347F" points="445.275,226.541 510.532,183.166 484.385,224.533 	"/>
	<polygon fill="#65477A" points="484.385,224.533 542.973,214.129 571.976,289.604 	"/>
	<polygon fill="#62347F" points="434.285,207.864 433.604,169.739 467.706,132.66 	"/>
	<polygon fill="#8E4989" points="445.275,226.541 510.532,183.166 470.913,185.437 	"/>
	<polygon fill="#8E4989" points="418.458,214.763 412.587,187.178 433.604,169.739 	"/>
	<polygon fill="#8E4989" points="467.706,132.66 470.913,185.437 434.285,207.864 	"/>
	<polygon fill="#8E4989" points="484.385,224.533 554.339,176.238 585.191,206.632 	"/>
	<polygon fill="#8E4989" points="503.971,270.971 534.787,261.806 498.746,289.604 	"/>
	<polygon fill="#8E4989" points="498.746,289.604 525.842,311.637 590.63,328.76 	"/>
	<polygon fill="#8E4989" points="514.268,328.537 590.63,328.76 543.745,367.818 	"/>
	<polygon fill="#797391" points="534.787,261.806 532.831,304.129 590.63,328.76 	"/>
	<polygon fill="#797391" points="503.971,270.971 484.385,224.533 534.787,261.806 	"/>
	<polygon fill="#797391" points="514.268,328.537 511.351,394.802 543.745,367.818 	"/>
	<polygon fill="#575756" points="511.351,394.802 479.64,478.505 478.348,453.542 	"/>
	<polygon fill="#797391" points="511.351,394.802 576.702,457.742 498.315,429.209 	"/>
	<polygon fill="#6E6491" points="534.787,261.806 498.746,289.604 532.831,304.129 	"/>
	<polygon fill="#6E6491" points="525.842,311.637 514.268,328.537 590.63,328.76 	"/>
	<polygon fill="#934AD3" points="470.913,185.437 510.096,144.781 510.532,183.166 	"/>
	<polygon fill="#6E6491" points="554.339,176.238 584.489,118.414 510.532,183.166 	"/>
	<polygon fill="#8E688D" points="467.706,132.66 510.096,144.781 529.871,71.741 	"/>
	<polygon fill="#877993" points="430.783,127.281 470.437,63.018 466.476,103.508 	"/>
	<polygon fill="#8E688D" points="458.439,82.461 419.4,82.461 430.783,127.281 	"/>
	<polygon fill="#AA9FE2" points="573.476,139.534 616.56,172.995 635.793,144.727 	"/>
	<polygon fill="#877993" points="616.56,172.995 627.384,253.647 585.191,206.632 	"/>
	<polygon fill="#877993" points="554.339,176.238 573.476,139.534 616.56,172.995 	"/>
	<polygon fill="#C8E3CE" points="630.114,333.196 630.149,454.457 657.854,423.438 	"/>
	<polygon fill="#E8ECB1" points="630.114,333.196 596.235,411.324 630.136,402.364 	"/>
	<polygon fill="#C170C1" points="630.114,333.196 511.351,394.802 590.63,328.76 	"/>
	<polygon fill="#8D59B2" points="542.973,214.129 600.979,282.079 571.976,289.604 	"/>
	<polygon fill="#AA9FE2" points="630.114,333.196 534.787,261.806 590.63,328.76 	"/>
	<polygon fill="#D8CAF9" points="630.114,333.196 601.756,347.906 615.514,366.868 	"/>
	<polygon fill="#C0B6E0" points="630.114,333.196 600.979,282.079 571.976,289.604 	"/>
	<polygon fill="#C0B6E0" points="615.514,366.868 574.131,362.236 601.756,347.906 	"/>
	<polygon fill="#B3DBCD" points="574.131,362.236 596.235,411.324 615.514,366.868 	"/>
	<polygon fill="#AA9FE2" points="574.131,362.236 511.351,394.802 596.235,411.324 	"/>
	<polygon fill="#A397B2" points="511.351,394.802 576.702,457.742 596.235,411.324 	"/>
	<polygon fill="#AA9FE2" points="627.384,253.647 600.979,282.079 630.114,333.196 	"/>
	<polygon fill="#6E6491" points="627.384,253.647 542.973,214.129 585.191,206.632 	"/>
	<polygon fill="#AA89CE" points="627.384,253.647 542.973,214.129 600.979,282.079 	"/>
	<polygon fill="#AA89CE" points="627.384,253.647 665.332,337.494 630.114,333.196 	"/>
	<polygon fill="#AA89CE" points="616.56,172.995 656.047,200.385 621.239,207.864 	"/>
	<polygon fill="#AA9FE2" points="656.047,200.385 627.384,253.647 621.239,207.864 	"/>
	<polygon fill="#AA89CE" points="584.489,118.414 510.096,144.781 510.532,183.166 	"/>
	<polygon fill="#AA89CE" points="466.476,103.508 433.604,169.739 430.783,127.281 	"/>
	<polygon fill="#934AD3" points="466.476,103.508 467.706,132.66 433.604,169.739 	"/>
	<polygon fill="#934AD3" points="554.339,176.238 585.191,206.632 616.56,172.995 	"/>
	<polygon fill="#806AAC" points="510.096,144.781 553.793,97.898 521.918,101.115 	"/>
	<polygon fill="#877993" points="466.476,103.508 529.871,71.741 467.706,132.66 	"/>
	<polygon fill="#877993" points="470.913,185.437 510.096,144.781 467.706,132.66 	"/>
	<polygon fill="#877993" points="510.532,183.166 484.385,224.533 554.339,176.238 	"/>
	<polygon fill="#E8ECB1" points="596.235,411.324 630.149,454.457 603.414,489.998 	"/>
	<polygon fill="#E8ECB1" points="632.92,564.761 574.39,524.703 603.414,489.998 	"/>
	<polygon fill="#DED9B4" points="596.235,411.324 576.702,457.742 603.414,489.998 	"/>
	<polygon fill="#DED9B4" points="603.414,489.998 630.149,454.457 650.479,525.141 	"/>
	<polygon fill="#DED9B4" points="596.235,411.324 630.136,402.364 630.149,454.457 	"/>
	<polygon fill="#C8E3CE" points="576.702,457.742 574.39,524.703 603.414,489.998 	"/>
	<polygon fill="#DED9B4" points="576.702,457.742 557.727,500.297 574.39,524.703 	"/>
	<polygon fill="#CFCAE5" points="576.702,457.742 498.315,429.209 557.727,500.297 	"/>
	<polygon fill="#CFCAE5" points="657.854,423.438 671.979,506.594 630.149,454.457 	"/>
	<polygon fill="#CFCAE5" points="657.854,423.438 678.481,427.432 645.063,381.824 	"/>
	<polygon fill="#C0B6E0" points="630.114,333.196 669.174,380.49 645.063,381.824 	"/>
	<polygon fill="#677C6E" points="498.315,429.209 479.64,478.505 557.727,500.297 	"/>
	<polygon fill="#436A7B" points="479.64,478.505 533.112,535.709 557.727,500.297 	"/>
	<polygon fill="#436A7B" points="472.991,499.476 476.728,551.171 464.249,517.021 	"/>
	<path fill="#436A7B" d="M464.249,517.021"/>
	<polygon fill="#2B4854" points="476.728,551.171 451.497,530.878 451.497,520.34 464.249,517.021 	"/>
	<polygon fill="#2B4854" points="479.64,478.505 472.991,499.476 533.112,535.709 	"/>
	<polygon fill="#727271" points="439.002,580.566 433.933,615.52 419.678,586.033 	"/>
	<polygon fill="#575756" points="419.678,586.033 425.129,566.006 439.002,580.566 	"/>
	<polygon fill="#575756" points="439.002,580.566 433.933,615.52 481.992,607.139 	"/>
	<polygon fill="#575756" points="476.728,551.171 472.991,499.476 533.112,535.709 	"/>
	<polygon fill="#575756" points="557.727,500.297 533.112,535.709 574.39,524.703 	"/>
	<polygon fill="#727271" points="574.39,524.703 548.626,558.732 533.112,535.709 	"/>
	<polygon fill="#2B4854" points="481.992,607.139 499.052,680.621 433.933,615.52 	"/>
	<polygon fill="#436A7B" points="433.933,615.52 400.027,682.718 400.027,614.92 	"/>
	<polygon fill="#2B4854" points="433.933,615.52 433.933,694.294 410.895,661.183 	"/>
	<polygon fill="#60668C" points="533.112,535.709 500.853,579.708 476.728,551.171 	"/>
	<polygon fill="#60668C" points="419.678,586.033 400.027,582.927 409.729,569.3 	"/>
	<polygon fill="#60668C" points="419.678,586.033 400.027,614.92 433.933,615.52 	"/>
	<polygon fill="#60668C" points="433.933,615.52 463.267,644.847 433.933,694.294 	"/>
	<polygon fill="#528466" points="419.678,586.033 400.027,582.927 400.027,614.92 	"/>
	<polygon fill="#528466" points="440.813,555.878 439.002,580.566 460.604,561.949 	"/>
	<polygon fill="#528466" points="451.497,530.878 460.604,561.949 476.728,551.171 	"/>
	<polygon fill="#528466" points="533.112,535.709 534.484,617.938 500.853,579.708 	"/>
	<polygon fill="#6E877F" points="476.728,551.171 481.992,607.139 460.604,561.949 	"/>
	<polygon fill="#6E877F" points="574.39,524.703 598.291,589.374 548.626,558.732 	"/>
	<polygon fill="#6BAA85" points="460.604,561.949 439.002,580.566 481.992,607.139 	"/>
	<polygon fill="#6BAA85" points="476.728,551.171 481.992,607.139 500.853,579.708 	"/>
	<polygon fill="#6BAA85" points="533.112,535.709 565.318,645.25 534.484,617.938 	"/>
	<polygon fill="#6BAA85" points="534.484,617.938 499.052,680.621 481.992,607.139 	"/>
	<polygon fill="#8FC1AD" points="533.112,535.709 575.114,598.043 565.318,645.25 	"/>
	<polygon fill="#8FC1AD" points="500.853,579.708 481.992,607.139 534.484,617.938 	"/>
	<polygon fill="#8FC1AD" points="574.39,524.703 602.256,543.774 598.291,589.374 	"/>
	<polygon fill="#8FC1AD" points="534.484,617.938 523.394,682.913 509.318,662.456 	"/>
	<polygon fill="#72A1B2" points="461.538,444.43 474.424,426.318 478.348,453.542 	"/>
</g>
</svg>
