<?xml version="1.0" encoding="utf-8"?>
<!-- Generator: Adobe Illustrator 16.0.0, SVG Export Plug-In . SVG Version: 6.00 Build 0)  -->
<!DOCTYPE svg PUBLIC "-//W3C//DTD SVG 1.1//EN" "http://www.w3.org/Graphics/SVG/1.1/DTD/svg11.dtd">
<svg version="1.1" xmlns="http://www.w3.org/2000/svg" xmlns:xlink="http://www.w3.org/1999/xlink" x="0px" y="0px" width="800px"
	 height="800px" viewBox="0 0 800 800" enable-background="new 0 0 800 800" xml:space="preserve">
<g id="back_1_">
	<rect fill="#545151" stroke="#545251" stroke-miterlimit="10" width="800" height="800"/>
</g>
<g id="draw">
	<g>
		<polygon fill="#DC4A54" points="187.081,594.148 164.935,729.492 139.807,654.876 		"/>
		<polygon fill="#CF344F" points="67.484,641.204 164.935,729.492 139.814,654.876 		"/>
		<polygon fill="#517F91" points="36.497,146.877 14.341,282.228 -0.433,238.34 -0.433,194.318 		"/>
		<polygon fill="#78708B" points="-0.433,268.833 14.341,282.228 -0.433,238.34 		"/>
		<polygon fill="#7C2382" points="665.464,405.918 643.319,541.269 618.198,466.646 		"/>
		<polygon fill="#82277A" points="545.868,452.979 643.319,541.269 618.198,466.646 		"/>
		<polygon fill="#B76C7F" points="510.714,-15.913 492.727,93.996 467.605,19.374 495.073,-15.913 		"/>
		<polygon fill="#A87187" points="395.282,5.706 492.727,93.996 467.605,19.374 		"/>
		<polygon fill="#DA7861" points="426.279,500.033 404.123,635.379 379.002,560.762 		"/>
		<polygon fill="#E47E5D" points="306.679,547.096 404.123,635.379 379.002,560.762 		"/>
		<polygon fill="#00B1A1" points="275.685,52.761 253.537,188.111 228.417,113.49 		"/>
		<polygon fill="#00A5A0" points="156.094,99.824 253.537,188.111 228.417,113.49 		"/>
		<polygon fill="#7E1374" points="785.064,358.864 804.638,376.6 804.638,362.563 		"/>
		<polygon fill="#BD3F58" points="734.508,-15.913 731.921,-0.118 726.601,-15.913 		"/>
		<polygon fill="#C34C58" points="714.486,-15.913 731.921,-0.118 726.604,-15.913 		"/>
		<polygon fill="#5F4581" points="621.166,676.611 599.009,811.955 573.888,737.339 		"/>
		<polygon fill="#665181" points="501.567,723.665 599.019,811.955 573.888,737.339 		"/>
		<polygon fill="#D8627C" points="470.579,229.338 448.426,364.688 423.303,290.069 		"/>
		<polygon fill="#DB7177" points="350.981,276.4 448.426,364.688 423.303,290.069 		"/>
		<polygon fill="#D8906E" points="381.976,770.729 368.275,854.408 342.431,854.408 334.7,831.457 		"/>
		<polygon fill="#CA4D65" points="262.379,817.779 302.804,854.408 342.431,854.408 334.7,831.457 		"/>
		<polygon fill="#D78173" points="231.383,323.455 209.236,458.806 184.115,384.185 		"/>
		<polygon fill="#DC766F" points="111.784,370.516 209.236,458.806 184.115,384.185 		"/>
		<polygon fill="#00566D" points="63.138,-15.913 58.642,11.534 49.407,-15.913 		"/>
		<polygon fill="#005168" points="28.356,-15.913 58.642,11.534 49.407,-15.913 		"/>
		<polygon fill="#461A79" points="740.762,629.556 804.638,687.426 804.638,641.629 		"/>
		<polygon fill="#C54163" points="709.766,135.224 687.62,270.576 662.498,195.953 		"/>
		<polygon fill="#C2366E" points="590.169,182.286 687.62,270.576 662.498,195.953 		"/>
		<polygon fill="#5F4581" points="621.166,676.611 599.009,811.955 573.888,737.339 		"/>
		<polygon fill="#665181" points="501.567,723.665 599.019,811.955 573.888,737.339 		"/>
		<polygon fill="#D8627C" points="470.579,229.338 448.426,364.688 423.303,290.069 		"/>
		<polygon fill="#DB7177" points="350.981,276.4 448.426,364.688 423.303,290.069 		"/>
		<polygon fill="#D8906E" points="381.976,770.729 368.275,854.408 342.431,854.408 334.7,831.457 		"/>
		<polygon fill="#CA4D65" points="262.379,817.779 302.804,854.408 342.431,854.408 334.7,831.457 		"/>
		<polygon fill="#D78173" points="231.383,323.455 209.236,458.806 184.115,384.185 		"/>
		<polygon fill="#DC766F" points="111.784,370.516 209.236,458.806 184.115,384.185 		"/>
		<polygon fill="#00566D" points="63.138,-15.913 58.642,11.534 49.407,-15.913 		"/>
		<polygon fill="#005168" points="28.356,-15.913 58.642,11.534 49.407,-15.913 		"/>
		<polygon fill="#461A79" points="740.762,629.556 804.638,687.426 804.638,641.629 		"/>
		<polygon fill="#C54163" points="709.766,135.224 687.62,270.576 662.498,195.953 		"/>
		<polygon fill="#C2366E" points="590.169,182.286 687.62,270.576 662.498,195.953 		"/>
		<polygon fill="#DC4C4D" points="67.484,641.204 164.935,729.492 92.516,715.735 		"/>
		<polygon fill="#AF0C48" points="45.337,776.554 164.935,729.492 92.516,715.735 		"/>
		<polygon fill="#836988" points="-0.433,268.833 14.341,282.228 -0.433,279.415 		"/>
		<polygon fill="#876787" points="-0.433,288.039 14.341,282.228 -0.433,279.415 		"/>
		<polygon fill="#912C78" points="545.868,452.979 643.319,541.261 570.898,527.503 		"/>
		<polygon fill="#872E79" points="523.723,588.324 643.319,541.261 570.898,527.503 		"/>
		<polygon fill="#9B768C" points="395.282,5.706 492.727,93.996 420.313,80.24 		"/>
		<polygon fill="#A6778D" points="373.136,141.052 492.727,93.996 420.313,80.24 		"/>
		<polygon fill="#E9805B" points="306.679,547.088 404.123,635.379 331.704,621.621 		"/>
		<polygon fill="#E48460" points="284.524,682.438 404.123,635.379 331.711,621.621 		"/>
		<polygon fill="#00A9A1" points="156.094,99.824 253.537,188.111 181.12,174.357 		"/>
		<polygon fill="#1DA5A7" points="133.939,235.166 253.537,188.111 181.12,174.348 		"/>
		<polygon fill="#781376" points="785.064,358.864 804.638,376.6 804.638,417.159 		"/>
		<polygon fill="#63127A" points="762.908,494.209 804.638,477.791 804.638,440.416 		"/>
		<polygon fill="#D07657" points="714.486,-15.913 731.921,-0.118 659.501,-13.875 658.818,-15.913 		"/>
		<polygon fill="#DAA850" points="612.324,46.936 731.921,-0.118 659.501,-13.875 		"/>
		<polygon fill="#7A4E7E" points="501.567,723.665 599.019,811.955 526.598,798.197 		"/>
		<polygon fill="#516B86" points="491.122,854.408 599.019,811.955 526.598,798.197 482.991,854.408 		"/>
		<polygon fill="#D7737C" points="350.981,276.4 448.426,364.688 376.013,350.926 		"/>
		<polygon fill="#E27D6D" points="328.827,411.746 448.426,364.688 376.013,350.926 		"/>
		<polygon fill="#C83B60" points="262.379,817.779 302.804,854.408 274.678,854.408 		"/>
		<polygon fill="#D27176" points="111.784,370.516 209.236,458.798 136.816,445.039 		"/>
		<polygon fill="#E56966" points="89.638,505.859 209.236,458.798 136.816,445.039 		"/>
		<polygon fill="#004A60" points="28.356,-15.913 58.642,11.534 -0.433,0.309 -0.433,-15.913 		"/>
		<polygon fill="#004E65" points="-0.433,34.775 58.642,11.534 -0.433,0.309 		"/>
		<polygon fill="#471B7A" points="740.762,629.549 804.638,687.426 804.638,711.465 765.784,704.084 		"/>
		<polygon fill="#2A1E75" points="718.608,764.901 804.638,731.047 804.638,711.465 765.784,704.084 		"/>
		<polygon fill="#C43971" points="590.169,182.286 687.62,270.576 615.198,256.819 		"/>
		<polygon fill="#C23C6D" points="568.021,317.628 687.62,270.576 615.198,256.811 		"/>
		<polygon fill="#7A4E7E" points="501.567,723.665 599.019,811.955 526.598,798.197 		"/>
		<polygon fill="#516B86" points="491.122,854.408 599.019,811.955 526.598,798.197 482.991,854.408 		"/>
		<polygon fill="#D7737C" points="350.981,276.4 448.426,364.688 376.013,350.926 		"/>
		<polygon fill="#E27D6D" points="328.833,411.774 448.426,364.688 376.013,350.926 		"/>
		<polygon fill="#C83B60" points="262.379,817.779 302.804,854.408 274.678,854.408 		"/>
		<polygon fill="#D27176" points="111.784,370.516 209.236,458.798 136.816,445.039 		"/>
		<polygon fill="#E56966" points="89.638,505.859 209.236,458.798 136.816,445.039 		"/>
		<polygon fill="#004A60" points="28.356,-15.913 58.642,11.534 -0.433,0.309 -0.433,-15.913 		"/>
		<polygon fill="#004E65" points="-0.433,34.775 58.642,11.534 -0.433,0.309 		"/>
		<polygon fill="#471B7A" points="740.762,629.549 804.638,687.426 804.638,711.465 765.784,704.084 		"/>
		<polygon fill="#2A1E75" points="718.608,764.901 804.638,731.047 804.638,711.465 765.784,704.084 		"/>
		<polygon fill="#C43971" points="590.169,182.286 687.62,270.576 615.198,256.819 		"/>
		<polygon fill="#C23C6D" points="568.021,317.628 687.62,270.576 615.198,256.811 		"/>
		<polygon fill="#B00D49" points="45.337,776.554 164.935,729.492 117.637,790.35 		"/>
		<polygon fill="#B10E4B" points="144.488,854.408 164.935,729.492 117.637,790.35 139.261,854.408 		"/>
		<polygon fill="#8E6384" points="-0.433,288.039 14.341,282.228 -0.433,301.236 		"/>
		<polygon fill="#A3537F" points="-0.433,372.506 14.341,282.219 -0.433,301.236 		"/>
		<polygon fill="#812C7A" points="523.723,588.324 643.319,541.261 596.02,602.128 		"/>
		<polygon fill="#6D277D" points="621.166,676.611 643.319,541.261 596.02,602.128 		"/>
		<polygon fill="#AB738C" points="373.128,141.052 492.727,93.996 445.436,154.855 		"/>
		<polygon fill="#C46183" points="470.579,229.338 492.727,93.996 445.436,154.855 		"/>
		<polygon fill="#E28662" points="284.524,682.438 404.123,635.379 356.832,696.234 		"/>
		<polygon fill="#EAB77B" points="381.976,770.729 404.123,635.379 356.825,696.234 		"/>
		<polygon fill="#3BA0A4" points="133.939,235.166 253.537,188.111 206.24,248.97 		"/>
		<polygon fill="#858F96" points="231.383,323.455 253.537,188.111 206.24,248.97 		"/>
		<polygon fill="#5D137B" points="762.908,494.209 804.638,477.791 804.638,502.169 		"/>
		<polygon fill="#D9A151" points="612.324,46.936 731.921,-0.118 684.622,60.741 		"/>
		<polygon fill="#E1804A" points="709.766,135.224 731.921,-0.118 684.622,60.741 		"/>
		<polygon fill="#3C708A" points="491.122,854.408 599.019,811.955 566.023,854.408 		"/>
		<polygon fill="#007E90" points="592.061,854.408 599.019,811.955 566.023,854.408 		"/>
		<polygon fill="#E17B6D" points="328.833,411.774 448.432,364.711 401.141,425.576 		"/>
		<polygon fill="#DD7368" points="426.279,500.033 448.426,364.683 401.135,425.548 		"/>
		<polygon fill="#00C1A5" points="275.685,52.761 286.926,-15.913 252.5,-15.913 		"/>
		<polygon fill="#E86D65" points="89.638,505.859 209.236,458.798 161.938,519.664 		"/>
		<polygon fill="#F1795B" points="187.081,594.148 209.236,458.798 161.938,519.664 		"/>
		<polygon fill="#00576E" points="-0.433,34.775 58.642,11.534 11.352,72.392 -0.433,70.144 		"/>
		<polygon fill="#006E82" points="36.497,146.877 58.643,11.532 11.352,72.392 		"/>
		<polygon fill="#221E74" points="718.608,764.901 804.638,731.047 804.638,761.031 790.907,778.706 		"/>
		<polygon fill="#0F1B72" points="804.638,761.031 790.907,778.696 804.638,819.366 		"/>
		<polygon fill="#C13B6C" points="568.021,317.628 687.62,270.576 640.322,331.434 		"/>
		<polygon fill="#AC336B" points="665.464,405.918 687.62,270.565 640.322,331.434 		"/>
		<polygon fill="#BB194F" points="144.488,854.408 164.935,729.492 190.057,804.114 150.898,854.408 		"/>
		<polygon fill="#CE3454" points="262.379,817.779 164.928,729.492 190.057,804.114 		"/>
		<polygon fill="#A5567F" points="-0.433,372.5 14.341,282.219 39.463,356.842 -0.433,408.094 		"/>
		<polygon fill="#996987" points="111.784,370.51 14.341,282.219 39.463,356.842 		"/>
		<polygon fill="#63227E" points="621.166,676.611 643.313,541.261 668.441,615.882 		"/>
		<polygon fill="#6E2C93" points="740.762,629.549 643.313,541.261 668.441,615.882 		"/>
		<polygon fill="#C85D7F" points="470.579,229.338 492.727,93.996 517.849,168.61 		"/>
		<polygon fill="#CA6A74" points="590.169,182.286 492.727,93.996 517.849,168.61 		"/>
		<polygon fill="#E3B37C" points="381.967,770.729 404.123,635.379 429.246,709.996 		"/>
		<polygon fill="#BF7D72" points="501.567,723.665 404.123,635.379 429.246,709.996 		"/>
		<polygon fill="#958A92" points="231.383,323.455 253.537,188.111 278.658,262.728 		"/>
		<polygon fill="#938A94" points="350.981,276.4 253.537,188.111 278.658,262.728 		"/>
		<polygon fill="#D25E54" points="709.766,135.224 731.921,-0.118 757.041,74.495 		"/>
		<polygon fill="#AB2252" points="804.638,65.766 731.921,-0.118 757.041,74.495 804.638,83.497 		"/>
		<polygon fill="#BD1556" points="67.484,641.204 -0.433,579.669 -0.433,628.363 		"/>
		<polygon fill="#008292" points="592.061,854.408 599.009,811.955 613.307,854.408 		"/>
		<polygon fill="#008292" points="645.868,854.408 599.009,811.955 613.307,854.408 		"/>
		<polygon fill="#D9696A" points="426.279,500.033 448.426,364.688 473.547,439.306 		"/>
		<polygon fill="#D25672" points="545.868,452.972 448.426,364.683 473.547,439.306 		"/>
		<polygon fill="#00BEA4" points="275.685,52.761 286.926,-15.913 320.284,-15.913 322.96,-7.968 		"/>
		<polygon fill="#47969B" points="395.282,5.706 371.419,-15.913 320.284,-15.913 322.96,-7.968 		"/>
		<polygon fill="#F4815B" points="187.081,594.148 209.236,458.798 234.358,533.419 		"/>
		<polygon fill="#F48E5A" points="306.679,547.088 209.236,458.798 234.358,533.419 		"/>
		<polygon fill="#007587" points="36.497,146.877 58.642,11.534 83.764,86.148 		"/>
		<polygon fill="#007B8B" points="156.087,99.824 58.642,11.534 83.764,86.148 		"/>
		<polygon fill="#9E2770" points="665.464,405.918 687.62,270.576 712.742,345.19 		"/>
		<polygon fill="#971A73" points="785.064,358.864 687.62,270.576 712.742,345.19 		"/>
		<polygon fill="#CB3356" points="262.379,817.779 164.935,729.492 237.347,743.247 		"/>
		<polygon fill="#EA704B" points="284.524,682.438 164.928,729.492 237.347,743.257 		"/>
		<polygon fill="#A56785" points="111.784,370.516 14.341,282.228 86.761,295.984 		"/>
		<polygon fill="#628999" points="133.939,235.166 14.341,282.228 86.761,295.984 		"/>
		<polygon fill="#5D2286" points="740.762,629.549 643.313,541.261 715.732,555.027 		"/>
		<polygon fill="#9647BA" points="762.908,494.209 643.313,541.269 715.732,555.027 		"/>
		<polygon fill="#CD6472" points="590.169,182.286 492.727,93.996 565.146,107.754 		"/>
		<polygon fill="#CB9068" points="612.324,46.936 492.727,93.996 565.146,107.754 		"/>
		<polygon fill="#55020B" points="-0.433,841.568 3.875,854.408 -0.433,854.408 		"/>
		<polygon fill="#630216" points="45.337,776.554 -0.433,794.556 -0.433,835.541 		"/>
		<polygon fill="#B77B77" points="501.567,723.665 404.123,635.379 476.542,649.133 		"/>
		<polygon fill="#BA606B" points="523.723,588.324 404.123,635.379 476.542,649.141 		"/>
		<polygon fill="#A6848F" points="350.981,276.4 253.537,188.111 325.949,201.868 		"/>
		<polygon fill="#679AAA" points="373.128,141.052 253.537,188.111 325.949,201.868 		"/>
		<polygon fill="#A21750" points="804.638,65.766 731.921,-0.118 804.333,13.636 804.638,14.54 		"/>
		<polygon fill="#960B4D" points="772.056,-15.913 731.921,-0.118 804.333,13.636 804.638,13.242 804.638,-15.913 		"/>
		<polygon fill="#CB3356" points="262.379,817.779 164.935,729.492 237.347,743.247 		"/>
		<polygon fill="#EA704B" points="284.524,682.438 164.928,729.492 237.347,743.257 		"/>
		<polygon fill="#A56785" points="111.784,370.516 14.341,282.228 86.761,295.984 		"/>
		<polygon fill="#628999" points="133.939,235.166 14.341,282.228 86.761,295.984 		"/>
		<polygon fill="#5D2286" points="740.762,629.549 643.313,541.261 715.732,555.027 		"/>
		<polygon fill="#9647BA" points="762.908,494.209 643.313,541.269 715.732,555.027 		"/>
		<polygon fill="#CD6472" points="590.169,182.286 492.727,93.996 565.146,107.754 		"/>
		<polygon fill="#CB9068" points="612.324,46.936 492.727,93.996 565.146,107.754 		"/>
		<polygon fill="#55020B" points="-0.433,841.568 3.875,854.408 -0.433,854.408 		"/>
		<polygon fill="#630216" points="45.337,776.554 -0.433,794.556 -0.433,835.541 		"/>
		<polygon fill="#B77B77" points="501.567,723.665 404.123,635.379 476.542,649.133 		"/>
		<polygon fill="#BA606B" points="523.723,588.324 404.123,635.379 476.542,649.141 		"/>
		<polygon fill="#A6848F" points="350.981,276.4 253.537,188.111 325.949,201.868 		"/>
		<polygon fill="#679AAA" points="373.128,141.052 253.537,188.111 325.949,201.868 		"/>
		<polygon fill="#A21750" points="804.638,65.766 731.921,-0.118 804.333,13.636 804.638,14.54 		"/>
		<polygon fill="#960B4D" points="772.056,-15.913 731.921,-0.118 804.333,13.636 804.638,13.242 804.638,-15.913 		"/>
		<polygon fill="#BF1856" points="67.484,641.204 -0.433,579.669 -0.433,558.521 42.46,566.678 		"/>
		<polygon fill="#C82A63" points="89.638,505.859 -0.433,541.302 -0.433,558.529 42.46,566.678 		"/>
		<polygon fill="#007D90" points="645.868,854.408 599.009,811.955 671.43,825.71 681.067,854.408 		"/>
		<polygon fill="#324E84" points="718.608,764.901 599.009,811.955 671.43,825.718 		"/>
		<polygon fill="#CB5071" points="545.868,452.979 448.426,364.688 520.843,378.446 		"/>
		<polygon fill="#D14C77" points="568.021,317.628 448.426,364.688 520.843,378.446 		"/>
		<polygon fill="#718996" points="395.282,5.706 371.419,-15.913 388.021,-15.913 		"/>
		<polygon fill="#F68A59" points="306.679,547.088 209.236,458.798 281.649,472.563 		"/>
		<polygon fill="#EA8C61" points="328.855,411.832 209.264,458.892 281.677,472.648 		"/>
		<polygon fill="#008894" points="156.087,99.824 58.642,11.534 131.062,25.291 		"/>
		<polygon fill="#007585" points="128.393,-15.913 58.642,11.534 131.062,25.291 163.026,-15.913 		"/>
		<polygon fill="#8D1974" points="785.064,358.864 687.62,270.576 760.034,284.331 		"/>
		<polygon fill="#A92968" points="804.638,224.529 687.62,270.576 760.034,284.331 804.638,226.833 		"/>
		<polygon fill="#E8694C" points="284.524,682.438 164.935,729.492 212.226,668.635 		"/>
		<polygon fill="#E8624F" points="187.081,594.148 164.935,729.492 212.226,668.635 		"/>
		<polygon fill="#668697" points="133.939,235.166 14.341,282.228 61.64,221.36 		"/>
		<polygon fill="#218E97" points="36.497,146.877 14.341,282.228 61.64,221.36 		"/>
		<polygon fill="#9747B8" points="762.908,494.209 643.319,541.269 690.608,480.404 		"/>
		<polygon fill="#7E298F" points="665.464,405.918 643.319,541.269 690.608,480.404 		"/>
		<polygon fill="#C98B6B" points="612.324,46.936 492.727,93.996 540.025,33.138 		"/>
		<polygon fill="#C57E79" points="510.714,-15.913 492.727,93.996 540.025,33.138 523.467,-15.913 		"/>
		<polygon fill="#E8694C" points="284.524,682.438 164.935,729.492 212.226,668.635 		"/>
		<polygon fill="#E8624F" points="187.081,594.148 164.935,729.492 212.226,668.635 		"/>
		<polygon fill="#668697" points="133.939,235.166 14.341,282.228 61.64,221.36 		"/>
		<polygon fill="#218E97" points="36.497,146.877 14.341,282.228 61.64,221.36 		"/>
		<polygon fill="#9747B8" points="762.908,494.209 643.319,541.269 690.608,480.404 		"/>
		<polygon fill="#7E298F" points="665.464,405.918 643.319,541.269 690.608,480.404 		"/>
		<polygon fill="#C98B6B" points="612.324,46.936 492.727,93.996 540.025,33.138 		"/>
		<polygon fill="#C57E79" points="510.714,-15.913 492.727,93.996 540.025,33.138 523.467,-15.913 		"/>
		<polygon fill="#770324" points="45.337,776.554 -0.433,794.556 -0.433,767.817 		"/>
		<polygon fill="#BE646A" points="523.723,588.324 404.123,635.379 451.423,574.519 		"/>
		<polygon fill="#D27163" points="426.279,500.033 404.123,635.384 451.423,574.519 		"/>
		<polygon fill="#5F9BA6" points="373.136,141.052 253.537,188.111 300.828,127.256 		"/>
		<polygon fill="#00B2A3" points="275.685,52.761 253.537,188.111 300.828,127.256 		"/>
		<polygon fill="#AE2357" points="772.056,-15.913 731.921,-0.118 744.189,-15.913 		"/>
		<polygon fill="#B83559" points="734.501,-15.913 731.921,-0.118 744.189,-15.913 		"/>
		<polygon fill="#C72B65" points="89.638,505.859 -0.433,541.302 -0.433,514.917 17.338,492.057 		"/>
		<polygon fill="#C12C6B" points="-0.433,514.924 17.338,492.057 -0.433,439.417 		"/>
		<polygon fill="#365084" points="718.608,764.901 599.009,811.955 646.308,751.096 		"/>
		<polygon fill="#584180" points="621.166,676.611 599.009,811.955 646.308,751.096 		"/>
		<polygon fill="#D34F77" points="568.021,317.628 448.426,364.688 495.724,303.824 		"/>
		<polygon fill="#DB5E76" points="470.579,229.338 448.426,364.688 495.724,303.824 		"/>
		<polygon fill="#B07277" points="399.972,854.408 407.113,845.212 455.284,854.408 		"/>
		<polygon fill="#DAA97C" points="381.976,770.729 368.275,854.408 399.972,854.408 407.121,845.212 		"/>
		<polygon fill="#E98C62" points="328.827,411.746 209.236,458.806 256.527,397.938 		"/>
		<polygon fill="#D98573" points="231.383,323.455 209.236,458.806 256.527,397.938 		"/>
		<polygon fill="#00647A" points="128.393,-15.913 58.642,11.534 79.969,-15.913 		"/>
		<polygon fill="#005B71" points="63.138,-15.913 58.642,11.534 79.969,-15.913 		"/>
		<polygon fill="#B33363" points="804.638,224.529 687.62,270.576 734.911,209.718 804.638,223.022 		"/>
		<polygon fill="#D04F57" points="709.766,135.224 687.62,270.576 734.911,209.718 		"/>
		<polygon fill="#C72B65" points="89.638,505.859 -0.433,541.302 -0.433,514.917 17.338,492.057 		"/>
		<polygon fill="#C12C6B" points="-0.433,514.924 17.338,492.057 -0.433,439.417 		"/>
		<polygon fill="#365084" points="718.608,764.901 599.009,811.955 646.308,751.096 		"/>
		<polygon fill="#584180" points="621.166,676.611 599.009,811.955 646.308,751.096 		"/>
		<polygon fill="#D34F77" points="568.021,317.628 448.426,364.688 495.724,303.824 		"/>
		<polygon fill="#DB5E76" points="470.579,229.338 448.426,364.688 495.724,303.824 		"/>
		<polygon fill="#B07277" points="399.972,854.408 407.113,845.212 455.284,854.408 		"/>
		<polygon fill="#DAA97C" points="381.976,770.729 368.275,854.408 399.972,854.408 407.121,845.212 		"/>
		<polygon fill="#E98C62" points="328.855,411.832 209.264,458.892 256.555,398.023 		"/>
		<polygon fill="#D98573" points="231.383,323.455 209.236,458.806 256.527,397.938 		"/>
		<polygon fill="#00647A" points="128.393,-15.913 58.642,11.534 79.969,-15.913 		"/>
		<polygon fill="#005B71" points="63.138,-15.913 58.642,11.534 79.969,-15.913 		"/>
		<polygon fill="#B33363" points="804.638,224.529 687.62,270.576 734.911,209.718 804.638,223.022 		"/>
		<polygon fill="#D04F57" points="709.766,135.224 687.62,270.576 734.911,209.718 		"/>
		<polygon fill="#AA0B47" points="-0.433,640.752 20.171,701.979 67.514,641.178 -0.433,628.349 		"/>
		<polygon fill="#9D093F" points="-0.433,640.623 20.239,701.965 -0.433,698.063 		"/>
		<polygon fill="#BF5070" points="473.495,439.28 498.556,513.748 545.898,452.946 		"/>
		<polygon fill="#D0636A" points="473.532,439.28 498.625,513.732 426.204,500.058 		"/>
		<polygon fill="#239E9D" points="322.909,-7.992 347.961,66.476 395.305,5.677 		"/>
		<polygon fill="#00B4A3" points="322.944,-7.992 348.03,66.469 275.61,52.786 		"/>
		<polygon fill="#FA8752" points="234.305,533.396 259.358,607.863 306.702,547.064 		"/>
		<polygon fill="#F68056" points="234.342,533.39 259.427,607.846 187.007,594.174 		"/>
		<polygon fill="#00979C" points="83.719,86.123 108.773,160.593 156.094,99.824 		"/>
		<polygon fill="#008894" points="83.75,86.123 108.84,160.585 36.497,146.877 		"/>
		<polygon fill="#7A1778" points="712.688,345.164 737.74,419.636 785.086,358.832 		"/>
		<polygon fill="#861B76" points="712.726,345.164 737.813,419.617 665.391,405.942 		"/>
		<polygon fill="#BE2157" points="190.004,804.081 206.933,854.408 233.857,854.408 262.4,817.756 		"/>
		<polygon fill="#B71450" points="190.042,804.081 206.992,854.408 150.846,854.408 		"/>
		<polygon fill="#C25479" points="39.411,356.818 64.472,431.287 111.815,370.483 		"/>
		<polygon fill="#B74C78" points="39.449,356.818 64.539,431.271 -0.433,418.998 -0.433,408.029 		"/>
		<polygon fill="#50237E" points="668.39,615.857 693.44,690.327 740.784,629.527 		"/>
		<polygon fill="#5C247F" points="668.425,615.848 693.51,690.31 621.09,676.634 		"/>
		<polygon fill="#CF4A77" points="517.794,168.585 542.855,243.056 590.2,182.253 		"/>
		<polygon fill="#CE547C" points="517.832,168.585 542.927,243.048 470.504,229.363 		"/>
		<polygon fill="#AB847B" points="429.193,709.964 454.246,784.443 501.59,723.641 		"/>
		<polygon fill="#E6C684" points="429.229,709.964 454.32,784.429 381.895,770.75 		"/>
		<polygon fill="#C68182" points="278.606,262.701 303.662,337.168 351.003,276.369 		"/>
		<polygon fill="#B38589" points="278.644,262.701 303.727,337.154 231.308,323.479 		"/>
		<polygon fill="#A9155D" points="756.99,74.472 782.043,148.939 804.638,119.921 804.638,83.465 		"/>
		<polygon fill="#CC4656" points="757.026,74.472 782.112,148.931 709.69,135.247 		"/>
		<polygon fill="#8F0436" points="45.322,776.643 70.376,851.117 117.72,790.309 		"/>
		<polygon fill="#790325" points="45.359,776.643 70.451,851.104 -0.433,837.707 -0.433,835.444 		"/>
		<polygon fill="#8A3979" points="523.705,588.411 548.761,662.889 596.104,602.086 		"/>
		<polygon fill="#A34A72" points="523.745,588.411 548.836,662.873 476.414,649.188 		"/>
		<polygon fill="#B4758C" points="373.12,141.146 398.174,215.616 445.517,154.814 		"/>
		<polygon fill="#8890AA" points="373.157,141.14 398.242,215.6 325.823,201.925 		"/>
		<polygon fill="#870347" points="804.638,13.775 804.207,13.693 804.638,13.139 		"/>
		<polygon fill="#E38064" points="284.519,682.526 309.572,757.003 356.916,696.192 		"/>
		<polygon fill="#EB7A52" points="284.555,682.526 309.638,756.988 237.22,743.303 		"/>
		<polygon fill="#00B7C0" points="133.924,235.263 158.986,309.731 206.33,248.93 		"/>
		<polygon fill="#00B2BD" points="133.961,235.255 159.052,309.716 86.635,296.039 		"/>
		<polygon fill="#56147E" points="762.9,494.294 787.955,568.773 804.638,547.345 804.638,502.174 		"/>
		<polygon fill="#682490" points="762.938,494.294 788.021,568.757 715.604,555.082 		"/>
		<polygon fill="#DAA24F" points="612.308,47.031 637.37,121.499 684.713,60.699 		"/>
		<polygon fill="#D3AF57" points="612.347,47.031 637.438,121.483 565.016,107.811 		"/>
		<polygon fill="#E86753" points="89.623,505.948 114.685,580.424 162.028,519.62 		"/>
		<polygon fill="#D53F63" points="89.661,505.948 114.752,580.408 42.333,566.727 		"/>
		<polygon fill="#006077" points="-0.433,87.592 11.435,72.352 -0.433,70.112 		"/>
		<polygon fill="#112C77" points="718.601,764.989 743.653,839.468 790.998,778.655 		"/>
		<polygon fill="#26397D" points="718.64,764.989 743.721,839.448 671.301,825.766 		"/>
		<polygon fill="#B22E77" points="568.006,317.725 593.07,392.193 640.405,331.391 		"/>
		<polygon fill="#C43B78" points="568.045,317.717 593.136,392.179 520.715,378.503 		"/>
		<polygon fill="#E78461" points="328.833,411.774 353.873,486.309 401.216,425.509 		"/>
		<polygon fill="#F28D4E" points="328.855,411.832 353.941,486.294 281.521,472.619 		"/>
		<polygon fill="#00B0A0" points="184.801,-15.913 203.288,39.039 246.068,-15.913 		"/>
		<polygon fill="#009899" points="184.847,-15.913 203.354,39.021 130.935,25.347 163.064,-15.913 		"/>
		<polygon fill="#941371" points="804.638,292.832 759.904,284.388 804.638,226.945 		"/>
		<polygon fill="#8D0433" points="-0.433,728.572 20.261,701.931 -0.433,697.95 		"/>
		<polygon fill="#C96467" points="451.423,574.519 498.645,513.701 426.263,499.781 		"/>
		<polygon fill="#00B8B4" points="300.925,127.125 348.052,66.43 275.677,52.512 		"/>
		<polygon fill="#F98E3E" points="212.322,668.512 259.449,607.815 187.067,593.891 		"/>
		<polygon fill="#00AAA0" points="61.729,221.239 108.863,160.543 36.497,146.877 		"/>
		<polygon fill="#711F83" points="690.708,480.28 737.831,419.587 665.45,405.667 		"/>
		<polygon fill="#EFCC80" points="540.113,33.011 578.106,-15.913 523.554,-15.913 		"/>
		<polygon fill="#C4356D" points="17.428,491.936 64.563,431.236 -0.433,418.74 -0.433,439.15 		"/>
		<polygon fill="#56347E" points="646.396,750.976 693.531,690.279 621.149,676.355 		"/>
		<polygon fill="#D75376" points="495.813,303.704 542.945,243.006 470.564,229.089 		"/>
		<polygon fill="#BF8E79" points="407.216,845.398 454.299,784.339 381.967,770.784 		"/>
		<polygon fill="#D58676" points="256.527,397.938 303.653,337.24 231.279,323.323 		"/>
		<polygon fill="#B72A67" points="735.007,209.587 782.132,148.892 709.76,134.975 		"/>
		<polygon fill="#5F0214" points="67.879,854.408 70.473,851.071 -0.433,837.427 -0.433,841.513 3.928,854.408 		"/>
		<polygon fill="#995678" points="501.723,723.528 548.854,662.838 476.476,648.915 		"/>
		<polygon fill="#BA7B8A" points="351.137,276.265 398.264,215.568 325.89,201.643 		"/>
		<polygon fill="#870347" points="804.638,13.485 804.271,13.42 804.638,14.506 		"/>
		<polygon fill="#D64E5C" points="262.527,817.646 309.662,756.953 237.281,743.03 		"/>
		<polygon fill="#AA7488" points="111.941,370.379 159.076,309.685 86.693,295.758 		"/>
		<polygon fill="#511A7F" points="740.912,629.411 788.046,568.724 715.662,554.801 		"/>
		<polygon fill="#CF666B" points="590.324,182.148 637.459,121.451 565.079,107.535 		"/>
		<polygon fill="#CB2858" points="67.64,641.066 114.776,580.376 42.393,566.452 		"/>
		<polygon fill="#005383" points="732.101,854.408 743.743,839.419 671.363,825.494 681.148,854.408 		"/>
		<polygon fill="#B73C75" points="546.021,452.842 593.157,392.147 520.776,378.22 		"/>
		<polygon fill="#7F8293" points="395.438,5.57 412.122,-15.913 388.172,-15.913 		"/>
		<polygon fill="#F0885A" points="306.679,547.096 353.962,486.261 281.58,472.335 		"/>
		<polygon fill="#00A09D" points="156.094,99.824 203.377,38.989 130.995,25.073 		"/>
		<polygon fill="#881373" points="785.219,358.729 804.638,333.713 804.638,292.705 759.967,284.106 		"/>
		<polygon fill="#8F0434" points="-0.433,728.485 20.217,701.876 45.346,776.585 -0.433,767.72 		"/>
		<polygon fill="#BC566C" points="451.423,574.519 498.6,513.644 523.729,588.355 		"/>
		<polygon fill="#00B0C5" points="300.902,127.093 348.006,66.372 373.143,141.09 		"/>
		<polygon fill="#FDA037" points="212.3,668.474 259.405,607.76 284.532,682.468 		"/>
		<polygon fill="#00A4A0" points="61.714,221.207 108.817,160.487 133.948,235.208 		"/>
		<polygon fill="#6B1A80" points="690.688,480.25 737.786,419.528 762.916,494.247 		"/>
		<polygon fill="#E6C770" points="540.097,32.979 578.027,-15.913 591.182,-15.913 612.333,46.975 		"/>
		<polygon fill="#CB416F" points="17.413,491.894 64.518,431.18 89.646,505.894 		"/>
		<polygon fill="#4A2E7D" points="646.381,750.938 693.487,690.224 718.614,764.933 		"/>
		<polygon fill="#D14579" points="495.796,303.673 542.902,242.95 568.03,317.67 		"/>
		<polygon fill="#AB827B" points="407.186,845.053 454.299,784.339 477.86,854.408 455.47,854.408 		"/>
		<polygon fill="#DA8673" points="256.527,397.938 303.706,337.065 328.855,411.832 		"/>
		<polygon fill="#A81869" points="734.985,209.555 782.09,148.835 804.638,215.874 804.638,223.055 		"/>
		<polygon fill="#80032C" points="67.79,854.408 70.428,851.007 71.568,854.408 		"/>
		<polygon fill="#89447A" points="501.7,723.497 548.814,662.783 573.94,737.495 		"/>
		<polygon fill="#C47287" points="351.116,276.224 398.218,215.51 423.348,290.22 		"/>
		<polygon fill="#EA7C57" points="262.513,817.611 309.616,756.896 334.746,831.61 		"/>
		<polygon fill="#AA7E8A" points="111.928,370.338 159.031,309.627 184.16,384.338 		"/>
		<polygon fill="#50177D" points="740.896,629.378 788.002,568.669 804.638,618.129 804.638,641.733 		"/>
		<polygon fill="#D16964" points="590.313,182.115 637.412,121.395 662.542,196.106 		"/>
		<polygon fill="#D73D57" points="67.618,641.033 114.729,580.318 139.858,655.03 		"/>
		<polygon fill="#06367A" points="732.026,854.408 743.7,839.362 748.76,854.408 		"/>
		<polygon fill="#A62E77" points="546.003,452.802 593.115,392.089 618.242,466.8 		"/>
		<polygon fill="#96748C" points="395.416,5.538 412.053,-15.913 455.73,-15.913 467.656,19.538 		"/>
		<polygon fill="#EC845C" points="306.679,547.096 353.917,486.205 379.045,560.916 		"/>
		<polygon fill="#00B19F" points="156.094,99.824 203.332,38.933 228.461,113.644 		"/>
		<polygon fill="#831274" points="785.197,358.688 804.638,333.633 804.638,362.459 		"/>
		<polygon fill="#9E053E" points="92.561,715.727 20.171,701.866 45.346,776.619 		"/>
		<polygon fill="#A44272" points="570.942,527.497 498.556,513.644 523.729,588.396 		"/>
		<polygon fill="#6E9AB7" points="420.349,80.233 347.971,66.372 373.136,141.123 		"/>
		<polygon fill="#F38A4D" points="331.749,621.611 259.366,607.751 284.532,682.503 		"/>
		<polygon fill="#00ABAE" points="181.163,174.34 108.781,160.487 133.948,235.24 		"/>
		<polygon fill="#63147D" points="804.638,432.335 737.75,419.528 762.916,494.28 804.638,440.475 		"/>
		<polygon fill="#D7BE51" points="659.547,-13.881 648.962,-15.913 591.144,-15.913 612.333,47.007 		"/>
		<polygon fill="#D9516B" points="136.862,445.032 64.48,431.174 89.646,505.932 		"/>
		<polygon fill="#372778" points="765.831,704.073 693.448,690.214 718.614,764.966 		"/>
		<polygon fill="#C73978" points="615.244,256.802 542.865,242.95 568.03,317.702 		"/>
		<polygon fill="#89677E" points="526.644,798.189 454.255,784.33 477.847,854.408 483.049,854.408 		"/>
		<polygon fill="#E28669" points="376.049,350.919 303.668,337.065 328.833,411.817 		"/>
		<polygon fill="#9C1169" points="804.638,153.153 782.052,148.835 804.638,215.922 		"/>
		<polygon fill="#85032F" points="88.155,854.408 70.384,851.007 71.53,854.408 		"/>
		<polygon fill="#743B7D" points="621.158,676.634 548.767,662.776 573.94,737.525 		"/>
		<polygon fill="#D16681" points="470.564,229.363 398.181,215.504 423.348,290.262 		"/>
		<polygon fill="#E48D61" points="381.961,770.75 309.579,756.89 334.746,831.641 		"/>
		<polygon fill="#C17F80" points="231.375,323.479 158.993,309.62 184.16,384.37 		"/>
		<polygon fill="#51177B" points="804.638,571.852 787.963,568.657 804.638,618.193 		"/>
		<polygon fill="#D2595C" points="709.76,135.247 637.377,121.395 662.542,196.147 		"/>
		<polygon fill="#E04E55" points="187.074,594.174 114.685,580.313 139.858,655.063 		"/>
		<polygon fill="#008593" points="36.497,146.877 -0.433,139.834 -0.433,194.51 		"/>
		<polygon fill="#052A76" points="804.638,851.028 743.663,839.354 748.729,854.408 804.638,854.408 		"/>
		<polygon fill="#8A2279" points="665.458,405.942 593.07,392.081 618.242,466.831 		"/>
		<polygon fill="#AC6982" points="455.709,-15.913 467.648,19.568 495.162,-15.913 		"/>
		<polygon fill="#E37D5E" points="426.263,500.058 353.881,486.196 379.045,560.946 		"/>
		<polygon fill="#00BCA2" points="275.677,52.786 203.296,38.933 228.461,113.685 		"/>
		<polygon fill="#BB154E" points="92.568,715.768 20.148,701.94 67.319,640.977 		"/>
		<polygon fill="#B04073" points="570.951,527.539 498.532,513.709 545.703,452.755 		"/>
		<polygon fill="#718B96" points="420.358,80.266 347.947,66.447 395.118,5.481 		"/>
		<polygon fill="#F48457" points="331.756,621.652 259.344,607.822 306.679,547.096 		"/>
		<polygon fill="#009F9F" points="181.17,174.38 108.758,160.553 156.094,99.824 		"/>
		<polygon fill="#791677" points="804.638,432.376 737.729,419.594 784.899,358.638 804.638,417.117 		"/>
		<polygon fill="#D79F52" points="659.553,-13.851 648.737,-15.913 658.852,-15.913 		"/>
		<polygon fill="#C52E5C" points="233.693,854.408 262.206,817.555 274.648,854.408 		"/>
		<polygon fill="#C66079" points="136.868,445.072 64.45,431.244 111.622,370.292 		"/>
		<polygon fill="#4A1F7D" points="765.839,704.115 693.43,690.289 740.59,629.325 		"/>
		<polygon fill="#CC4375" points="615.253,256.843 542.833,243.016 590.006,182.06 		"/>
		<polygon fill="#966A7C" points="526.65,798.232 454.232,784.404 501.403,723.441 		"/>
		<polygon fill="#CE7E80" points="376.057,350.958 303.645,337.13 350.816,276.176 		"/>
		<polygon fill="#A00C5C" points="804.638,153.218 782.03,148.907 804.638,119.679 		"/>
		<polygon fill="#A00542" points="87.812,854.408 70.361,851.076 117.532,790.116 139.232,854.408 		"/>
		<polygon fill="#7C307B" points="621.166,676.676 548.744,662.848 595.915,601.885 		"/>
		<polygon fill="#C06987" points="470.572,229.404 398.16,215.575 445.33,154.622 		"/>
		<polygon fill="#E3A072" points="381.967,770.784 309.557,756.961 356.72,696 		"/>
		<polygon fill="#5CA1A8" points="231.383,323.518 158.963,309.69 206.136,248.728 		"/>
		<polygon fill="#54137D" points="804.638,571.922 787.941,568.734 804.638,547.152 		"/>
		<polygon fill="#E59344" points="709.766,135.289 637.349,121.461 684.519,60.504 		"/>
		<polygon fill="#E3A072" points="381.967,770.784 309.557,756.961 356.72,696 		"/>
		<polygon fill="#5CA1A8" points="231.383,323.518 158.963,309.69 206.136,248.728 		"/>
		<polygon fill="#54137D" points="804.638,571.922 787.941,568.734 804.638,547.152 		"/>
		<polygon fill="#E59344" points="709.766,135.289 637.349,121.461 684.519,60.504 		"/>
		<polygon fill="#EC6859" points="187.081,594.213 114.663,580.385 161.834,519.422 		"/>
		<polygon fill="#007185" points="36.497,146.877 -0.433,139.953 -0.433,87.306 11.249,72.211 		"/>
		<polygon fill="#0D2173" points="804.638,851.071 743.64,839.424 790.805,778.464 804.638,819.44 		"/>
		<polygon fill="#A32777" points="665.464,405.984 593.046,392.154 640.216,331.19 		"/>
		<polygon fill="#E37E63" points="426.27,500.098 353.858,486.27 401.029,425.309 		"/>
		<polygon fill="#00B6A2" points="275.685,52.826 203.266,38.998 245.755,-15.913 252.479,-15.913 		"/>
	</g>
</g>
<g id="logo">
	<g>
		<g>
			<path fill="#D7B029" d="M502.43,138.852c-5.727,0-11.879,0.285-16.789,0.722l64.518,49.233c0.383,0.044,0.594,0.071,0.594,0.071
				l1.459-43.471C552.213,145.407,520.643,138.852,502.43,138.852z"/>
			<path fill="#156C8E" d="M430.549,222.873c0,24.587,2.225,42.639,7.768,55.627l0.045-0.01l24.066-70.715l-31.881,14.313
				C430.553,222.352,430.549,222.609,430.549,222.873z"/>
			<path fill="#E3BD32" d="M430.553,222.088l31.877-14.313l23.209-68.202C443.127,143.628,430.666,165.461,430.553,222.088z"/>
			<path d="M438.363,278.49l-0.043,0.01c0.008,0.02,0.018,0.04,0.023,0.062L438.363,278.49z"/>
			<path fill="#E3BD32" d="M485.641,139.573l1.811,76.85c0.67-26.193,6.084-29.975,26.148-29.975
				c15.502,0,33.152,1.962,36.555,2.359L485.641,139.573z"/>
			<path fill="#36B0E1" d="M546.238,259.149c-7.238,0.431-20.744,1.124-32.635,1.124c-19.078,0-24.992-3.696-26.041-27.811
				l-48.867,45.071l-0.334,0.957L546.238,259.149z"/>
			<path fill="#D7B029" d="M487.373,222.873c0-2.294,0.033-4.431,0.082-6.451l-1.811-76.85l-23.033,67.692l24.943,24.946
				C487.432,229.382,487.373,226.293,487.373,222.873z"/>
			<path fill="#1FA1D6" d="M462.605,207.267l-23.912,70.266l48.869-45.071c-0.006-0.083-0.008-0.166-0.012-0.249L462.605,207.267z"
				/>
			<path fill="#1FA1D6" d="M546.238,259.149l-107.877,19.339l-0.023,0.071c7.813,18.254,22.225,26.458,46.285,28.667l65.348-48.31
				C549.074,258.978,547.797,259.058,546.238,259.149z"/>
			<path fill="#156C8E" d="M551.486,258.816c0,0-0.545,0.038-1.516,0.102l-31.947,23.617l34.186,18.811L551.486,258.816z"/>
			<path fill="#36B0E1" d="M518.023,282.535l-33.398,24.692c4.748,0.436,9.857,0.645,15.379,0.645
				c26.469,0,52.209-6.316,52.209-6.316l-0.004-0.211L518.023,282.535z"/>
		</g>
		<g>
			<polygon fill="#98B92E" points="307.062,188.946 338.281,246.16 338.281,143.113 338.21,143.113 			"/>
			<polygon fill="#6C903D" points="282.053,143.113 307.062,188.946 338.21,143.113 			"/>
			<polygon fill="#98B92E" points="281.968,237.119 281.968,305.677 338.281,246.16 			"/>
			<polygon fill="#98B92E" points="282.053,143.113 281.968,143.113 281.968,237.119 307.062,188.946 			"/>
			<polygon fill="#B2D23D" points="307.062,188.946 281.968,237.119 338.281,246.16 			"/>
			<polygon fill="#B2D23D" points="281.968,305.677 281.968,305.818 338.281,305.818 338.281,246.16 			"/>
			<polygon fill="#E46733" points="403.875,143.113 338.304,143.113 403.875,187.846 			"/>
			<polygon fill="#8E381E" points="370.49,165.07 338.281,187.978 338.281,188.049 338.308,188.049 338.308,188.039 
				403.875,188.039 403.875,187.846 			"/>
			<polygon fill="#D65327" points="338.304,143.113 338.281,143.113 338.281,187.978 370.49,165.07 			"/>
			<polygon fill="#6C903D" points="338.308,201.882 338.281,246.171 389.112,201.882 			"/>
			<polygon fill="#98B92E" points="338.281,246.171 389.306,246.321 389.306,201.882 389.112,201.882 			"/>
			<polygon points="377.977,305.788 377.959,305.818 378.005,305.818 			"/>
			<polygon fill="#D65327" points="338.281,260.841 338.281,305.818 377.959,305.818 377.977,305.788 			"/>
			<polygon fill="#E46733" points="403.875,260.893 338.281,260.841 377.977,305.788 403.875,260.937 			"/>
			<polygon fill="#8E381E" points="377.977,305.788 378.005,305.818 403.875,305.818 403.875,260.937 			"/>
		</g>
		<g>
			<polygon fill="#8E182F" points="609.627,305.873 665.965,305.873 665.965,253.745 609.627,305.725 			"/>
			<polygon fill="#E4345B" points="609.627,305.725 648.158,270.172 609.627,232.978 			"/>
			<polygon fill="#D61D46" points="609.627,232.978 648.158,270.172 648.58,269.783 609.627,189.238 			"/>
			<polygon fill="#E4345B" points="609.539,189.057 609.543,189.061 609.627,189.061 609.627,189.238 648.58,269.783 
				648.697,269.674 665.822,189.057 			"/>
			<polygon fill="#E4345B" points="665.822,189.057 648.697,269.674 665.965,253.745 665.965,189.061 697.535,189.061 
				697.535,189.057 			"/>
			<polygon fill="#7DC44E" points="697.535,143.165 630.432,143.165 697.535,188.247 			"/>
			<polygon fill="#60BA46" points="630.432,143.165 629.43,143.165 576.113,188.335 576.113,189.057 697.535,189.057 
				697.535,188.247 			"/>
			<polygon fill="#7DC44E" points="576.113,143.165 576.113,188.335 629.43,143.165 			"/>
		</g>
		<polygon fill="#CB3593" points="162.204,142.206 102.465,142.206 102.476,142.262 166.856,184.237 167.184,183.944 		"/>
		<polygon points="167.184,183.944 166.856,184.237 167.25,184.49 		"/>
		<polygon fill="#CF4999" points="166.856,184.237 102.476,142.262 119.505,226.145 119.714,226.227 		"/>
		<polygon points="119.714,226.227 119.505,226.145 119.549,226.373 		"/>
		<polygon fill="#CB3593" points="167.25,184.49 166.856,184.237 119.714,226.227 174.834,248.082 		"/>
		<polygon fill="#CF4999" points="174.834,248.082 119.714,226.227 119.549,226.373 135.131,303.127 174.874,248.082 		"/>
		<polygon fill="#168E74" points="218.693,304.139 179.203,248.082 176.688,248.082 176.688,304.909 218.546,304.909 		"/>
		<polygon fill="#8E226D" points="174.874,248.082 135.131,303.127 135.494,304.909 176.688,304.909 176.688,248.082 		"/>
		<polygon fill="#66C4AE" points="190.802,142.206 190.619,142.206 183.125,211.717 236.762,206.841 237.401,206.397 		"/>
		<polygon fill="#66C4AE" points="237.667,206.763 236.762,206.841 179.203,248.082 218.693,304.139 237.721,206.833 		"/>
		<polygon fill="#4AB79C" points="183.125,211.717 179.333,248.082 236.762,206.841 		"/>
		<polygon fill="#4AB79C" points="250.357,142.206 190.802,142.206 237.401,206.397 237.87,206.069 		"/>
	</g>
</g>
<g id="jugar">
	<g>
		<linearGradient id="SVGID_1_" gradientUnits="userSpaceOnUse" x1="399.9995" y1="515.3682" x2="399.9995" y2="622.5176">
			<stop  offset="0" style="stop-color:#FFFFFF;stop-opacity:0.6"/>
			<stop  offset="0.8535" style="stop-color:#FFFFFF;stop-opacity:0.2586"/>
			<stop  offset="1" style="stop-color:#FFFFFF;stop-opacity:0.2"/>
		</linearGradient>
		<path opacity="0.5" fill="url(#SVGID_1_)" d="M592.687,591.005c0,15.226-1.791,31.513-23.484,31.513H231.757
			c-20.435,0-24.443-5.8-24.443-29.513v-47.124c0-24.343,6.315-30.513,24.443-30.513h336.486c12.343,0,24.443,9.315,24.443,20.513
			V591.005z"/>
		<g>
			<path fill="#22A0D5" d="M341.158,584.012c0.183-1.669,0.275-3.458,0.275-5.368v-25.139l-6.665-5.397l6.127,35.894
				L341.158,584.012z"/>
			<g>
				<polygon fill="#36AFDE" points="304.458,534.52 280.819,534.52 304.307,560.871 304.458,560.738 				"/>
				<polygon points="304.458,560.738 304.307,560.871 304.458,561.041 				"/>
				<path fill="#22A0D5" d="M280.819,534.52h-0.39v44.535c0,0.956,0.023,1.877,0.07,2.771l23.807-20.955L280.819,534.52z"/>
				<path fill="#36AFDE" d="M304.458,579.99v-18.949l-0.151-0.17l-23.574,20.745l24.003,0.626
					C304.549,581.601,304.458,580.854,304.458,579.99z"/>
				<path fill="#8C752D" d="M280.732,581.616l-0.232,0.21c0.825,15.978,9.059,22.062,24.383,23.221l-6.714-22.974L280.732,581.616z"
					/>
				<polygon fill="#186C8D" points="341.434,534.52 317.976,534.52 341.434,553.505 				"/>
				<path fill="#36AFDE" d="M334.769,548.107l-0.125-0.099l-17.643,34.686c-0.014,0.033-0.026,0.074-0.04,0.112l23.935,1.194
					L334.769,548.107z"/>
				<path fill="#22A0D5" d="M317.976,534.52h-0.57v45.471c0,1.073-0.126,1.97-0.404,2.704l17.643-34.686L317.976,534.52z"/>
				<path fill="#D7B029" d="M316.961,582.807c-0.763,1.882-2.578,2.671-5.976,2.671c-3.716,0-5.6-0.951-6.25-3.235l-6.566-0.169
					l6.714,22.974c0.094,0.002,0.191,0.014,0.284,0.016l35.437-21.075L316.961,582.807z"/>
				<path fill="#E1BB2F" d="M305.167,605.063c1.838,0.132,3.777,0.198,5.818,0.198c18.281,0,28.415-5.263,30.173-21.249
					l-0.555-0.024L305.167,605.063z"/>
			</g>
		</g>
		<g>
			<polygon fill="#8E236D" points="390.978,560.822 417.168,582.378 417.168,560.822 			"/>
			<path d="M369.095,534.144l0.128,0.045l-0.031-0.098C369.16,534.111,369.125,534.124,369.095,534.144z"/>
			<path fill="#8E236D" d="M393.85,543.731l22.023,8.53c0.492,0.044,0.764,0.065,0.764,0.065v-18.578c0,0-0.023-0.006-0.066-0.016
				L393.85,543.731z"/>
			<path fill="#CE4A98" d="M389.564,530.142c-8.559,0-15.276,1.172-20.373,3.949l0.031,0.098l24.627,9.543l22.721-9.998
				C415.506,533.478,401.309,530.142,389.564,530.142z"/>
			<path fill="#CA3593" d="M380.965,566.983c0-12.425,0.213-16.034,10.724-16.034c8.378,0,20.979,1.037,24.185,1.313l-46.65-18.073
				l12.001,39.151C381.053,571.534,380.965,569.28,380.965,566.983z"/>
			<path fill="#66C4AE" d="M381.224,573.34c-0.007-0.068-12.001-39.151-12.001-39.151l-0.128-0.045
				c-9.063,4.992-12.973,15.114-12.973,32.84c0,0.718,0.005,1.431,0.017,2.129L381.224,573.34z"/>
			<path fill="#168E74" d="M356.139,569.112c0.418,23.477,7.199,34.423,33.173,34.492L356.139,569.112z"/>
			<polygon fill="#CA3593" points="417.168,600.529 417.168,582.378 391.096,560.92 			"/>
			<path fill="#CE4A98" d="M394.44,582.029l-0.207,0.861v0.438c0,0-0.036,0.002-0.105,0.004l-0.018,0.084l23.058,17.113
				l-26.072-39.609l-0.118-0.098h-0.033l0.105,17.199h3.184v4.869L394.44,582.029z"/>
			<path fill="#66C4AE" d="M394.11,583.416l-4.799,20.188c0.067,0,0.186,0.003,0.253,0.003c8.385,0,27.604-3.078,27.604-3.078
				L394.11,583.416z"/>
			<path fill="#53BFA3" d="M390.626,583.435c-6.423,0-8.714-3.282-9.402-10.095l-25.085-4.228l33.173,34.492l4.816-20.272
				C393.673,583.354,391.828,583.435,390.626,583.435z"/>
		</g>
		<g>
			<polygon fill="#E46731" points="441.779,553.953 431.221,601.762 455.043,601.762 455.049,601.705 			"/>
			<polygon fill="#D55328" points="459.846,575.224 463.816,550.776 441.791,553.907 441.779,553.953 455.049,601.705 
				456.707,593.73 459.92,575.224 			"/>
			<polygon fill="#E46731" points="441.791,553.907 463.816,550.776 446.68,531.78 			"/>
			<polygon fill="#B0D13D" points="483.352,531.764 446.68,531.764 446.68,531.78 463.816,550.776 466.43,550.776 483.363,531.808 
							"/>
			<polygon fill="#E46731" points="492.23,571.158 483.363,531.808 466.43,550.776 			"/>
			<polygon fill="#D55328" points="492.23,571.158 466.43,550.776 470.188,575.224 469.936,575.224 472.779,594.055 
				474.684,601.762 474.801,601.762 492.309,571.5 			"/>
			<polygon fill="#6C903D" points="459.846,575.224 456.707,593.73 470.234,575.224 			"/>
			<polygon fill="#B0D13D" points="472.779,594.055 470.188,575.224 456.732,593.713 472.697,593.713 			"/>
			<polygon fill="#E46731" points="492.23,571.158 474.801,601.762 499.127,601.762 			"/>
		</g>
		<g>
			<path fill="#8E391E" d="M545.045,530.174h-5.25l15.934,14.513l12.287-9.496C562.938,531.373,555.311,530.174,545.045,530.174z"/>
			<path fill="#E46731" d="M568.016,535.19l-12.287,9.496l19.574,17.829c0.266-1.887,0.4-3.927,0.4-6.14
				C575.703,545.633,573.174,539.067,568.016,535.19z"/>
			<path fill="#8E236D" d="M545.814,563.479c-0.043,0-0.088,0.006-0.133,0.006h-5.91v0.401l6.043,19.031V563.479z"/>
			<polygon fill="#CE4A98" points="539.771,563.886 539.771,582.898 545.682,582.898 545.787,582.898 545.814,583.041 
				545.814,582.917 			"/>
			<path fill="#D55328" d="M539.795,530.174h-0.023v19.415h5.273c3.063,0,4.834,1.345,5.51,3.943l24.486,8.738L539.795,530.174z"/>
			<path fill="#E46731" d="M575.303,562.516l-0.262-0.245l-24.486-8.738c0.217,0.826,0.324,1.771,0.324,2.844
				c0,3.715-1.191,6.164-3.611,6.877l28.031-0.713C575.299,562.532,575.303,562.521,575.303,562.516z"/>
			<path fill="#D55328" d="M575.299,562.54l-28.031,0.713c-0.43,0.13-0.893,0.207-1.4,0.22l28.824,37.219l-6.838-23.63
				C571.814,573.848,574.361,569.155,575.299,562.54z"/>
			<path fill="#E46731" d="M545.867,563.473c-0.016,0-0.031,0.006-0.053,0.006v19.299l28.973,18.239l-0.096-0.325L545.867,563.473z"
				/>
			<polygon fill="#8E391E" points="545.814,582.777 545.814,583.041 549.82,601.254 574.857,601.254 574.787,601.017 			"/>
			<polygon fill="#B0D13D" points="525.93,581.746 539.965,601.254 539.99,601.254 539.871,562.956 			"/>
			<polygon fill="#6C903D" points="515.129,530.174 515.129,530.363 528.021,547.073 539.365,530.174 			"/>
			<polygon fill="#A0C03A" points="515.129,566.29 528.021,547.073 515.129,530.363 			"/>
			<polygon fill="#B0D13D" points="539.365,530.174 515.129,566.29 515.129,566.471 539.871,562.859 539.771,530.174 			"/>
			<polygon fill="#A0C03A" points="515.129,566.471 515.129,566.73 525.93,581.746 539.871,562.956 539.871,562.859 			"/>
			<polygon fill="#6C903D" points="515.129,566.73 515.129,601.254 515.201,601.254 531.287,589.188 			"/>
			<polygon fill="#A0C03A" points="531.287,589.188 515.201,601.254 539.965,601.254 			"/>
		</g>
		<polygon fill="#8D182F" points="262.507,529.425 237.256,529.425 250.586,550.655 262.507,529.601 		"/>
		<polygon fill="#E4345B" points="262.507,529.601 250.586,550.655 262.507,569.63 		"/>
		<path fill="#60BA46" d="M232.209,604.012c18.795-0.014,30.298-1.408,30.298-20.817v-13.708L232.209,604.012z"/>
		<path fill="#2F8F44" d="M230.038,583.299v20.713c0.11,0,2.061,0,2.171,0L241.091,594l-9.105-10.67
			C231.964,583.33,230.058,583.299,230.038,583.299z"/>
		<path fill="#D51E47" d="M237.089,567.556c0,15.394-0.438,15.772-5.104,15.774l9.083,10.773l-3.979-63.847V567.556z"/>
		<polygon fill="#D51E47" points="262.507,569.729 262.507,569.63 237.256,529.425 237.089,529.425 237.089,530.257 
			241.068,594.104 241.091,594.132 		"/>
	</g>
</g>
</svg>
